<svg width="335" height="66" viewBox="0 0 335 66" fill="none" xmlns="http://www.w3.org/2000/svg">
<path d="M3.6 46.96C3.14667 46.96 2.85333 46.6667 2.72 46.08C2.58667 45.7867 2.52 45.2533 2.52 44.48C2.52 42.16 2.49333 40.0933 2.44 38.28C2.36 35.6667 2.32 32.9067 2.32 30V21.2C2.32 20.96 2.42667 20.7333 2.64 20.52C2.88 20.28 3.12 20.16 3.36 20.16L7.96 20.2C8.81333 20.2267 9.93333 20.24 11.32 20.24C13.32 20.24 14.8667 20.2267 15.96 20.2L17.44 20.16C19.04 20.1067 20.36 20.08 21.4 20.08C23.08 20.08 24.68 20.32 26.2 20.8C27.9867 21.3333 29.44 22.2533 30.56 23.56C31.8133 24.9733 32.44 26.88 32.44 29.28C32.44 33.3333 31.4133 36.2667 29.36 38.08C27.5467 39.7867 24.84 40.64 21.24 40.64H15.76C15.7867 41.2533 15.8 41.9067 15.8 42.6C15.8 42.84 15.7867 43.1333 15.76 43.48C15.76 43.8 15.76 44.24 15.76 44.8C15.76 45.68 15.5733 46.24 15.2 46.48C14.9067 46.72 14.36 46.84 13.56 46.84C12.3867 46.84 11.5733 46.8533 11.12 46.88C9.28 46.88 7.81333 46.9067 6.72 46.96H3.6ZM17.92 35.84C18.48 35.84 18.8933 35.3067 19.16 34.24C19.3733 33.52 19.5333 32.4533 19.64 31.04C19.6933 30.2667 19.72 29.4 19.72 28.44V28C19.72 27.5733 19.6533 26.9333 19.52 26.08C19.4133 25.6 19.2933 25.2267 19.16 24.96C19.0267 24.6667 18.8533 24.4267 18.64 24.24C18.4267 24 18.1867 23.88 17.92 23.88C17.7867 23.88 17.6667 23.9333 17.56 24.04C17.48 24.1467 17.4 24.28 17.32 24.44C17.0267 24.92 16.76 25.9867 16.52 27.64C16.44 28.12 16.3733 28.84 16.32 29.8C16.1867 31.2667 16.12 33.2267 16.12 35.68C16.12 35.68 16.1333 35.6933 16.16 35.72C16.1867 35.7467 16.24 35.7733 16.32 35.8L16.8 35.84H17.92ZM54.3547 47.44C53.1814 46.2933 52.1814 45.1333 51.3547 43.96C50.768 43.1867 49.8614 41.8133 48.6347 39.84L47.9547 38.76C47.928 38.7333 47.9014 38.72 47.8747 38.72C47.8747 38.6933 47.8747 38.68 47.8747 38.68H47.6747L47.5147 38.76C47.488 39.1067 47.4747 40.04 47.4747 41.56C47.4747 42.5467 47.4214 43.7067 47.3147 45.04L47.2747 46.24C47.168 46.5333 47.1014 46.68 47.0747 46.68H46.7947H46.6747C43.7414 46.8933 41.608 47 40.2747 47H39.6747H38.9147C38.6214 47 38.408 46.9867 38.2747 46.96H37.9947L36.7547 46.56L36.6747 46.28C36.6214 46.28 36.5814 46.2267 36.5547 46.12C36.5547 46.0133 36.5547 45.9333 36.5547 45.88C36.4747 44.76 36.408 43.9467 36.3547 43.44C36.248 42 36.1814 40.9467 36.1547 40.28C36.1014 39.64 36.0747 39.2267 36.0747 39.04L35.8747 36.84L35.8347 35.64C35.808 35.4 35.7947 35.0667 35.7947 34.64V34.28C35.848 34.1467 35.8747 33.9333 35.8747 33.64V32.96C35.9014 32.8533 35.9147 32.7333 35.9147 32.6L35.8747 32.28V31.88C35.8747 31.6933 35.848 31.5467 35.7947 31.44V31.2L35.8347 30.2C35.8614 30.0133 35.8747 29.7333 35.8747 29.36C35.928 28.56 35.9547 27.8 35.9547 27.08V26.68C35.928 26.6 35.9147 26.4267 35.9147 26.16V25.6V25.2C35.8347 25.12 35.7947 25.04 35.7947 24.96C35.7947 24.5867 36.128 24.32 36.7947 24.16C37.1414 24.0533 37.6347 24 38.2747 24C44.5147 24 49.1814 24.2133 52.2747 24.64C55.3147 25.0667 57.448 25.8 58.6747 26.84C59.208 27.3467 59.5814 27.9467 59.7947 28.64C60.0347 29.3067 60.1547 30.1067 60.1547 31.04C60.1547 32.5333 59.728 33.7867 58.8747 34.8C58.3147 35.36 57.6614 35.8267 56.9147 36.2C57.0747 36.6 57.5414 37.4 58.3147 38.6C58.4747 38.7867 58.6214 38.9867 58.7547 39.2C58.9147 39.4133 59.1014 39.64 59.3147 39.88C59.8214 40.5733 60.408 41.3333 61.0747 42.16C61.1014 42.2667 61.208 42.4933 61.3947 42.84C61.528 42.8933 61.5947 42.96 61.5947 43.04C61.6214 43.0933 61.608 43.1733 61.5547 43.28C61.3414 43.6 60.7147 44.0667 59.6747 44.68C59.5414 44.8133 59.3814 44.9467 59.1947 45.08C58.6614 45.5067 57.928 45.9467 56.9947 46.4C56.1414 46.8533 55.408 47.1733 54.7947 47.36C54.5547 47.4933 54.408 47.52 54.3547 47.44ZM47.0747 33.36C47.4214 33.36 47.888 33.2933 48.4747 33.16C49.0347 33 49.4347 32.84 49.6747 32.68C50.0747 32.44 50.4214 32.1733 50.7147 31.88C51.008 31.5333 51.1547 31.1333 51.1547 30.68C51.1547 29.9333 50.928 29.3333 50.4747 28.88C50.0747 28.56 49.5814 28.4 48.9947 28.4H47.2747C47.2747 28.7467 47.248 29.2933 47.1947 30.04L47.1547 30.88C47.1014 31.4133 47.0747 32.24 47.0747 33.36ZM76.6591 48C76.4457 48 76.1524 47.9733 75.7791 47.92C75.5924 47.8667 75.2991 47.84 74.8991 47.84C73.8857 47.84 72.6324 47.6133 71.1391 47.16H70.8591C70.6724 47.16 70.4724 47.1067 70.2591 47C70.2057 46.9467 70.1391 46.9067 70.0591 46.88C69.9791 46.8267 69.8857 46.76 69.7791 46.68L68.9391 46.2C68.1391 45.7467 67.4324 45.12 66.8191 44.32C66.2057 43.4933 65.7124 42.5867 65.3391 41.6C64.6191 39.7867 64.2591 37.9333 64.2591 36.04C64.2591 33.9333 64.6857 31.9067 65.5391 29.96C66.4457 27.9067 67.6591 26.28 69.1791 25.08C70.8591 23.7467 72.7257 23.08 74.7791 23.08C75.4191 23.08 75.9124 23.1067 76.2591 23.16C76.2591 23.1067 76.2991 23.08 76.3791 23.08H76.4991C78.3657 23.08 80.0324 23.1467 81.4991 23.28C82.7524 23.4667 83.9124 23.8533 84.9791 24.44C87.1124 25.8533 88.6457 27.4 89.5791 29.08C90.5657 30.9467 91.0591 33.1467 91.0591 35.68C91.0591 38.2133 90.4591 40.5867 89.2591 42.8L88.8591 43.44C88.7524 43.6 88.6857 43.68 88.6591 43.68L88.5391 43.88L88.2591 44.04C87.1124 45.7467 85.3791 46.9067 83.0591 47.52C81.5124 47.84 79.3791 48 76.6591 48ZM77.3391 45C77.5791 45 77.7657 44.8533 77.8991 44.56C78.2191 44.08 78.4857 43.1467 78.6991 41.76C78.7257 41.52 78.7924 40.9867 78.8991 40.16C79.0057 39.3333 79.0724 38.56 79.0991 37.84C79.2057 36.0267 79.2591 34.9067 79.2591 34.48V33.56V33.24C79.2591 32.28 79.2191 31.4533 79.1391 30.76C79.0591 29.6667 78.8991 28.8 78.6591 28.16C78.4191 27.84 78.2324 27.68 78.0991 27.68C77.8324 27.68 77.5791 27.88 77.3391 28.28C77.0991 28.68 76.9124 29.4133 76.7791 30.48L75.9391 36.88V37.68V38.2C76.0191 39.32 76.0591 40.0533 76.0591 40.4L76.1391 41.36L76.2591 42.64C76.2591 42.8533 76.2857 43.04 76.3391 43.2L76.7791 44.68C76.8057 44.7867 76.8724 44.8667 76.9791 44.92C77.1124 44.9733 77.2324 45 77.3391 45ZM101.974 49.04C101.281 49.12 100.601 49.16 99.9344 49.16C98.1744 49.16 96.5477 48.8933 95.0544 48.36L93.5344 47.72V47.52C93.5344 47.1733 93.5477 46.8933 93.5744 46.68C93.5744 46.5733 93.5877 46.4667 93.6144 46.36C93.641 46.2533 93.6544 46.1333 93.6544 46C93.7077 45.5733 93.7344 45.3333 93.7344 45.28C93.7344 45.12 93.7477 44.9467 93.7744 44.76C93.8277 44.5467 93.8544 44.32 93.8544 44.08L93.8944 43.56C93.921 43.5067 93.9344 43.4667 93.9344 43.44C93.961 43.3867 93.9744 43.3733 93.9744 43.4C94.721 43.6667 95.2544 43.8267 95.5744 43.88C96.001 43.9867 96.521 44.04 97.1344 44.04C97.3744 44.04 97.5744 43.96 97.7344 43.8C97.921 43.6133 98.0944 43.3467 98.2544 43C98.4144 42.5467 98.4944 42.28 98.4944 42.2C98.5477 41.88 98.601 41.6667 98.6544 41.56C98.6544 40.9733 98.6677 40.4667 98.6944 40.04C98.721 39.64 98.7344 38.88 98.7344 37.76C98.761 37.1467 98.7744 36.2933 98.7744 35.2C98.7744 34.1867 98.801 33.48 98.8544 33.08V31.08L98.7744 24C98.8544 23.84 98.921 23.7333 98.9744 23.68L99.0544 23.64H99.2544C99.2544 23.6667 99.2944 23.68 99.3744 23.68C99.641 23.68 99.9344 23.64 100.254 23.56C100.441 23.5067 100.748 23.48 101.174 23.48C101.814 23.48 102.308 23.5067 102.654 23.56C103.241 23.6133 103.734 23.64 104.134 23.64C104.268 23.5067 104.548 23.44 104.974 23.44H105.494C105.628 23.4667 105.788 23.48 105.974 23.48C106.028 23.48 106.068 23.5067 106.094 23.56C106.148 23.6133 106.201 23.64 106.254 23.64C106.308 23.64 106.348 23.6267 106.374 23.6C106.454 23.6 106.534 23.5867 106.614 23.56C106.694 23.5067 106.774 23.48 106.854 23.48H106.894C107.001 23.48 107.108 23.4933 107.214 23.52C107.321 23.5467 107.401 23.5867 107.454 23.64H109.094L109.374 23.68L109.654 23.64C110.241 23.64 110.668 24.12 110.934 25.08C111.148 25.9067 111.254 27.0133 111.254 28.4V34.48V35.08V36.24C111.201 36.5067 111.174 36.7467 111.174 36.96C111.174 37.1467 111.161 37.3067 111.134 37.44V38.04C111.134 39.7733 111.041 41.1733 110.854 42.24C110.428 43.8933 109.774 45.1333 108.894 45.96C107.801 46.9467 106.294 47.8 104.374 48.52C103.308 48.7867 102.508 48.96 101.974 49.04ZM117.082 46.84C117.029 46.84 116.989 46.7867 116.962 46.68C116.776 46.44 116.642 46.1467 116.562 45.8C116.482 45.6667 116.416 45.4933 116.362 45.28C116.122 44.8 115.949 44.1333 115.842 43.28C115.736 42.0533 115.682 41.08 115.682 40.36C115.656 40.04 115.642 39.6 115.642 39.04V38.08C115.642 37.28 115.629 36.6533 115.602 36.2C115.576 35.72 115.562 34.7733 115.562 33.36C115.562 29.5733 115.642 26.6533 115.802 24.6C115.802 24.28 116.256 24.04 117.162 23.88H118.362H119.362C120.882 23.88 122.016 23.9067 122.762 23.96C123.882 24.04 125.016 24.08 126.162 24.08C126.429 24.08 126.629 24.0667 126.762 24.04H127.362L127.562 24.2C128.442 24.0133 129.349 23.8933 130.282 23.84C131.216 23.7867 132.349 23.76 133.682 23.76C133.736 23.76 133.802 23.8 133.882 23.88H135.162C135.376 23.88 135.536 24 135.642 24.24C135.776 24.48 135.882 24.8267 135.962 25.28C136.069 25.6267 136.149 26.0533 136.202 26.56C136.309 27.2267 136.402 27.6667 136.482 27.88C136.482 28.6267 136.349 29 136.082 29C136.056 29 136.016 28.96 135.962 28.88L135.802 28.84C135.669 28.8133 135.522 28.8267 135.362 28.88C135.202 28.96 135.029 29 134.842 29C134.682 29 134.549 28.96 134.442 28.88C134.389 28.8533 134.269 28.84 134.082 28.84C133.842 28.84 133.562 28.88 133.242 28.96C133.136 28.9867 132.922 29.0267 132.602 29.08C132.309 29.1333 131.962 29.16 131.562 29.16C130.416 29.16 129.589 29.1867 129.082 29.24C128.789 29.2667 128.509 29.3467 128.242 29.48V29.4C128.136 29.4 128.042 29.5333 127.962 29.8C127.776 30.2533 127.656 30.88 127.602 31.68C127.576 31.92 127.562 32.1867 127.562 32.48C127.562 32.7733 127.602 32.9733 127.682 33.08C127.789 33.1867 127.949 33.24 128.162 33.24C128.322 33.24 128.456 33.1867 128.562 33.08C128.616 33.08 128.682 33.0933 128.762 33.12C128.842 33.1467 128.909 33.1867 128.962 33.24H132.362C132.389 33.1867 132.429 33.1467 132.482 33.12C132.536 33.0933 132.589 33.08 132.642 33.08C132.909 33.08 133.109 33.12 133.242 33.2C133.402 33.28 133.722 33.36 134.202 33.44C134.469 33.44 134.656 33.52 134.762 33.68C134.896 33.8667 134.962 34.04 134.962 34.2L135.802 36.84C135.882 37.2667 135.482 37.5467 134.602 37.68C134.096 37.7867 133.122 37.84 131.682 37.84H129.962H128.762C128.389 37.84 128.109 37.8667 127.922 37.92C127.736 37.9467 127.616 38.04 127.562 38.2C127.456 38.3333 127.402 38.5467 127.402 38.84V39C127.402 39.1333 127.416 39.2267 127.442 39.28L127.402 40.16C127.376 40.3467 127.362 40.6267 127.362 41V41.4V41.76V42C128.562 42 129.789 41.96 131.042 41.88C132.269 41.8 133.482 41.76 134.682 41.76C134.762 41.76 134.829 41.8267 134.882 41.96C134.936 42.0667 134.962 42.2 134.962 42.36C135.016 42.52 135.042 42.6933 135.042 42.88C135.096 43.28 135.176 43.6533 135.282 44L135.562 45.16V45.96V46.08V46.4L135.242 46.68H134.962H134.842C134.549 46.68 134.362 46.6667 134.282 46.64C134.202 46.5867 134.109 46.56 134.002 46.56C133.949 46.5867 133.869 46.6267 133.762 46.68C133.656 46.7333 133.562 46.7867 133.482 46.84V46.64L133.002 46.68H132.402C132.296 46.68 132.216 46.6533 132.162 46.6L131.842 46.56C130.856 46.56 130.162 46.6533 129.762 46.84H117.082ZM152.675 47.96C150.328 47.96 148.395 47.7467 146.875 47.32C144.848 46.76 143.275 45.68 142.155 44.08C140.901 42.2933 140.275 39.6933 140.275 36.28C140.275 34.2 140.555 32.3333 141.115 30.68C141.675 29 142.488 27.5867 143.555 26.44C144.621 25.32 145.861 24.4667 147.275 23.88C148.688 23.2933 150.221 23 151.875 23C154.648 23 157.528 23.8667 160.515 25.6L159.995 30.08L159.075 29.88C158.968 29.8533 158.555 29.76 157.835 29.6C157.115 29.44 156.461 29.36 155.875 29.36C154.621 29.36 153.688 29.7867 153.075 30.64C152.275 31.7067 151.875 33.4267 151.875 35.8C151.875 37.7467 152.155 39.2133 152.715 40.2C153.248 41.0267 153.968 41.44 154.875 41.44C155.515 41.44 156.261 41.2267 157.115 40.8C157.941 40.4 158.741 39.9333 159.515 39.4L159.915 45.08C158.981 45.96 157.835 46.6533 156.475 47.16C155.248 47.6933 153.981 47.96 152.675 47.96ZM176.265 47.12H174.425H172.345H169.705C169.465 46.7467 169.305 46.0667 169.225 45.08C169.118 44.2 169.065 42.92 169.065 41.24L169.105 36.84C169.131 35.7733 169.145 34.08 169.145 31.76L169.025 31.64H165.065C164.478 31.64 164.091 30.9733 163.905 29.64C163.798 28.92 163.745 27.8667 163.745 26.48V25.96C163.798 25.7733 163.825 25.48 163.825 25.08V24.28L163.865 23.96L164.025 23.8L164.745 23.84H165.545C166.718 23.84 167.611 23.8267 168.225 23.8H170.825H171.545H172.905H174.625H176.345C176.691 23.8267 177.185 23.84 177.825 23.84H178.825C178.931 23.7867 179.105 23.76 179.345 23.76C179.531 23.7067 179.705 23.68 179.865 23.68C180.371 23.68 180.758 23.7067 181.025 23.76C181.558 23.8133 181.958 23.84 182.225 23.84L183.265 23.8H184.825C185.625 23.8 186.171 23.8133 186.465 23.84L187.025 23.88C187.051 23.9067 187.091 23.9467 187.145 24C187.198 24.0267 187.225 24.0533 187.225 24.08V30.88C187.225 31.04 187.131 31.2133 186.945 31.4C186.785 31.5867 186.625 31.7067 186.465 31.76C185.585 31.5733 184.438 31.48 183.025 31.48H181.505C181.105 31.48 180.838 31.9867 180.705 33C180.651 33.2933 180.625 33.72 180.625 34.28V35.48C180.625 36.0133 180.638 36.4133 180.665 36.68V37.8C180.665 38.8933 180.611 39.9067 180.505 40.84C180.451 41.5333 180.425 42.04 180.425 42.36C180.371 42.68 180.345 43.12 180.345 43.68C180.345 44.48 180.318 45.1467 180.265 45.68C180.238 46.5067 179.931 46.9467 179.345 47C178.705 47.08 178.331 47.12 178.225 47.12H176.265ZM202.87 47.44C202.31 47.44 201.95 46.92 201.79 45.88C201.71 45.4267 201.67 45.0133 201.67 44.64V43.76C201.59 42.88 201.55 42.0267 201.55 41.2C201.443 38.7467 201.35 37.0133 201.27 36C201.27 35.5467 201.243 35.0667 201.19 34.56C201.137 34.0267 201.097 33.6533 201.07 33.44V20.8C201.07 20.56 201.163 20.4133 201.35 20.36H201.59L201.71 20.4C202.643 20.4 203.87 20.36 205.39 20.28C207.417 20.2267 209.11 20.2 210.47 20.2H210.87C211.03 20.2267 211.297 20.24 211.67 20.24H212.39H212.79C213.59 20.24 214.217 20.2533 214.67 20.28H218.79C219.297 20.3333 220.123 20.36 221.27 20.36C221.483 20.36 221.643 20.3733 221.75 20.4C221.963 20.4533 222.203 20.48 222.47 20.48C222.577 20.48 222.683 20.44 222.79 20.36C223.403 20.36 223.737 20.92 223.79 22.04C223.843 22.4133 223.87 22.6933 223.87 22.88C223.87 23.04 223.843 23.36 223.79 23.84C223.763 24.2667 223.75 24.9467 223.75 25.88C223.75 26.1733 223.497 26.3467 222.99 26.4C222.857 26.4267 222.63 26.44 222.31 26.44H221.75H219.95L218.75 26.48C218.483 26.56 218.07 26.6 217.51 26.6C216.95 26.6 216.63 26.5867 216.55 26.56C216.47 26.5867 216.403 26.6133 216.35 26.64C216.323 26.6667 216.297 26.68 216.27 26.68C216.27 26.7333 216.257 26.7867 216.23 26.84C216.203 26.8933 216.19 26.9733 216.19 27.08C216.163 27.2667 216.097 27.96 215.99 29.16C215.963 29.5067 215.95 30.12 215.95 31L215.91 31.08C215.91 31.1867 215.963 31.3067 216.07 31.44H220.87C221.19 31.44 221.417 31.48 221.55 31.56C221.71 31.64 221.83 31.7867 221.91 32C222.017 32.32 222.07 33.1467 222.07 34.48V36.4V37.48C222.017 37.72 221.937 37.88 221.83 37.96C221.75 38.04 221.63 38.08 221.47 38.08C221.257 38.08 221.057 38.1067 220.87 38.16L219.07 38.28H218.27C217.87 38.28 217.603 38.3067 217.47 38.36C217.283 38.4133 217.03 38.4533 216.71 38.48H216.15C215.723 38.48 215.43 38.5333 215.27 38.64C215.137 38.6667 215.003 38.8 214.87 39.04C214.87 41.4667 214.843 43.12 214.79 44C214.763 45.28 214.63 46.2133 214.39 46.8C213.91 46.8 213.217 46.8267 212.31 46.88C211.883 46.88 211.603 46.9067 211.47 46.96H211.07H210.99C210.883 46.96 210.803 46.9467 210.75 46.92C210.697 46.8933 210.643 46.88 210.59 46.88L210.47 46.84C210.47 46.8133 210.417 46.8 210.31 46.8C210.283 46.8 210.23 46.8133 210.15 46.84C210.097 46.8667 210.043 46.9067 209.99 46.96H206.67C206.643 46.9867 206.577 47 206.47 47C206.39 47.0267 206.27 47.0667 206.11 47.12L203.67 47.4L202.87 47.44ZM246.073 47.44C244.9 46.2933 243.9 45.1333 243.073 43.96C242.487 43.1867 241.58 41.8133 240.353 39.84L239.673 38.76C239.647 38.7333 239.62 38.72 239.593 38.72C239.593 38.6933 239.593 38.68 239.593 38.68H239.393L239.233 38.76C239.207 39.1067 239.193 40.04 239.193 41.56C239.193 42.5467 239.14 43.7067 239.033 45.04L238.993 46.24C238.887 46.5333 238.82 46.68 238.793 46.68H238.513H238.393C235.46 46.8933 233.327 47 231.993 47H231.393H230.633C230.34 47 230.127 46.9867 229.993 46.96H229.713L228.473 46.56L228.393 46.28C228.34 46.28 228.3 46.2267 228.273 46.12C228.273 46.0133 228.273 45.9333 228.273 45.88C228.193 44.76 228.127 43.9467 228.073 43.44C227.967 42 227.9 40.9467 227.873 40.28C227.82 39.64 227.793 39.2267 227.793 39.04L227.593 36.84L227.553 35.64C227.527 35.4 227.513 35.0667 227.513 34.64V34.28C227.567 34.1467 227.593 33.9333 227.593 33.64V32.96C227.62 32.8533 227.633 32.7333 227.633 32.6L227.593 32.28V31.88C227.593 31.6933 227.567 31.5467 227.513 31.44V31.2L227.553 30.2C227.58 30.0133 227.593 29.7333 227.593 29.36C227.647 28.56 227.673 27.8 227.673 27.08V26.68C227.647 26.6 227.633 26.4267 227.633 26.16V25.6V25.2C227.553 25.12 227.513 25.04 227.513 24.96C227.513 24.5867 227.847 24.32 228.513 24.16C228.86 24.0533 229.353 24 229.993 24C236.233 24 240.9 24.2133 243.993 24.64C247.033 25.0667 249.167 25.8 250.393 26.84C250.927 27.3467 251.3 27.9467 251.513 28.64C251.753 29.3067 251.873 30.1067 251.873 31.04C251.873 32.5333 251.447 33.7867 250.593 34.8C250.033 35.36 249.38 35.8267 248.633 36.2C248.793 36.6 249.26 37.4 250.033 38.6C250.193 38.7867 250.34 38.9867 250.473 39.2C250.633 39.4133 250.82 39.64 251.033 39.88C251.54 40.5733 252.127 41.3333 252.793 42.16C252.82 42.2667 252.927 42.4933 253.113 42.84C253.247 42.8933 253.313 42.96 253.313 43.04C253.34 43.0933 253.327 43.1733 253.273 43.28C253.06 43.6 252.433 44.0667 251.393 44.68C251.26 44.8133 251.1 44.9467 250.913 45.08C250.38 45.5067 249.647 45.9467 248.713 46.4C247.86 46.8533 247.127 47.1733 246.513 47.36C246.273 47.4933 246.127 47.52 246.073 47.44ZM238.793 33.36C239.14 33.36 239.607 33.2933 240.193 33.16C240.753 33 241.153 32.84 241.393 32.68C241.793 32.44 242.14 32.1733 242.433 31.88C242.727 31.5333 242.873 31.1333 242.873 30.68C242.873 29.9333 242.647 29.3333 242.193 28.88C241.793 28.56 241.3 28.4 240.713 28.4H238.993C238.993 28.7467 238.967 29.2933 238.913 30.04L238.873 30.88C238.82 31.4133 238.793 32.24 238.793 33.36ZM259.113 47.52C258.633 47.52 258.327 47.04 258.193 46.08C258.113 45.68 258.073 45.32 258.073 45C258.073 44.5733 258.06 44.3067 258.033 44.2C258.007 43.4267 257.94 42.2 257.833 40.52L257.713 39C257.553 36.6533 257.473 34.92 257.473 33.8V24.08C257.473 23.8667 257.713 23.7067 258.193 23.6C258.46 23.52 258.833 23.48 259.313 23.48C259.633 23.48 259.98 23.5067 260.353 23.56C260.727 23.5867 261.007 23.6 261.193 23.6C261.593 23.6533 262.22 23.68 263.073 23.68L263.233 23.56H264.993C265.073 23.64 265.167 23.68 265.273 23.68H265.433C265.46 23.6533 265.527 23.64 265.633 23.64C265.687 23.6133 265.767 23.6 265.873 23.6C265.9 23.5733 265.927 23.56 265.953 23.56C265.98 23.56 265.993 23.56 265.993 23.56C266.073 23.56 266.167 23.5867 266.273 23.64C266.38 23.6667 266.46 23.68 266.513 23.68H269.473L269.593 30.56C269.593 30.5867 269.567 30.68 269.513 30.84C269.487 30.9733 269.46 31.16 269.433 31.4C269.353 32.36 269.313 33.12 269.313 33.68V41.48L269.193 43C269.113 43.6667 269.087 44.2133 269.113 44.64C269.113 45.2 269.087 45.6533 269.033 46C269.007 46.32 268.927 46.5733 268.793 46.76C268.633 46.9467 268.38 47.04 268.033 47.04L267.993 47L267.873 46.96C267.82 46.96 267.793 46.9733 267.793 47H267.593C267.433 47.0533 267.34 47.0933 267.313 47.12C267.18 47.12 266.873 47.08 266.393 47L265.833 46.96C265.7 46.96 265.62 47.0133 265.593 47.12H262.593H262.033L260.993 47.32L260.033 47.44L259.113 47.52ZM280.359 47C279.345 46.9733 277.599 46.96 275.119 46.96C274.745 46.96 274.492 46.72 274.359 46.24C274.279 45.9733 274.239 45.5067 274.239 44.84C274.239 43.64 274.212 42.5867 274.159 41.68C274.159 40.8533 274.132 39.3467 274.079 37.16L274.039 32.36V24.8C274.039 24.6133 274.132 24.4133 274.319 24.2C274.532 23.9867 274.732 23.88 274.919 23.88L277.239 23.92C277.612 23.9467 278.159 23.96 278.879 23.96C279.652 23.9867 280.612 24 281.759 24C283.465 24 284.799 23.9867 285.759 23.96C286.692 23.9067 288.252 23.88 290.439 23.88C291.932 23.88 293.305 24.1467 294.559 24.68C296.132 25.3467 297.385 26.3867 298.319 27.8C299.385 29.4533 299.919 31.6 299.919 34.24C299.919 36.6133 299.652 38.6 299.119 40.2C298.612 41.8 297.785 43.0933 296.639 44.08C295.465 45.0933 293.919 45.84 291.999 46.32C290.105 46.7733 287.732 47 284.879 47H280.359ZM285.159 42.48C285.745 42.48 286.132 42.4533 286.319 42.4C286.505 42.3467 286.639 42.28 286.719 42.2C287.119 41.8 287.492 40.6133 287.839 38.64C288.132 36.8 288.279 35.08 288.279 33.48V32.84C288.279 31.9067 288.212 31.0133 288.079 30.16C287.972 29.12 287.759 28.2667 287.439 27.6C287.252 27.3067 287.012 27.16 286.719 27.16C286.479 27.16 286.185 27.2267 285.839 27.36L285.559 27.48C285.559 28.0933 285.532 29.4667 285.479 31.6L285.439 34.08C285.439 34.6133 285.425 35.0267 285.399 35.32L285.359 36.56L285.159 42.48ZM304.478 47.04C303.971 47.04 303.771 46.5867 303.878 45.68C303.878 45.36 303.944 45 304.078 44.6C304.078 44.4133 304.091 44.2667 304.118 44.16C304.144 44.0267 304.158 43.92 304.158 43.84C304.771 40.9333 305.451 38.0667 306.198 35.24L308.918 24.6C308.918 24.5467 308.958 24.48 309.038 24.4C309.118 24.32 309.198 24.2533 309.278 24.2H309.558C309.878 24.2 310.131 24.16 310.318 24.08C310.478 24.0533 310.758 24.04 311.158 24.04C311.798 24.04 312.278 24.0533 312.598 24.08C313.078 24.16 313.571 24.2 314.078 24.2L316.158 24.16C316.371 24.1067 316.624 24.08 316.918 24.08L318.678 24H319.998C320.504 24 320.998 24.0133 321.478 24.04H322.598C322.864 24.0667 323.251 24.08 323.758 24.08H325.278C325.358 24.08 325.438 24.0933 325.518 24.12C325.598 24.1467 325.664 24.1733 325.718 24.2C325.824 24.2533 325.958 24.28 326.118 24.28H326.478C326.664 24.4133 326.758 24.5467 326.758 24.68L329.598 35.24C330.478 38.6267 331.171 41.4933 331.678 43.84C331.678 43.9733 331.718 44.2267 331.798 44.6C331.904 45.1333 331.958 45.56 331.958 45.88C331.958 46.0667 331.931 46.32 331.878 46.64C331.744 46.9067 331.558 47.04 331.318 47.04H330.878C330.531 47.04 330.264 47.0267 330.078 47H329.198H328.358H327.678C327.491 47 327.384 46.9867 327.358 46.96H325.158L325.118 46.88C325.064 46.8267 324.984 46.8 324.878 46.8L324.758 46.88C324.758 46.9333 324.731 46.96 324.678 46.96H324.558H324.278C324.144 46.9067 323.904 46.88 323.558 46.88C322.918 46.8267 322.384 46.8 321.958 46.8C321.664 46.1867 321.318 44.84 320.918 42.76C320.358 42.84 319.718 42.88 318.998 42.88H317.958H316.958C316.851 43.28 316.784 43.6133 316.758 43.88C316.731 44.0133 316.624 44.4667 316.438 45.24C316.251 46.0133 316.078 46.5333 315.918 46.8L315.678 46.88C315.598 46.9067 315.531 46.9333 315.478 46.96C315.424 46.96 315.398 46.96 315.398 46.96H315.318C315.158 46.96 315.051 46.9333 314.998 46.88C314.891 46.8267 314.824 46.8 314.798 46.8L313.278 46.88H312.158C312.024 46.9067 311.918 46.9333 311.838 46.96C311.758 46.96 311.704 46.96 311.678 46.96H308.478H308.158C307.918 46.9867 307.424 47 306.678 47H305.718C305.558 47.0267 305.304 47.04 304.958 47.04H304.478ZM320.558 38.48C320.398 37.5733 320.304 37.04 320.278 36.88L319.958 34.96C319.904 34.5867 319.851 34.2533 319.798 33.96C319.744 33.64 319.704 33.3467 319.678 33.08C319.598 32.76 319.531 32.4667 319.478 32.2C319.451 31.9067 319.411 31.64 319.358 31.4C319.331 31.24 319.304 31.04 319.278 30.8C319.251 30.5333 319.211 30.3467 319.158 30.24L319.078 29.76C319.078 29.6533 319.051 29.56 318.998 29.48L318.958 29.24C318.904 29.4 318.878 29.48 318.878 29.48V29.64V29.76C318.878 29.7867 318.864 29.84 318.838 29.92C318.811 29.9733 318.784 30.08 318.758 30.24C318.731 30.3733 318.704 30.5467 318.678 30.76C318.651 30.9467 318.611 31.16 318.558 31.4L318.278 33.04L317.958 34.88L317.838 35.76C317.784 35.9733 317.731 36.32 317.678 36.8C317.438 38 317.331 38.5467 317.358 38.44H319.118C319.144 38.4133 319.184 38.3867 319.238 38.36C319.291 38.3067 319.331 38.28 319.358 38.28H319.478C319.611 38.28 319.718 38.2933 319.798 38.32C319.904 38.3467 319.998 38.3733 320.078 38.4C320.238 38.4533 320.398 38.48 320.558 38.48Z" fill="#920751"/>
</svg>
