<svg width="550" height="1380" viewBox="0 0 550 1380" fill="none" xmlns="http://www.w3.org/2000/svg">
<g filter="url(#filter0_g_330_183)">
<rect x="25" y="25" width="500" height="500" rx="250" fill="#920751"/>
<path d="M147.56 240V211.8H159.24C162.493 211.8 165.267 212.36 167.56 213.48C169.853 214.573 171.6 216.173 172.8 218.28C174.027 220.36 174.64 222.893 174.64 225.88C174.64 228.867 174.027 231.413 172.8 233.52C171.6 235.627 169.853 237.24 167.56 238.36C165.267 239.453 162.493 240 159.24 240H147.56ZM154.92 234.04H158.76C161.56 234.04 163.627 233.373 164.96 232.04C166.32 230.68 167 228.627 167 225.88C167 223.107 166.32 221.067 164.96 219.76C163.6 218.427 161.533 217.76 158.76 217.76H154.92V234.04ZM179.005 240V211.8H186.365V240H179.005ZM200.826 240L187.986 211.8H195.826L205.026 233.16H202.786L211.986 211.8H219.546L206.666 240H200.826ZM221.154 240V211.8H241.074V217.48H228.194V222.84H240.154V228.52H228.194V234.32H241.074V240H221.154Z" fill="white"/>
<path d="M147.04 301V284.08H152.872C154.712 284.08 156.272 284.408 157.552 285.064C158.848 285.704 159.832 286.656 160.504 287.92C161.176 289.168 161.512 290.704 161.512 292.528C161.512 294.352 161.176 295.896 160.504 297.16C159.832 298.408 158.848 299.36 157.552 300.016C156.272 300.672 154.712 301 152.872 301H147.04ZM149.272 299.104H152.728C154.888 299.104 156.504 298.56 157.576 297.472C158.648 296.368 159.184 294.72 159.184 292.528C159.184 290.336 158.64 288.696 157.552 287.608C156.48 286.52 154.872 285.976 152.728 285.976H149.272V299.104ZM164.466 286.504V284.152H167.082V286.504H164.466ZM164.682 301V289.312H166.866V301H164.682ZM173.833 301L168.793 289.312H171.145L175.201 299.296H174.529L178.657 289.312H180.913L175.825 301H173.833ZM182.583 286.504V284.152H185.199V286.504H182.583ZM182.799 301V289.312H184.983V301H182.799ZM188.494 301V289.312H190.63V291.856H190.366C190.702 290.944 191.246 290.256 191.998 289.792C192.766 289.328 193.638 289.096 194.614 289.096C195.558 289.096 196.334 289.264 196.942 289.6C197.55 289.936 198.006 290.456 198.31 291.16C198.614 291.848 198.766 292.712 198.766 293.752V301H196.582V293.872C196.582 293.184 196.494 292.616 196.318 292.168C196.142 291.72 195.862 291.392 195.478 291.184C195.11 290.976 194.638 290.872 194.062 290.872C193.39 290.872 192.798 291.016 192.286 291.304C191.774 291.592 191.374 292 191.086 292.528C190.814 293.056 190.678 293.672 190.678 294.376V301H188.494ZM207.485 305.536C206.445 305.536 205.477 305.408 204.581 305.152C203.685 304.896 202.885 304.504 202.181 303.976L202.877 302.392C203.357 302.712 203.829 302.976 204.293 303.184C204.773 303.408 205.261 303.568 205.757 303.664C206.269 303.76 206.797 303.808 207.341 303.808C208.477 303.808 209.325 303.512 209.885 302.92C210.461 302.344 210.749 301.496 210.749 300.376V297.784H210.965C210.741 298.68 210.237 299.392 209.453 299.92C208.685 300.448 207.789 300.712 206.765 300.712C205.709 300.712 204.789 300.472 204.005 299.992C203.221 299.496 202.613 298.816 202.181 297.952C201.749 297.072 201.533 296.056 201.533 294.904C201.533 293.736 201.749 292.72 202.181 291.856C202.613 290.976 203.221 290.296 204.005 289.816C204.789 289.336 205.709 289.096 206.765 289.096C207.805 289.096 208.709 289.36 209.477 289.888C210.245 290.416 210.741 291.128 210.965 292.024H210.749V289.312H212.885V300.088C212.885 301.288 212.677 302.296 212.261 303.112C211.861 303.928 211.261 304.536 210.461 304.936C209.661 305.336 208.669 305.536 207.485 305.536ZM207.245 298.984C208.317 298.984 209.165 298.616 209.789 297.88C210.413 297.144 210.725 296.152 210.725 294.904C210.725 293.64 210.413 292.648 209.789 291.928C209.165 291.192 208.317 290.824 207.245 290.824C206.173 290.824 205.317 291.192 204.677 291.928C204.053 292.648 203.741 293.64 203.741 294.904C203.741 296.152 204.053 297.144 204.677 297.88C205.317 298.616 206.173 298.984 207.245 298.984ZM227.083 301.216C226.059 301.216 225.155 300.976 224.371 300.496C223.603 300 223.003 299.296 222.571 298.384C222.139 297.456 221.923 296.376 221.923 295.144C221.923 293.896 222.131 292.824 222.547 291.928C222.979 291.016 223.579 290.32 224.347 289.84C225.131 289.344 226.043 289.096 227.083 289.096C228.123 289.096 229.019 289.36 229.771 289.888C230.523 290.4 231.027 291.088 231.283 291.952H231.019V284.08H233.203V301H231.043V298.288H231.283C231.043 299.184 230.539 299.896 229.771 300.424C229.019 300.952 228.123 301.216 227.083 301.216ZM227.587 299.488C228.643 299.488 229.483 299.12 230.107 298.384C230.731 297.632 231.043 296.552 231.043 295.144C231.043 293.736 230.731 292.664 230.107 291.928C229.483 291.192 228.643 290.824 227.587 290.824C226.547 290.824 225.707 291.192 225.067 291.928C224.443 292.664 224.131 293.736 224.131 295.144C224.131 296.552 224.443 297.632 225.067 298.384C225.707 299.12 226.547 299.488 227.587 299.488ZM242.105 301.216C240.841 301.216 239.753 300.976 238.841 300.496C237.945 300 237.249 299.304 236.753 298.408C236.257 297.496 236.009 296.424 236.009 295.192C236.009 293.976 236.249 292.912 236.729 292C237.225 291.088 237.897 290.376 238.745 289.864C239.609 289.352 240.593 289.096 241.697 289.096C242.769 289.096 243.681 289.328 244.433 289.792C245.201 290.256 245.785 290.92 246.185 291.784C246.601 292.632 246.809 293.656 246.809 294.856V295.648H237.713V294.256H245.369L244.961 294.592C244.961 293.344 244.689 292.384 244.145 291.712C243.601 291.024 242.801 290.68 241.745 290.68C240.977 290.68 240.321 290.864 239.777 291.232C239.233 291.584 238.817 292.088 238.529 292.744C238.241 293.384 238.097 294.128 238.097 294.976V295.12C238.097 296.08 238.249 296.888 238.553 297.544C238.873 298.184 239.329 298.672 239.921 299.008C240.513 299.328 241.241 299.488 242.105 299.488C242.793 299.488 243.457 299.384 244.097 299.176C244.753 298.952 245.369 298.608 245.945 298.144L246.617 299.656C246.089 300.136 245.409 300.52 244.577 300.808C243.761 301.08 242.937 301.216 242.105 301.216ZM254.925 301.216C253.661 301.216 252.573 300.976 251.661 300.496C250.765 300 250.069 299.304 249.573 298.408C249.077 297.496 248.829 296.424 248.829 295.192C248.829 293.976 249.069 292.912 249.549 292C250.045 291.088 250.717 290.376 251.565 289.864C252.429 289.352 253.413 289.096 254.517 289.096C255.589 289.096 256.501 289.328 257.253 289.792C258.021 290.256 258.605 290.92 259.005 291.784C259.421 292.632 259.629 293.656 259.629 294.856V295.648H250.533V294.256H258.189L257.781 294.592C257.781 293.344 257.509 292.384 256.965 291.712C256.421 291.024 255.621 290.68 254.565 290.68C253.797 290.68 253.141 290.864 252.597 291.232C252.053 291.584 251.637 292.088 251.349 292.744C251.061 293.384 250.917 294.128 250.917 294.976V295.12C250.917 296.08 251.069 296.888 251.373 297.544C251.693 298.184 252.149 298.672 252.741 299.008C253.333 299.328 254.061 299.488 254.925 299.488C255.613 299.488 256.277 299.384 256.917 299.176C257.573 298.952 258.189 298.608 258.765 298.144L259.437 299.656C258.909 300.136 258.229 300.52 257.397 300.808C256.581 301.08 255.757 301.216 254.925 301.216ZM262.346 305.32V289.312H264.482V292H264.242C264.498 291.12 265.002 290.416 265.754 289.888C266.506 289.36 267.41 289.096 268.466 289.096C269.506 289.096 270.41 289.344 271.178 289.84C271.946 290.32 272.546 291.016 272.978 291.928C273.41 292.824 273.626 293.896 273.626 295.144C273.626 296.376 273.41 297.456 272.978 298.384C272.562 299.296 271.962 300 271.178 300.496C270.41 300.976 269.506 301.216 268.466 301.216C267.426 301.216 266.53 300.952 265.778 300.424C265.026 299.896 264.522 299.2 264.266 298.336H264.53V305.32H262.346ZM267.962 299.488C269.018 299.488 269.858 299.12 270.482 298.384C271.106 297.632 271.418 296.552 271.418 295.144C271.418 293.736 271.106 292.664 270.482 291.928C269.858 291.192 269.018 290.824 267.962 290.824C266.906 290.824 266.066 291.192 265.442 291.928C264.818 292.664 264.506 293.736 264.506 295.144C264.506 296.552 264.818 297.632 265.442 298.384C266.066 299.12 266.906 299.488 267.962 299.488ZM282.45 286.504V284.152H285.066V286.504H282.45ZM282.666 301V289.312H284.85V301H282.666ZM288.361 301V289.312H290.497V291.856H290.233C290.569 290.944 291.113 290.256 291.865 289.792C292.633 289.328 293.505 289.096 294.481 289.096C295.425 289.096 296.201 289.264 296.809 289.6C297.417 289.936 297.873 290.456 298.177 291.16C298.481 291.848 298.633 292.712 298.633 293.752V301H296.449V293.872C296.449 293.184 296.361 292.616 296.185 292.168C296.009 291.72 295.729 291.392 295.345 291.184C294.977 290.976 294.505 290.872 293.929 290.872C293.257 290.872 292.665 291.016 292.153 291.304C291.641 291.592 291.241 292 290.953 292.528C290.681 293.056 290.545 293.672 290.545 294.376V301H288.361ZM306.944 301.216C305.52 301.216 304.456 300.848 303.752 300.112C303.048 299.36 302.696 298.288 302.696 296.896V290.992H300.416V289.312H302.696V285.76H304.88V289.312H308.552V290.992H304.88V296.704C304.88 297.584 305.064 298.248 305.432 298.696C305.8 299.144 306.408 299.368 307.256 299.368C307.512 299.368 307.76 299.344 308 299.296C308.256 299.232 308.496 299.168 308.72 299.104L309.08 300.736C308.856 300.88 308.536 300.992 308.12 301.072C307.72 301.168 307.328 301.216 306.944 301.216ZM315.548 301.216C314.396 301.216 313.396 300.968 312.548 300.472C311.7 299.976 311.044 299.272 310.58 298.36C310.116 297.448 309.884 296.376 309.884 295.144C309.884 293.912 310.116 292.848 310.58 291.952C311.044 291.04 311.7 290.336 312.548 289.84C313.396 289.344 314.396 289.096 315.548 289.096C316.7 289.096 317.7 289.344 318.548 289.84C319.396 290.336 320.052 291.04 320.516 291.952C320.98 292.848 321.212 293.912 321.212 295.144C321.212 296.376 320.98 297.448 320.516 298.36C320.052 299.272 319.396 299.976 318.548 300.472C317.7 300.968 316.7 301.216 315.548 301.216ZM315.548 299.488C316.604 299.488 317.444 299.12 318.068 298.384C318.692 297.632 319.004 296.552 319.004 295.144C319.004 293.736 318.692 292.664 318.068 291.928C317.444 291.192 316.604 290.824 315.548 290.824C314.508 290.824 313.668 291.192 313.028 291.928C312.404 292.664 312.092 293.736 312.092 295.144C312.092 296.552 312.404 297.632 313.028 298.384C313.668 299.12 314.508 299.488 315.548 299.488ZM333.388 301L328.996 289.312H331.252L334.756 299.248H334.18L337.804 289.312H339.556L343.108 299.248H342.556L346.108 289.312H348.244L343.852 301H341.812L338.068 290.776H339.172L335.428 301H333.388ZM350.494 301V284.08H352.678V291.856H352.366C352.702 290.944 353.246 290.256 353.998 289.792C354.766 289.328 355.638 289.096 356.614 289.096C357.558 289.096 358.334 289.272 358.942 289.624C359.55 289.96 360.006 290.472 360.31 291.16C360.614 291.848 360.766 292.712 360.766 293.752V301H358.582V293.872C358.582 293.184 358.494 292.616 358.318 292.168C358.142 291.72 357.862 291.392 357.478 291.184C357.11 290.976 356.638 290.872 356.062 290.872C355.39 290.872 354.798 291.016 354.286 291.304C353.774 291.592 353.374 292 353.086 292.528C352.814 293.056 352.678 293.672 352.678 294.376V301H350.494ZM367.949 301.216C367.149 301.216 366.421 301.056 365.765 300.736C365.125 300.416 364.621 299.984 364.253 299.44C363.901 298.896 363.725 298.288 363.725 297.616C363.725 296.752 363.941 296.072 364.373 295.576C364.805 295.08 365.533 294.728 366.557 294.52C367.581 294.296 368.957 294.184 370.685 294.184H371.813V295.576H370.733C369.805 295.576 369.029 295.608 368.405 295.672C367.781 295.736 367.285 295.84 366.917 295.984C366.549 296.128 366.285 296.328 366.125 296.584C365.965 296.824 365.885 297.128 365.885 297.496C365.885 298.12 366.101 298.632 366.533 299.032C366.981 299.432 367.589 299.632 368.357 299.632C368.965 299.632 369.501 299.488 369.965 299.2C370.429 298.896 370.797 298.496 371.069 298C371.341 297.488 371.477 296.904 371.477 296.248V293.488C371.477 292.544 371.285 291.864 370.901 291.448C370.517 291.016 369.869 290.8 368.957 290.8C368.285 290.8 367.613 290.904 366.941 291.112C366.285 291.32 365.605 291.64 364.901 292.072L364.205 290.512C364.621 290.224 365.093 289.976 365.621 289.768C366.165 289.544 366.725 289.376 367.301 289.264C367.893 289.152 368.461 289.096 369.005 289.096C370.045 289.096 370.901 289.264 371.573 289.6C372.245 289.92 372.749 290.424 373.085 291.112C373.421 291.784 373.589 292.648 373.589 293.704V301H371.525V298.336H371.741C371.613 298.928 371.373 299.44 371.021 299.872C370.669 300.304 370.229 300.64 369.701 300.88C369.189 301.104 368.605 301.216 367.949 301.216ZM381.873 301.216C380.449 301.216 379.385 300.848 378.681 300.112C377.977 299.36 377.625 298.288 377.625 296.896V290.992H375.345V289.312H377.625V285.76H379.809V289.312H383.481V290.992H379.809V296.704C379.809 297.584 379.993 298.248 380.361 298.696C380.729 299.144 381.337 299.368 382.185 299.368C382.441 299.368 382.689 299.344 382.929 299.296C383.185 299.232 383.425 299.168 383.649 299.104L384.009 300.736C383.785 300.88 383.465 300.992 383.049 301.072C382.649 301.168 382.257 301.216 381.873 301.216ZM393.157 305.32L395.389 300.304V301.216L390.277 289.312H392.629L396.685 299.296H396.013L400.141 289.312H402.397L395.437 305.32H393.157ZM409.04 301.216C407.888 301.216 406.888 300.968 406.04 300.472C405.192 299.976 404.536 299.272 404.072 298.36C403.608 297.448 403.376 296.376 403.376 295.144C403.376 293.912 403.608 292.848 404.072 291.952C404.536 291.04 405.192 290.336 406.04 289.84C406.888 289.344 407.888 289.096 409.04 289.096C410.192 289.096 411.192 289.344 412.04 289.84C412.888 290.336 413.544 291.04 414.008 291.952C414.472 292.848 414.704 293.912 414.704 295.144C414.704 296.376 414.472 297.448 414.008 298.36C413.544 299.272 412.888 299.976 412.04 300.472C411.192 300.968 410.192 301.216 409.04 301.216ZM409.04 299.488C410.096 299.488 410.936 299.12 411.56 298.384C412.184 297.632 412.496 296.552 412.496 295.144C412.496 293.736 412.184 292.664 411.56 291.928C410.936 291.192 410.096 290.824 409.04 290.824C408 290.824 407.16 291.192 406.52 291.928C405.896 292.664 405.584 293.736 405.584 295.144C405.584 296.552 405.896 297.632 406.52 298.384C407.16 299.12 408 299.488 409.04 299.488ZM421.678 301.216C420.734 301.216 419.942 301.04 419.302 300.688C418.678 300.336 418.214 299.816 417.91 299.128C417.606 298.44 417.454 297.576 417.454 296.536V289.312H419.638V296.536C419.638 297.192 419.726 297.736 419.902 298.168C420.078 298.6 420.35 298.92 420.718 299.128C421.102 299.336 421.582 299.44 422.158 299.44C422.798 299.44 423.358 299.296 423.838 299.008C424.318 298.72 424.694 298.312 424.966 297.784C425.238 297.256 425.374 296.64 425.374 295.936V289.312H427.558V301H425.422V298.36H425.734C425.414 299.288 424.894 300 424.174 300.496C423.47 300.976 422.638 301.216 421.678 301.216ZM149.896 337L145.504 325.312H147.76L151.264 335.248H150.688L154.312 325.312H156.064L159.616 335.248H159.064L162.616 325.312H164.752L160.36 337H158.32L154.576 326.776H155.68L151.936 337H149.896ZM170.488 337.216C169.688 337.216 168.96 337.056 168.304 336.736C167.664 336.416 167.16 335.984 166.792 335.44C166.44 334.896 166.264 334.288 166.264 333.616C166.264 332.752 166.48 332.072 166.912 331.576C167.344 331.08 168.072 330.728 169.096 330.52C170.12 330.296 171.496 330.184 173.224 330.184H174.352V331.576H173.272C172.344 331.576 171.568 331.608 170.944 331.672C170.32 331.736 169.824 331.84 169.456 331.984C169.088 332.128 168.824 332.328 168.664 332.584C168.504 332.824 168.424 333.128 168.424 333.496C168.424 334.12 168.64 334.632 169.072 335.032C169.52 335.432 170.128 335.632 170.896 335.632C171.504 335.632 172.04 335.488 172.504 335.2C172.968 334.896 173.336 334.496 173.608 334C173.88 333.488 174.016 332.904 174.016 332.248V329.488C174.016 328.544 173.824 327.864 173.44 327.448C173.056 327.016 172.408 326.8 171.496 326.8C170.824 326.8 170.152 326.904 169.48 327.112C168.824 327.32 168.144 327.64 167.44 328.072L166.744 326.512C167.16 326.224 167.632 325.976 168.16 325.768C168.704 325.544 169.264 325.376 169.84 325.264C170.432 325.152 171 325.096 171.544 325.096C172.584 325.096 173.44 325.264 174.112 325.6C174.784 325.92 175.288 326.424 175.624 327.112C175.96 327.784 176.128 328.648 176.128 329.704V337H174.064V334.336H174.28C174.152 334.928 173.912 335.44 173.56 335.872C173.208 336.304 172.768 336.64 172.24 336.88C171.728 337.104 171.144 337.216 170.488 337.216ZM179.565 337V325.312H181.701V327.856H181.437C181.773 326.944 182.317 326.256 183.069 325.792C183.837 325.328 184.709 325.096 185.685 325.096C186.629 325.096 187.405 325.264 188.013 325.6C188.621 325.936 189.077 326.456 189.381 327.16C189.685 327.848 189.837 328.712 189.837 329.752V337H187.653V329.872C187.653 329.184 187.565 328.616 187.389 328.168C187.213 327.72 186.933 327.392 186.549 327.184C186.181 326.976 185.709 326.872 185.133 326.872C184.461 326.872 183.869 327.016 183.357 327.304C182.845 327.592 182.445 328 182.157 328.528C181.885 329.056 181.749 329.672 181.749 330.376V337H179.565ZM198.147 337.216C196.723 337.216 195.659 336.848 194.955 336.112C194.251 335.36 193.899 334.288 193.899 332.896V326.992H191.619V325.312H193.899V321.76H196.083V325.312H199.755V326.992H196.083V332.704C196.083 333.584 196.267 334.248 196.635 334.696C197.003 335.144 197.611 335.368 198.459 335.368C198.715 335.368 198.963 335.344 199.203 335.296C199.459 335.232 199.699 335.168 199.923 335.104L200.283 336.736C200.059 336.88 199.739 336.992 199.323 337.072C198.923 337.168 198.531 337.216 198.147 337.216ZM212.983 337.216C211.559 337.216 210.495 336.848 209.791 336.112C209.087 335.36 208.735 334.288 208.735 332.896V326.992H206.455V325.312H208.735V321.76H210.919V325.312H214.591V326.992H210.919V332.704C210.919 333.584 211.103 334.248 211.471 334.696C211.839 335.144 212.447 335.368 213.295 335.368C213.551 335.368 213.799 335.344 214.039 335.296C214.295 335.232 214.535 335.168 214.759 335.104L215.119 336.736C214.895 336.88 214.575 336.992 214.159 337.072C213.759 337.168 213.367 337.216 212.983 337.216ZM221.587 337.216C220.435 337.216 219.435 336.968 218.587 336.472C217.739 335.976 217.083 335.272 216.619 334.36C216.155 333.448 215.923 332.376 215.923 331.144C215.923 329.912 216.155 328.848 216.619 327.952C217.083 327.04 217.739 326.336 218.587 325.84C219.435 325.344 220.435 325.096 221.587 325.096C222.739 325.096 223.739 325.344 224.587 325.84C225.435 326.336 226.091 327.04 226.555 327.952C227.019 328.848 227.251 329.912 227.251 331.144C227.251 332.376 227.019 333.448 226.555 334.36C226.091 335.272 225.435 335.976 224.587 336.472C223.739 336.968 222.739 337.216 221.587 337.216ZM221.587 335.488C222.643 335.488 223.483 335.12 224.107 334.384C224.731 333.632 225.043 332.552 225.043 331.144C225.043 329.736 224.731 328.664 224.107 327.928C223.483 327.192 222.643 326.824 221.587 326.824C220.547 326.824 219.707 327.192 219.067 327.928C218.443 328.664 218.131 329.736 218.131 331.144C218.131 332.552 218.443 333.632 219.067 334.384C219.707 335.12 220.547 335.488 221.587 335.488ZM241.347 337.216C240.163 337.216 239.139 336.968 238.275 336.472C237.411 335.96 236.747 335.248 236.283 334.336C235.819 333.408 235.587 332.32 235.587 331.072C235.587 329.84 235.819 328.776 236.283 327.88C236.747 326.984 237.411 326.296 238.275 325.816C239.139 325.336 240.163 325.096 241.347 325.096C242.083 325.096 242.803 325.224 243.507 325.48C244.227 325.736 244.819 326.096 245.283 326.56L244.563 328.096C244.099 327.68 243.595 327.368 243.051 327.16C242.507 326.952 241.987 326.848 241.491 326.848C240.323 326.848 239.419 327.216 238.779 327.952C238.139 328.688 237.819 329.736 237.819 331.096C237.819 332.456 238.139 333.528 238.779 334.312C239.419 335.08 240.323 335.464 241.491 335.464C241.987 335.464 242.507 335.36 243.051 335.152C243.595 334.944 244.099 334.624 244.563 334.192L245.283 335.752C244.819 336.216 244.219 336.576 243.483 336.832C242.763 337.088 242.051 337.216 241.347 337.216ZM247.44 337V320.08H249.624V327.856H249.312C249.648 326.944 250.192 326.256 250.944 325.792C251.712 325.328 252.584 325.096 253.56 325.096C254.504 325.096 255.28 325.272 255.888 325.624C256.496 325.96 256.952 326.472 257.256 327.16C257.56 327.848 257.712 328.712 257.712 329.752V337H255.528V329.872C255.528 329.184 255.44 328.616 255.264 328.168C255.088 327.72 254.808 327.392 254.424 327.184C254.056 326.976 253.584 326.872 253.008 326.872C252.336 326.872 251.744 327.016 251.232 327.304C250.72 327.592 250.32 328 250.032 328.528C249.76 329.056 249.624 329.672 249.624 330.376V337H247.44ZM264.894 337.216C264.094 337.216 263.366 337.056 262.71 336.736C262.07 336.416 261.566 335.984 261.198 335.44C260.846 334.896 260.67 334.288 260.67 333.616C260.67 332.752 260.886 332.072 261.318 331.576C261.75 331.08 262.478 330.728 263.502 330.52C264.526 330.296 265.902 330.184 267.63 330.184H268.758V331.576H267.678C266.75 331.576 265.974 331.608 265.35 331.672C264.726 331.736 264.23 331.84 263.862 331.984C263.494 332.128 263.23 332.328 263.07 332.584C262.91 332.824 262.83 333.128 262.83 333.496C262.83 334.12 263.046 334.632 263.478 335.032C263.926 335.432 264.534 335.632 265.302 335.632C265.91 335.632 266.446 335.488 266.91 335.2C267.374 334.896 267.742 334.496 268.014 334C268.286 333.488 268.422 332.904 268.422 332.248V329.488C268.422 328.544 268.23 327.864 267.846 327.448C267.462 327.016 266.814 326.8 265.902 326.8C265.23 326.8 264.558 326.904 263.886 327.112C263.23 327.32 262.55 327.64 261.846 328.072L261.15 326.512C261.566 326.224 262.038 325.976 262.566 325.768C263.11 325.544 263.67 325.376 264.246 325.264C264.838 325.152 265.406 325.096 265.95 325.096C266.99 325.096 267.846 325.264 268.518 325.6C269.19 325.92 269.694 326.424 270.03 327.112C270.366 327.784 270.534 328.648 270.534 329.704V337H268.47V334.336H268.686C268.558 334.928 268.318 335.44 267.966 335.872C267.614 336.304 267.174 336.64 266.646 336.88C266.134 337.104 265.55 337.216 264.894 337.216ZM273.971 337V325.312H276.107V327.856H275.843C276.179 326.944 276.723 326.256 277.475 325.792C278.243 325.328 279.115 325.096 280.091 325.096C281.035 325.096 281.811 325.264 282.419 325.6C283.027 325.936 283.483 326.456 283.787 327.16C284.091 327.848 284.243 328.712 284.243 329.752V337H282.059V329.872C282.059 329.184 281.971 328.616 281.795 328.168C281.619 327.72 281.339 327.392 280.955 327.184C280.587 326.976 280.115 326.872 279.539 326.872C278.867 326.872 278.275 327.016 277.763 327.304C277.251 327.592 276.851 328 276.563 328.528C276.291 329.056 276.155 329.672 276.155 330.376V337H273.971ZM292.961 341.536C291.921 341.536 290.953 341.408 290.057 341.152C289.161 340.896 288.361 340.504 287.657 339.976L288.353 338.392C288.833 338.712 289.305 338.976 289.769 339.184C290.249 339.408 290.737 339.568 291.233 339.664C291.745 339.76 292.273 339.808 292.817 339.808C293.953 339.808 294.801 339.512 295.361 338.92C295.937 338.344 296.225 337.496 296.225 336.376V333.784H296.441C296.217 334.68 295.713 335.392 294.929 335.92C294.161 336.448 293.265 336.712 292.241 336.712C291.185 336.712 290.265 336.472 289.481 335.992C288.697 335.496 288.089 334.816 287.657 333.952C287.225 333.072 287.009 332.056 287.009 330.904C287.009 329.736 287.225 328.72 287.657 327.856C288.089 326.976 288.697 326.296 289.481 325.816C290.265 325.336 291.185 325.096 292.241 325.096C293.281 325.096 294.185 325.36 294.953 325.888C295.721 326.416 296.217 327.128 296.441 328.024H296.225V325.312H298.361V336.088C298.361 337.288 298.153 338.296 297.737 339.112C297.337 339.928 296.737 340.536 295.937 340.936C295.137 341.336 294.145 341.536 292.961 341.536ZM292.721 334.984C293.793 334.984 294.641 334.616 295.265 333.88C295.889 333.144 296.201 332.152 296.201 330.904C296.201 329.64 295.889 328.648 295.265 327.928C294.641 327.192 293.793 326.824 292.721 326.824C291.649 326.824 290.793 327.192 290.153 327.928C289.529 328.648 289.217 329.64 289.217 330.904C289.217 332.152 289.529 333.144 290.153 333.88C290.793 334.616 291.649 334.984 292.721 334.984ZM307.261 337.216C305.997 337.216 304.909 336.976 303.997 336.496C303.101 336 302.405 335.304 301.909 334.408C301.413 333.496 301.165 332.424 301.165 331.192C301.165 329.976 301.405 328.912 301.885 328C302.381 327.088 303.053 326.376 303.901 325.864C304.765 325.352 305.749 325.096 306.853 325.096C307.925 325.096 308.837 325.328 309.589 325.792C310.357 326.256 310.941 326.92 311.341 327.784C311.757 328.632 311.965 329.656 311.965 330.856V331.648H302.869V330.256H310.525L310.117 330.592C310.117 329.344 309.845 328.384 309.301 327.712C308.757 327.024 307.957 326.68 306.901 326.68C306.133 326.68 305.477 326.864 304.933 327.232C304.389 327.584 303.973 328.088 303.685 328.744C303.397 329.384 303.253 330.128 303.253 330.976V331.12C303.253 332.08 303.405 332.888 303.709 333.544C304.029 334.184 304.485 334.672 305.077 335.008C305.669 335.328 306.397 335.488 307.261 335.488C307.949 335.488 308.613 335.384 309.253 335.176C309.909 334.952 310.525 334.608 311.101 334.144L311.773 335.656C311.245 336.136 310.565 336.52 309.733 336.808C308.917 337.08 308.093 337.216 307.261 337.216Z" fill="white"/>
<rect x="25" y="435" width="500" height="500" rx="250" fill="#920751"/>
<path d="M147.56 650V621.8H159.24C162.493 621.8 165.267 622.36 167.56 623.48C169.853 624.573 171.6 626.173 172.8 628.28C174.027 630.36 174.64 632.893 174.64 635.88C174.64 638.867 174.027 641.413 172.8 643.52C171.6 645.627 169.853 647.24 167.56 648.36C165.267 649.453 162.493 650 159.24 650H147.56ZM154.92 644.04H158.76C161.56 644.04 163.627 643.373 164.96 642.04C166.32 640.68 167 638.627 167 635.88C167 633.107 166.32 631.067 164.96 629.76C163.6 628.427 161.533 627.76 158.76 627.76H154.92V644.04ZM179.005 650V621.8H192.565C195.765 621.8 198.232 622.587 199.965 624.16C201.725 625.707 202.605 627.867 202.605 630.64C202.605 632.427 202.205 633.987 201.405 635.32C200.632 636.627 199.499 637.64 198.005 638.36C196.539 639.053 194.725 639.4 192.565 639.4L192.885 638.68H194.805C195.952 638.68 196.965 638.96 197.845 639.52C198.725 640.053 199.459 640.88 200.045 642L204.445 650H196.365L191.485 641.04C191.272 640.64 191.019 640.333 190.725 640.12C190.432 639.907 190.099 639.747 189.725 639.64C189.379 639.533 188.992 639.48 188.565 639.48H186.365V650H179.005ZM186.365 634.28H191.245C192.659 634.28 193.739 634 194.485 633.44C195.232 632.88 195.605 632.013 195.605 630.84C195.605 629.72 195.232 628.88 194.485 628.32C193.739 627.733 192.659 627.44 191.245 627.44H186.365V634.28ZM207.248 650V621.8H227.168V627.48H214.288V632.84H226.248V638.52H214.288V644.32H227.168V650H207.248ZM227.988 650L241.188 621.8H246.988L260.188 650H252.828L249.508 642.24L252.308 644.28H235.828L238.668 642.24L235.348 650H227.988ZM244.028 629.48L239.388 640.56L238.268 638.64H249.908L248.788 640.56L244.108 629.48H244.028ZM261.976 650V621.8H268.096L277.816 639.2H276.416L286.096 621.8H292.056V650H285.416V633.24H286.256L278.976 645.84H274.976L267.696 633.2H268.616V650H261.976Z" fill="white"/>
<path d="M146.968 712V695.344H149.224V712H146.968ZM148.504 712V709.936H158.056V712H148.504ZM148.504 704.464V702.496H157.264V704.464H148.504ZM148.504 697.408V695.344H157.936V697.408H148.504ZM168.804 712V705.352C168.804 704.488 168.532 703.776 167.988 703.216C167.444 702.656 166.74 702.376 165.876 702.376C165.3 702.376 164.788 702.504 164.34 702.76C163.892 703.016 163.54 703.368 163.284 703.816C163.028 704.264 162.9 704.776 162.9 705.352L162.012 704.848C162.012 703.984 162.204 703.216 162.588 702.544C162.972 701.872 163.508 701.344 164.196 700.96C164.884 700.56 165.66 700.36 166.524 700.36C167.388 700.36 168.148 700.576 168.804 701.008C169.476 701.44 170.004 702.008 170.388 702.712C170.772 703.4 170.964 704.136 170.964 704.92V712H168.804ZM160.74 712V700.6H162.9V712H160.74ZM177.801 712L172.569 700.6H174.969L179.169 710.224H177.777L182.001 700.6H184.305L179.073 712H177.801ZM186.171 712V700.6H188.331V712H186.171ZM187.251 698.32C186.851 698.32 186.523 698.192 186.267 697.936C186.011 697.664 185.883 697.328 185.883 696.928C185.883 696.544 186.011 696.224 186.267 695.968C186.523 695.696 186.851 695.56 187.251 695.56C187.651 695.56 187.979 695.696 188.235 695.968C188.491 696.224 188.619 696.544 188.619 696.928C188.619 697.328 188.491 697.664 188.235 697.936C187.979 698.192 187.651 698.32 187.251 698.32ZM195.138 712.24C194.498 712.24 193.89 712.16 193.314 712C192.754 711.824 192.234 711.584 191.754 711.28C191.274 710.96 190.858 710.584 190.506 710.152L191.898 708.76C192.314 709.272 192.794 709.656 193.338 709.912C193.882 710.152 194.49 710.272 195.162 710.272C195.834 710.272 196.354 710.16 196.722 709.936C197.09 709.696 197.274 709.368 197.274 708.952C197.274 708.536 197.122 708.216 196.818 707.992C196.53 707.752 196.154 707.56 195.69 707.416C195.226 707.256 194.73 707.104 194.202 706.96C193.69 706.8 193.202 706.6 192.738 706.36C192.274 706.12 191.89 705.792 191.586 705.376C191.298 704.96 191.154 704.408 191.154 703.72C191.154 703.032 191.322 702.44 191.658 701.944C191.994 701.432 192.458 701.04 193.05 700.768C193.658 700.496 194.386 700.36 195.234 700.36C196.13 700.36 196.922 700.52 197.61 700.84C198.314 701.144 198.89 701.608 199.338 702.232L197.946 703.624C197.626 703.208 197.226 702.888 196.746 702.664C196.282 702.44 195.754 702.328 195.162 702.328C194.538 702.328 194.058 702.44 193.722 702.664C193.402 702.872 193.242 703.168 193.242 703.552C193.242 703.936 193.386 704.232 193.674 704.44C193.962 704.648 194.338 704.824 194.802 704.968C195.282 705.112 195.778 705.264 196.29 705.424C196.802 705.568 197.29 705.768 197.754 706.024C198.218 706.28 198.594 706.624 198.882 707.056C199.186 707.488 199.338 708.056 199.338 708.76C199.338 709.832 198.954 710.68 198.186 711.304C197.434 711.928 196.418 712.24 195.138 712.24ZM201.78 712V700.6H203.94V712H201.78ZM202.86 698.32C202.46 698.32 202.132 698.192 201.876 697.936C201.62 697.664 201.492 697.328 201.492 696.928C201.492 696.544 201.62 696.224 201.876 695.968C202.132 695.696 202.46 695.56 202.86 695.56C203.26 695.56 203.588 695.696 203.844 695.968C204.1 696.224 204.228 696.544 204.228 696.928C204.228 697.328 204.1 697.664 203.844 697.936C203.588 698.192 203.26 698.32 202.86 698.32ZM212.331 712.24C211.211 712.24 210.203 711.976 209.307 711.448C208.411 710.92 207.699 710.208 207.171 709.312C206.643 708.4 206.379 707.384 206.379 706.264C206.379 705.16 206.643 704.168 207.171 703.288C207.699 702.392 208.411 701.68 209.307 701.152C210.203 700.624 211.211 700.36 212.331 700.36C213.435 700.36 214.435 700.624 215.331 701.152C216.243 701.664 216.963 702.368 217.491 703.264C218.019 704.16 218.283 705.16 218.283 706.264C218.283 707.384 218.019 708.4 217.491 709.312C216.963 710.208 216.243 710.92 215.331 711.448C214.435 711.976 213.435 712.24 212.331 712.24ZM212.331 710.152C213.051 710.152 213.691 709.984 214.251 709.648C214.811 709.312 215.251 708.856 215.571 708.28C215.891 707.688 216.051 707.016 216.051 706.264C216.051 705.528 215.883 704.872 215.547 704.296C215.227 703.72 214.787 703.272 214.227 702.952C213.683 702.616 213.051 702.448 212.331 702.448C211.611 702.448 210.971 702.616 210.411 702.952C209.851 703.272 209.411 703.72 209.091 704.296C208.771 704.872 208.611 705.528 208.611 706.264C208.611 707.016 208.771 707.688 209.091 708.28C209.411 708.856 209.851 709.312 210.411 709.648C210.971 709.984 211.611 710.152 212.331 710.152ZM228.781 712V705.352C228.781 704.488 228.509 703.776 227.965 703.216C227.421 702.656 226.717 702.376 225.853 702.376C225.277 702.376 224.765 702.504 224.317 702.76C223.869 703.016 223.517 703.368 223.261 703.816C223.005 704.264 222.877 704.776 222.877 705.352L221.989 704.848C221.989 703.984 222.181 703.216 222.565 702.544C222.949 701.872 223.485 701.344 224.173 700.96C224.861 700.56 225.637 700.36 226.501 700.36C227.365 700.36 228.125 700.576 228.781 701.008C229.453 701.44 229.981 702.008 230.365 702.712C230.749 703.4 230.941 704.136 230.941 704.92V712H228.781ZM220.717 712V700.6H222.877V712H220.717ZM233.889 712V700.6H236.049V712H233.889ZM234.969 698.32C234.569 698.32 234.241 698.192 233.985 697.936C233.729 697.664 233.601 697.328 233.601 696.928C233.601 696.544 233.729 696.224 233.985 695.968C234.241 695.696 234.569 695.56 234.969 695.56C235.369 695.56 235.697 695.696 235.953 695.968C236.209 696.224 236.337 696.544 236.337 696.928C236.337 697.328 236.209 697.664 235.953 697.936C235.697 698.192 235.369 698.32 234.969 698.32ZM247.296 712V705.352C247.296 704.488 247.024 703.776 246.48 703.216C245.936 702.656 245.232 702.376 244.368 702.376C243.792 702.376 243.28 702.504 242.832 702.76C242.384 703.016 242.032 703.368 241.776 703.816C241.52 704.264 241.392 704.776 241.392 705.352L240.504 704.848C240.504 703.984 240.696 703.216 241.08 702.544C241.464 701.872 242 701.344 242.688 700.96C243.376 700.56 244.152 700.36 245.016 700.36C245.88 700.36 246.64 700.576 247.296 701.008C247.968 701.44 248.496 702.008 248.88 702.712C249.264 703.4 249.456 704.136 249.456 704.92V712H247.296ZM239.232 712V700.6H241.392V712H239.232ZM257.109 717.016C255.941 717.016 254.901 716.8 253.989 716.368C253.093 715.936 252.373 715.328 251.829 714.544L253.221 713.128C253.685 713.72 254.237 714.168 254.877 714.472C255.517 714.792 256.277 714.952 257.157 714.952C258.325 714.952 259.245 714.64 259.917 714.016C260.605 713.408 260.949 712.584 260.949 711.544V708.712L261.333 706.144L260.949 703.6V700.6H263.109V711.544C263.109 712.632 262.853 713.584 262.341 714.4C261.845 715.216 261.141 715.856 260.229 716.32C259.333 716.784 258.293 717.016 257.109 717.016ZM257.109 711.808C256.069 711.808 255.133 711.56 254.301 711.064C253.485 710.568 252.837 709.888 252.357 709.024C251.877 708.144 251.637 707.16 251.637 706.072C251.637 704.984 251.877 704.016 252.357 703.168C252.837 702.304 253.485 701.624 254.301 701.128C255.133 700.616 256.069 700.36 257.109 700.36C258.005 700.36 258.797 700.536 259.485 700.888C260.173 701.24 260.717 701.736 261.117 702.376C261.533 703 261.757 703.736 261.789 704.584V707.608C261.741 708.44 261.509 709.176 261.093 709.816C260.693 710.44 260.149 710.928 259.461 711.28C258.773 711.632 257.989 711.808 257.109 711.808ZM257.541 709.768C258.245 709.768 258.861 709.616 259.389 709.312C259.933 709.008 260.349 708.584 260.637 708.04C260.925 707.48 261.069 706.832 261.069 706.096C261.069 705.36 260.917 704.72 260.613 704.176C260.325 703.616 259.917 703.184 259.389 702.88C258.861 702.56 258.237 702.4 257.517 702.4C256.797 702.4 256.165 702.56 255.621 702.88C255.077 703.184 254.645 703.616 254.325 704.176C254.021 704.72 253.869 705.352 253.869 706.072C253.869 706.792 254.021 707.432 254.325 707.992C254.645 708.552 255.077 708.992 255.621 709.312C256.181 709.616 256.821 709.768 257.541 709.768ZM274.536 712L270.024 700.6H272.28L275.544 709.48H274.824L278.064 700.6H279.312L282.552 709.48H281.832L285.096 700.6H287.352L282.864 712H281.592L278.304 703.384H279.096L275.784 712H274.536ZM293.791 712.24C292.751 712.24 291.807 711.984 290.959 711.472C290.111 710.944 289.439 710.232 288.943 709.336C288.463 708.44 288.223 707.432 288.223 706.312C288.223 705.192 288.463 704.184 288.943 703.288C289.439 702.392 290.103 701.68 290.935 701.152C291.783 700.624 292.735 700.36 293.791 700.36C294.655 700.36 295.423 700.544 296.095 700.912C296.783 701.264 297.335 701.76 297.751 702.4C298.167 703.024 298.399 703.752 298.447 704.584V708.016C298.399 708.832 298.167 709.56 297.751 710.2C297.351 710.84 296.807 711.344 296.119 711.712C295.447 712.064 294.671 712.24 293.791 712.24ZM294.151 710.2C295.223 710.2 296.087 709.84 296.743 709.12C297.399 708.384 297.727 707.448 297.727 706.312C297.727 705.528 297.575 704.848 297.271 704.272C296.983 703.68 296.567 703.224 296.023 702.904C295.479 702.568 294.847 702.4 294.127 702.4C293.407 702.4 292.767 702.568 292.207 702.904C291.663 703.24 291.231 703.704 290.911 704.296C290.607 704.872 290.455 705.536 290.455 706.288C290.455 707.056 290.607 707.736 290.911 708.328C291.231 708.904 291.671 709.36 292.231 709.696C292.791 710.032 293.431 710.2 294.151 710.2ZM297.583 712V708.928L297.991 706.144L297.583 703.384V700.6H299.767V712H297.583ZM306.656 712.096L301.712 700.6H304.112L307.784 709.6H307.016L310.88 700.6H313.28L307.952 712.096H306.656ZM303.392 716.776L306.752 709.888L307.952 712.096L305.792 716.776H303.392ZM318.442 712.24C317.802 712.24 317.194 712.16 316.618 712C316.058 711.824 315.538 711.584 315.058 711.28C314.578 710.96 314.162 710.584 313.81 710.152L315.202 708.76C315.618 709.272 316.098 709.656 316.642 709.912C317.186 710.152 317.794 710.272 318.466 710.272C319.138 710.272 319.658 710.16 320.026 709.936C320.394 709.696 320.578 709.368 320.578 708.952C320.578 708.536 320.426 708.216 320.122 707.992C319.834 707.752 319.458 707.56 318.994 707.416C318.53 707.256 318.034 707.104 317.506 706.96C316.994 706.8 316.506 706.6 316.042 706.36C315.578 706.12 315.194 705.792 314.89 705.376C314.602 704.96 314.458 704.408 314.458 703.72C314.458 703.032 314.626 702.44 314.962 701.944C315.298 701.432 315.762 701.04 316.354 700.768C316.962 700.496 317.69 700.36 318.538 700.36C319.434 700.36 320.226 700.52 320.914 700.84C321.618 701.144 322.194 701.608 322.642 702.232L321.25 703.624C320.93 703.208 320.53 702.888 320.05 702.664C319.586 702.44 319.058 702.328 318.466 702.328C317.842 702.328 317.362 702.44 317.026 702.664C316.706 702.872 316.546 703.168 316.546 703.552C316.546 703.936 316.69 704.232 316.978 704.44C317.266 704.648 317.642 704.824 318.106 704.968C318.586 705.112 319.082 705.264 319.594 705.424C320.106 705.568 320.594 705.768 321.058 706.024C321.522 706.28 321.898 706.624 322.186 707.056C322.49 707.488 322.642 708.056 322.642 708.76C322.642 709.832 322.258 710.68 321.49 711.304C320.738 711.928 319.722 712.24 318.442 712.24ZM333.797 712.096L328.853 700.6H331.253L334.925 709.6H334.157L338.021 700.6H340.421L335.093 712.096H333.797ZM330.533 716.776L333.893 709.888L335.093 712.096L332.933 716.776H330.533ZM346.956 712.24C345.836 712.24 344.828 711.976 343.932 711.448C343.036 710.92 342.324 710.208 341.796 709.312C341.268 708.4 341.004 707.384 341.004 706.264C341.004 705.16 341.268 704.168 341.796 703.288C342.324 702.392 343.036 701.68 343.932 701.152C344.828 700.624 345.836 700.36 346.956 700.36C348.06 700.36 349.06 700.624 349.956 701.152C350.868 701.664 351.588 702.368 352.116 703.264C352.644 704.16 352.908 705.16 352.908 706.264C352.908 707.384 352.644 708.4 352.116 709.312C351.588 710.208 350.868 710.92 349.956 711.448C349.06 711.976 348.06 712.24 346.956 712.24ZM346.956 710.152C347.676 710.152 348.316 709.984 348.876 709.648C349.436 709.312 349.876 708.856 350.196 708.28C350.516 707.688 350.676 707.016 350.676 706.264C350.676 705.528 350.508 704.872 350.172 704.296C349.852 703.72 349.412 703.272 348.852 702.952C348.308 702.616 347.676 702.448 346.956 702.448C346.236 702.448 345.596 702.616 345.036 702.952C344.476 703.272 344.036 703.72 343.716 704.296C343.396 704.872 343.236 705.528 343.236 706.264C343.236 707.016 343.396 707.688 343.716 708.28C344.036 708.856 344.476 709.312 345.036 709.648C345.596 709.984 346.236 710.152 346.956 710.152ZM359.926 712.24C358.998 712.24 358.158 712.032 357.406 711.616C356.67 711.184 356.094 710.592 355.678 709.84C355.262 709.088 355.054 708.216 355.054 707.224V700.6H357.214V707.128C357.214 707.752 357.318 708.296 357.526 708.76C357.75 709.208 358.07 709.552 358.486 709.792C358.902 710.032 359.39 710.152 359.95 710.152C360.798 710.152 361.462 709.888 361.942 709.36C362.422 708.816 362.662 708.072 362.662 707.128V700.6H364.822V707.224C364.822 708.216 364.614 709.088 364.198 709.84C363.782 710.592 363.206 711.184 362.47 711.616C361.75 712.032 360.902 712.24 359.926 712.24ZM377.917 712.24C376.797 712.24 375.781 711.976 374.869 711.448C373.973 710.92 373.261 710.208 372.733 709.312C372.221 708.4 371.965 707.392 371.965 706.288C371.965 705.168 372.221 704.16 372.733 703.264C373.261 702.368 373.973 701.664 374.869 701.152C375.781 700.624 376.797 700.36 377.917 700.36C378.797 700.36 379.613 700.528 380.365 700.864C381.117 701.184 381.765 701.656 382.309 702.28L380.869 703.72C380.517 703.304 380.085 702.992 379.573 702.784C379.077 702.56 378.525 702.448 377.917 702.448C377.197 702.448 376.557 702.616 375.997 702.952C375.437 703.272 374.997 703.72 374.677 704.296C374.357 704.872 374.197 705.536 374.197 706.288C374.197 707.04 374.357 707.704 374.677 708.28C374.997 708.856 375.437 709.312 375.997 709.648C376.557 709.984 377.197 710.152 377.917 710.152C378.525 710.152 379.077 710.048 379.573 709.84C380.085 709.616 380.525 709.296 380.893 708.88L382.309 710.32C381.781 710.928 381.133 711.4 380.365 711.736C379.613 712.072 378.797 712.24 377.917 712.24ZM389.425 712.24C388.305 712.24 387.297 711.976 386.401 711.448C385.505 710.92 384.793 710.208 384.265 709.312C383.737 708.4 383.473 707.384 383.473 706.264C383.473 705.16 383.737 704.168 384.265 703.288C384.793 702.392 385.505 701.68 386.401 701.152C387.297 700.624 388.305 700.36 389.425 700.36C390.529 700.36 391.529 700.624 392.425 701.152C393.337 701.664 394.057 702.368 394.585 703.264C395.113 704.16 395.377 705.16 395.377 706.264C395.377 707.384 395.113 708.4 394.585 709.312C394.057 710.208 393.337 710.92 392.425 711.448C391.529 711.976 390.529 712.24 389.425 712.24ZM389.425 710.152C390.145 710.152 390.785 709.984 391.345 709.648C391.905 709.312 392.345 708.856 392.665 708.28C392.985 707.688 393.145 707.016 393.145 706.264C393.145 705.528 392.977 704.872 392.641 704.296C392.321 703.72 391.881 703.272 391.321 702.952C390.777 702.616 390.145 702.448 389.425 702.448C388.705 702.448 388.065 702.616 387.505 702.952C386.945 703.272 386.505 703.72 386.185 704.296C385.865 704.872 385.705 705.528 385.705 706.264C385.705 707.016 385.865 707.688 386.185 708.28C386.505 708.856 386.945 709.312 387.505 709.648C388.065 709.984 388.705 710.152 389.425 710.152ZM402.395 712.24C401.467 712.24 400.627 712.032 399.875 711.616C399.139 711.184 398.563 710.592 398.147 709.84C397.731 709.088 397.523 708.216 397.523 707.224V700.6H399.683V707.128C399.683 707.752 399.787 708.296 399.995 708.76C400.219 709.208 400.539 709.552 400.955 709.792C401.371 710.032 401.859 710.152 402.419 710.152C403.267 710.152 403.931 709.888 404.411 709.36C404.891 708.816 405.131 708.072 405.131 707.128V700.6H407.291V707.224C407.291 708.216 407.083 709.088 406.667 709.84C406.251 710.592 405.675 711.184 404.939 711.616C404.219 712.032 403.371 712.24 402.395 712.24ZM410.186 712V694.864H412.346V712H410.186ZM420.33 712.24C419.274 712.24 418.33 711.984 417.498 711.472C416.666 710.944 416.002 710.232 415.506 709.336C415.026 708.44 414.786 707.432 414.786 706.312C414.786 705.192 415.026 704.184 415.506 703.288C416.002 702.392 416.666 701.68 417.498 701.152C418.33 700.624 419.274 700.36 420.33 700.36C421.178 700.36 421.946 700.544 422.634 700.912C423.322 701.264 423.874 701.76 424.29 702.4C424.722 703.024 424.962 703.752 425.01 704.584V708.016C424.962 708.832 424.73 709.56 424.314 710.2C423.898 710.84 423.346 711.344 422.658 711.712C421.97 712.064 421.194 712.24 420.33 712.24ZM420.69 710.2C421.41 710.2 422.034 710.032 422.562 709.696C423.106 709.36 423.53 708.904 423.834 708.328C424.138 707.736 424.29 707.064 424.29 706.312C424.29 705.528 424.13 704.848 423.81 704.272C423.506 703.696 423.082 703.24 422.538 702.904C422.01 702.568 421.386 702.4 420.666 702.4C419.946 702.4 419.314 702.568 418.77 702.904C418.226 703.24 417.794 703.704 417.474 704.296C417.17 704.872 417.018 705.536 417.018 706.288C417.018 707.056 417.17 707.736 417.474 708.328C417.794 708.904 418.226 709.36 418.77 709.696C419.33 710.032 419.97 710.2 420.69 710.2ZM426.33 712H424.146V708.928L424.554 706.144L424.146 703.384V694.864H426.33V712ZM146.584 748V736.6H148.744V748H146.584ZM148.744 741.496L147.928 741.136C147.928 739.68 148.264 738.52 148.936 737.656C149.608 736.792 150.576 736.36 151.84 736.36C152.416 736.36 152.936 736.464 153.4 736.672C153.864 736.864 154.296 737.192 154.696 737.656L153.28 739.12C153.04 738.864 152.776 738.68 152.488 738.568C152.2 738.456 151.864 738.4 151.48 738.4C150.68 738.4 150.024 738.656 149.512 739.168C149 739.68 148.744 740.456 148.744 741.496ZM161.122 748.24C159.986 748.24 158.962 747.984 158.05 747.472C157.138 746.944 156.418 746.232 155.89 745.336C155.362 744.44 155.098 743.424 155.098 742.288C155.098 741.168 155.354 740.16 155.866 739.264C156.394 738.368 157.098 737.664 157.978 737.152C158.874 736.624 159.874 736.36 160.978 736.36C162.034 736.36 162.962 736.6 163.762 737.08C164.578 737.56 165.21 738.224 165.658 739.072C166.122 739.92 166.354 740.88 166.354 741.952C166.354 742.112 166.346 742.288 166.33 742.48C166.314 742.656 166.282 742.864 166.234 743.104H156.61V741.304H165.082L164.29 742C164.29 741.232 164.154 740.584 163.882 740.056C163.61 739.512 163.226 739.096 162.73 738.808C162.234 738.504 161.634 738.352 160.93 738.352C160.194 738.352 159.546 738.512 158.986 738.832C158.426 739.152 157.994 739.6 157.69 740.176C157.386 740.752 157.234 741.432 157.234 742.216C157.234 743.016 157.394 743.72 157.714 744.328C158.034 744.92 158.49 745.384 159.082 745.72C159.674 746.04 160.354 746.2 161.122 746.2C161.762 746.2 162.346 746.088 162.874 745.864C163.418 745.64 163.882 745.304 164.266 744.856L165.658 746.272C165.114 746.912 164.442 747.4 163.642 747.736C162.858 748.072 162.018 748.24 161.122 748.24ZM168.733 748V736.6H170.893V748H168.733ZM169.813 734.32C169.413 734.32 169.085 734.192 168.829 733.936C168.573 733.664 168.445 733.328 168.445 732.928C168.445 732.544 168.573 732.224 168.829 731.968C169.085 731.696 169.413 731.56 169.813 731.56C170.213 731.56 170.541 731.696 170.797 731.968C171.053 732.224 171.181 732.544 171.181 732.928C171.181 733.328 171.053 733.664 170.797 733.936C170.541 734.192 170.213 734.32 169.813 734.32ZM182.14 748V741.352C182.14 740.488 181.868 739.776 181.324 739.216C180.78 738.656 180.076 738.376 179.212 738.376C178.636 738.376 178.124 738.504 177.676 738.76C177.228 739.016 176.876 739.368 176.62 739.816C176.364 740.264 176.236 740.776 176.236 741.352L175.348 740.848C175.348 739.984 175.54 739.216 175.924 738.544C176.308 737.872 176.844 737.344 177.532 736.96C178.22 736.56 178.996 736.36 179.86 736.36C180.724 736.36 181.484 736.576 182.14 737.008C182.812 737.44 183.34 738.008 183.724 738.712C184.108 739.4 184.3 740.136 184.3 740.92V748H182.14ZM174.076 748V736.6H176.236V748H174.076ZM191.137 748L185.905 736.6H188.305L192.505 746.224H191.113L195.337 736.6H197.641L192.409 748H191.137ZM204.317 748.24C203.181 748.24 202.157 747.984 201.245 747.472C200.333 746.944 199.613 746.232 199.085 745.336C198.557 744.44 198.293 743.424 198.293 742.288C198.293 741.168 198.549 740.16 199.061 739.264C199.589 738.368 200.293 737.664 201.173 737.152C202.069 736.624 203.069 736.36 204.173 736.36C205.229 736.36 206.157 736.6 206.957 737.08C207.773 737.56 208.405 738.224 208.853 739.072C209.317 739.92 209.549 740.88 209.549 741.952C209.549 742.112 209.541 742.288 209.525 742.48C209.509 742.656 209.477 742.864 209.429 743.104H199.805V741.304H208.277L207.485 742C207.485 741.232 207.349 740.584 207.077 740.056C206.805 739.512 206.421 739.096 205.925 738.808C205.429 738.504 204.829 738.352 204.125 738.352C203.389 738.352 202.741 738.512 202.181 738.832C201.621 739.152 201.189 739.6 200.885 740.176C200.581 740.752 200.429 741.432 200.429 742.216C200.429 743.016 200.589 743.72 200.909 744.328C201.229 744.92 201.685 745.384 202.277 745.72C202.869 746.04 203.549 746.2 204.317 746.2C204.957 746.2 205.541 746.088 206.069 745.864C206.613 745.64 207.077 745.304 207.461 744.856L208.853 746.272C208.309 746.912 207.637 747.4 206.837 747.736C206.053 748.072 205.213 748.24 204.317 748.24ZM219.968 748V741.352C219.968 740.488 219.696 739.776 219.152 739.216C218.608 738.656 217.904 738.376 217.04 738.376C216.464 738.376 215.952 738.504 215.504 738.76C215.056 739.016 214.704 739.368 214.448 739.816C214.192 740.264 214.064 740.776 214.064 741.352L213.176 740.848C213.176 739.984 213.368 739.216 213.752 738.544C214.136 737.872 214.672 737.344 215.36 736.96C216.048 736.56 216.824 736.36 217.688 736.36C218.552 736.36 219.312 736.576 219.968 737.008C220.64 737.44 221.168 738.008 221.552 738.712C221.936 739.4 222.128 740.136 222.128 740.92V748H219.968ZM211.904 748V736.6H214.064V748H211.904ZM226.664 748V731.824H228.824V748H226.664ZM223.856 738.568V736.6H231.632V738.568H223.856ZM242.484 748.096L237.54 736.6H239.94L243.612 745.6H242.844L246.708 736.6H249.108L243.78 748.096H242.484ZM239.22 752.776L242.58 745.888L243.78 748.096L241.62 752.776H239.22ZM255.644 748.24C254.524 748.24 253.516 747.976 252.62 747.448C251.724 746.92 251.012 746.208 250.484 745.312C249.956 744.4 249.692 743.384 249.692 742.264C249.692 741.16 249.956 740.168 250.484 739.288C251.012 738.392 251.724 737.68 252.62 737.152C253.516 736.624 254.524 736.36 255.644 736.36C256.748 736.36 257.748 736.624 258.644 737.152C259.556 737.664 260.276 738.368 260.804 739.264C261.332 740.16 261.596 741.16 261.596 742.264C261.596 743.384 261.332 744.4 260.804 745.312C260.276 746.208 259.556 746.92 258.644 747.448C257.748 747.976 256.748 748.24 255.644 748.24ZM255.644 746.152C256.364 746.152 257.004 745.984 257.564 745.648C258.124 745.312 258.564 744.856 258.884 744.28C259.204 743.688 259.364 743.016 259.364 742.264C259.364 741.528 259.196 740.872 258.86 740.296C258.54 739.72 258.1 739.272 257.54 738.952C256.996 738.616 256.364 738.448 255.644 738.448C254.924 738.448 254.284 738.616 253.724 738.952C253.164 739.272 252.724 739.72 252.404 740.296C252.084 740.872 251.924 741.528 251.924 742.264C251.924 743.016 252.084 743.688 252.404 744.28C252.724 744.856 253.164 745.312 253.724 745.648C254.284 745.984 254.924 746.152 255.644 746.152ZM268.613 748.24C267.685 748.24 266.845 748.032 266.093 747.616C265.357 747.184 264.781 746.592 264.365 745.84C263.949 745.088 263.741 744.216 263.741 743.224V736.6H265.901V743.128C265.901 743.752 266.005 744.296 266.213 744.76C266.437 745.208 266.757 745.552 267.173 745.792C267.589 746.032 268.077 746.152 268.637 746.152C269.485 746.152 270.149 745.888 270.629 745.36C271.109 744.816 271.349 744.072 271.349 743.128V736.6H273.509V743.224C273.509 744.216 273.301 745.088 272.885 745.84C272.469 746.592 271.893 747.184 271.157 747.616C270.437 748.032 269.589 748.24 268.613 748.24ZM276.404 748V736.6H278.564V748H276.404ZM278.564 741.496L277.748 741.136C277.748 739.68 278.084 738.52 278.756 737.656C279.428 736.792 280.396 736.36 281.66 736.36C282.236 736.36 282.756 736.464 283.22 736.672C283.684 736.864 284.116 737.192 284.516 737.656L283.1 739.12C282.86 738.864 282.596 738.68 282.308 738.568C282.02 738.456 281.684 738.4 281.3 738.4C280.5 738.4 279.844 738.656 279.332 739.168C278.82 739.68 278.564 740.456 278.564 741.496ZM291.451 748V730.864H293.611V748H291.451ZM296.796 748V736.6H298.956V748H296.796ZM297.876 734.32C297.476 734.32 297.148 734.192 296.892 733.936C296.636 733.664 296.508 733.328 296.508 732.928C296.508 732.544 296.636 732.224 296.892 731.968C297.148 731.696 297.476 731.56 297.876 731.56C298.276 731.56 298.604 731.696 298.86 731.968C299.116 732.224 299.244 732.544 299.244 732.928C299.244 733.328 299.116 733.664 298.86 733.936C298.604 734.192 298.276 734.32 297.876 734.32ZM303.771 748V734.896C303.771 734.048 303.955 733.312 304.323 732.688C304.691 732.048 305.195 731.544 305.835 731.176C306.491 730.808 307.251 730.624 308.115 730.624C308.771 730.624 309.339 730.736 309.819 730.96C310.299 731.184 310.739 731.512 311.139 731.944L309.723 733.336C309.515 733.112 309.283 732.944 309.027 732.832C308.771 732.704 308.459 732.64 308.091 732.64C307.403 732.64 306.867 732.84 306.483 733.24C306.115 733.64 305.931 734.192 305.931 734.896V748H303.771ZM300.963 738.568V736.6H309.555V738.568H300.963ZM316.348 748.24C315.212 748.24 314.188 747.984 313.276 747.472C312.364 746.944 311.644 746.232 311.116 745.336C310.588 744.44 310.324 743.424 310.324 742.288C310.324 741.168 310.58 740.16 311.092 739.264C311.62 738.368 312.324 737.664 313.204 737.152C314.1 736.624 315.1 736.36 316.204 736.36C317.26 736.36 318.188 736.6 318.988 737.08C319.804 737.56 320.436 738.224 320.884 739.072C321.348 739.92 321.58 740.88 321.58 741.952C321.58 742.112 321.572 742.288 321.556 742.48C321.54 742.656 321.508 742.864 321.46 743.104H311.836V741.304H320.308L319.516 742C319.516 741.232 319.38 740.584 319.108 740.056C318.836 739.512 318.452 739.096 317.956 738.808C317.46 738.504 316.86 738.352 316.156 738.352C315.42 738.352 314.772 738.512 314.212 738.832C313.652 739.152 313.22 739.6 312.916 740.176C312.612 740.752 312.46 741.432 312.46 742.216C312.46 743.016 312.62 743.72 312.94 744.328C313.26 744.92 313.716 745.384 314.308 745.72C314.9 746.04 315.58 746.2 316.348 746.2C316.988 746.2 317.572 746.088 318.1 745.864C318.644 745.64 319.108 745.304 319.492 744.856L320.884 746.272C320.34 746.912 319.668 747.4 318.868 747.736C318.084 748.072 317.244 748.24 316.348 748.24Z" fill="white"/>
<rect x="25" y="855" width="500" height="500" rx="250" fill="#920751"/>
<path d="M147.56 1052V1023.8H159.24C162.493 1023.8 165.267 1024.36 167.56 1025.48C169.853 1026.57 171.6 1028.17 172.8 1030.28C174.027 1032.36 174.64 1034.89 174.64 1037.88C174.64 1040.87 174.027 1043.41 172.8 1045.52C171.6 1047.63 169.853 1049.24 167.56 1050.36C165.267 1051.45 162.493 1052 159.24 1052H147.56ZM154.92 1046.04H158.76C161.56 1046.04 163.627 1045.37 164.96 1044.04C166.32 1042.68 167 1040.63 167 1037.88C167 1035.11 166.32 1033.07 164.96 1031.76C163.6 1030.43 161.533 1029.76 158.76 1029.76H154.92V1046.04ZM192.605 1052.44C190.472 1052.44 188.525 1052.09 186.765 1051.4C185.005 1050.71 183.485 1049.72 182.205 1048.44C180.952 1047.13 179.979 1045.59 179.285 1043.8C178.619 1042.01 178.285 1040.04 178.285 1037.88C178.285 1035.69 178.619 1033.71 179.285 1031.92C179.979 1030.13 180.952 1028.6 182.205 1027.32C183.485 1026.04 185.005 1025.07 186.765 1024.4C188.525 1023.71 190.472 1023.36 192.605 1023.36C194.739 1023.36 196.685 1023.71 198.445 1024.4C200.205 1025.07 201.712 1026.04 202.965 1027.32C204.245 1028.6 205.219 1030.13 205.885 1031.92C206.579 1033.68 206.925 1035.65 206.925 1037.84C206.925 1040.05 206.579 1042.05 205.885 1043.84C205.219 1045.63 204.245 1047.17 202.965 1048.48C201.712 1049.76 200.205 1050.75 198.445 1051.44C196.685 1052.11 194.739 1052.44 192.605 1052.44ZM192.605 1046.28C194.019 1046.28 195.219 1045.95 196.205 1045.28C197.192 1044.61 197.952 1043.65 198.485 1042.4C199.019 1041.15 199.285 1039.64 199.285 1037.88C199.285 1036.12 199.019 1034.61 198.485 1033.36C197.979 1032.11 197.219 1031.16 196.205 1030.52C195.219 1029.85 194.019 1029.52 192.605 1029.52C191.219 1029.52 190.019 1029.85 189.005 1030.52C188.019 1031.16 187.259 1032.11 186.725 1033.36C186.192 1034.61 185.925 1036.12 185.925 1037.88C185.925 1039.64 186.179 1041.15 186.685 1042.4C187.219 1043.65 187.992 1044.61 189.005 1045.28C190.019 1045.95 191.219 1046.28 192.605 1046.28Z" fill="white"/>
<path d="M146.968 1114V1097.34H149.224V1114H146.968ZM157.72 1114V1097.34H159.976V1114H157.72ZM148.504 1106.42V1104.35H158.272V1106.42H148.504ZM168.737 1114.24C167.617 1114.24 166.609 1113.98 165.713 1113.45C164.817 1112.92 164.105 1112.21 163.577 1111.31C163.049 1110.4 162.785 1109.38 162.785 1108.26C162.785 1107.16 163.049 1106.17 163.577 1105.29C164.105 1104.39 164.817 1103.68 165.713 1103.15C166.609 1102.62 167.617 1102.36 168.737 1102.36C169.841 1102.36 170.841 1102.62 171.737 1103.15C172.649 1103.66 173.369 1104.37 173.897 1105.26C174.425 1106.16 174.689 1107.16 174.689 1108.26C174.689 1109.38 174.425 1110.4 173.897 1111.31C173.369 1112.21 172.649 1112.92 171.737 1113.45C170.841 1113.98 169.841 1114.24 168.737 1114.24ZM168.737 1112.15C169.457 1112.15 170.097 1111.98 170.657 1111.65C171.217 1111.31 171.657 1110.86 171.977 1110.28C172.297 1109.69 172.457 1109.02 172.457 1108.26C172.457 1107.53 172.289 1106.87 171.953 1106.3C171.633 1105.72 171.193 1105.27 170.633 1104.95C170.089 1104.62 169.457 1104.45 168.737 1104.45C168.017 1104.45 167.377 1104.62 166.817 1104.95C166.257 1105.27 165.817 1105.72 165.497 1106.3C165.177 1106.87 165.017 1107.53 165.017 1108.26C165.017 1109.02 165.177 1109.69 165.497 1110.28C165.817 1110.86 166.257 1111.31 166.817 1111.65C167.377 1111.98 168.017 1112.15 168.737 1112.15ZM177.123 1114V1096.86H179.283V1114H177.123ZM187.267 1114.24C186.211 1114.24 185.267 1113.98 184.435 1113.47C183.603 1112.94 182.939 1112.23 182.443 1111.34C181.963 1110.44 181.723 1109.43 181.723 1108.31C181.723 1107.19 181.963 1106.18 182.443 1105.29C182.939 1104.39 183.603 1103.68 184.435 1103.15C185.267 1102.62 186.211 1102.36 187.267 1102.36C188.115 1102.36 188.883 1102.54 189.571 1102.91C190.259 1103.26 190.811 1103.76 191.227 1104.4C191.659 1105.02 191.899 1105.75 191.947 1106.58V1110.02C191.899 1110.83 191.667 1111.56 191.251 1112.2C190.835 1112.84 190.283 1113.34 189.595 1113.71C188.907 1114.06 188.131 1114.24 187.267 1114.24ZM187.627 1112.2C188.347 1112.2 188.971 1112.03 189.499 1111.7C190.043 1111.36 190.467 1110.9 190.771 1110.33C191.075 1109.74 191.227 1109.06 191.227 1108.31C191.227 1107.53 191.067 1106.85 190.747 1106.27C190.443 1105.7 190.019 1105.24 189.475 1104.9C188.947 1104.57 188.323 1104.4 187.603 1104.4C186.883 1104.4 186.251 1104.57 185.707 1104.9C185.163 1105.24 184.731 1105.7 184.411 1106.3C184.107 1106.87 183.955 1107.54 183.955 1108.29C183.955 1109.06 184.107 1109.74 184.411 1110.33C184.731 1110.9 185.163 1111.36 185.707 1111.7C186.267 1112.03 186.907 1112.2 187.627 1112.2ZM193.267 1114H191.083V1110.93L191.491 1108.14L191.083 1105.38V1096.86H193.267V1114ZM196.436 1114V1102.6H198.596V1114H196.436ZM197.516 1100.32C197.116 1100.32 196.788 1100.19 196.532 1099.94C196.276 1099.66 196.148 1099.33 196.148 1098.93C196.148 1098.54 196.276 1098.22 196.532 1097.97C196.788 1097.7 197.116 1097.56 197.516 1097.56C197.916 1097.56 198.244 1097.7 198.5 1097.97C198.756 1098.22 198.884 1098.54 198.884 1098.93C198.884 1099.33 198.756 1099.66 198.5 1099.94C198.244 1100.19 197.916 1100.32 197.516 1100.32ZM209.843 1114V1107.35C209.843 1106.49 209.571 1105.78 209.027 1105.22C208.483 1104.66 207.779 1104.38 206.915 1104.38C206.339 1104.38 205.827 1104.5 205.379 1104.76C204.931 1105.02 204.579 1105.37 204.323 1105.82C204.067 1106.26 203.939 1106.78 203.939 1107.35L203.051 1106.85C203.051 1105.98 203.243 1105.22 203.627 1104.54C204.011 1103.87 204.547 1103.34 205.235 1102.96C205.923 1102.56 206.699 1102.36 207.563 1102.36C208.427 1102.36 209.187 1102.58 209.843 1103.01C210.515 1103.44 211.043 1104.01 211.427 1104.71C211.811 1105.4 212.003 1106.14 212.003 1106.92V1114H209.843ZM201.779 1114V1102.6H203.939V1114H201.779ZM219.656 1119.02C218.488 1119.02 217.448 1118.8 216.536 1118.37C215.64 1117.94 214.92 1117.33 214.376 1116.54L215.768 1115.13C216.232 1115.72 216.784 1116.17 217.424 1116.47C218.064 1116.79 218.824 1116.95 219.704 1116.95C220.872 1116.95 221.792 1116.64 222.464 1116.02C223.152 1115.41 223.496 1114.58 223.496 1113.54V1110.71L223.88 1108.14L223.496 1105.6V1102.6H225.656V1113.54C225.656 1114.63 225.4 1115.58 224.888 1116.4C224.392 1117.22 223.688 1117.86 222.776 1118.32C221.88 1118.78 220.84 1119.02 219.656 1119.02ZM219.656 1113.81C218.616 1113.81 217.68 1113.56 216.848 1113.06C216.032 1112.57 215.384 1111.89 214.904 1111.02C214.424 1110.14 214.184 1109.16 214.184 1108.07C214.184 1106.98 214.424 1106.02 214.904 1105.17C215.384 1104.3 216.032 1103.62 216.848 1103.13C217.68 1102.62 218.616 1102.36 219.656 1102.36C220.552 1102.36 221.344 1102.54 222.032 1102.89C222.72 1103.24 223.264 1103.74 223.664 1104.38C224.08 1105 224.304 1105.74 224.336 1106.58V1109.61C224.288 1110.44 224.056 1111.18 223.64 1111.82C223.24 1112.44 222.696 1112.93 222.008 1113.28C221.32 1113.63 220.536 1113.81 219.656 1113.81ZM220.088 1111.77C220.792 1111.77 221.408 1111.62 221.936 1111.31C222.48 1111.01 222.896 1110.58 223.184 1110.04C223.472 1109.48 223.616 1108.83 223.616 1108.1C223.616 1107.36 223.464 1106.72 223.16 1106.18C222.872 1105.62 222.464 1105.18 221.936 1104.88C221.408 1104.56 220.784 1104.4 220.064 1104.4C219.344 1104.4 218.712 1104.56 218.168 1104.88C217.624 1105.18 217.192 1105.62 216.872 1106.18C216.568 1106.72 216.416 1107.35 216.416 1108.07C216.416 1108.79 216.568 1109.43 216.872 1109.99C217.192 1110.55 217.624 1110.99 218.168 1111.31C218.728 1111.62 219.368 1111.77 220.088 1111.77ZM237.562 1114.1L232.618 1102.6H235.018L238.69 1111.6H237.922L241.786 1102.6H244.186L238.858 1114.1H237.562ZM234.298 1118.78L237.658 1111.89L238.858 1114.1L236.698 1118.78H234.298ZM250.722 1114.24C249.602 1114.24 248.594 1113.98 247.698 1113.45C246.802 1112.92 246.09 1112.21 245.562 1111.31C245.034 1110.4 244.77 1109.38 244.77 1108.26C244.77 1107.16 245.034 1106.17 245.562 1105.29C246.09 1104.39 246.802 1103.68 247.698 1103.15C248.594 1102.62 249.602 1102.36 250.722 1102.36C251.826 1102.36 252.826 1102.62 253.722 1103.15C254.634 1103.66 255.354 1104.37 255.882 1105.26C256.41 1106.16 256.674 1107.16 256.674 1108.26C256.674 1109.38 256.41 1110.4 255.882 1111.31C255.354 1112.21 254.634 1112.92 253.722 1113.45C252.826 1113.98 251.826 1114.24 250.722 1114.24ZM250.722 1112.15C251.442 1112.15 252.082 1111.98 252.642 1111.65C253.202 1111.31 253.642 1110.86 253.962 1110.28C254.282 1109.69 254.442 1109.02 254.442 1108.26C254.442 1107.53 254.274 1106.87 253.938 1106.3C253.618 1105.72 253.178 1105.27 252.618 1104.95C252.074 1104.62 251.442 1104.45 250.722 1104.45C250.002 1104.45 249.362 1104.62 248.802 1104.95C248.242 1105.27 247.802 1105.72 247.482 1106.3C247.162 1106.87 247.002 1107.53 247.002 1108.26C247.002 1109.02 247.162 1109.69 247.482 1110.28C247.802 1110.86 248.242 1111.31 248.802 1111.65C249.362 1111.98 250.002 1112.15 250.722 1112.15ZM263.691 1114.24C262.763 1114.24 261.923 1114.03 261.171 1113.62C260.435 1113.18 259.859 1112.59 259.443 1111.84C259.027 1111.09 258.819 1110.22 258.819 1109.22V1102.6H260.979V1109.13C260.979 1109.75 261.083 1110.3 261.291 1110.76C261.515 1111.21 261.835 1111.55 262.251 1111.79C262.667 1112.03 263.155 1112.15 263.715 1112.15C264.563 1112.15 265.227 1111.89 265.707 1111.36C266.187 1110.82 266.427 1110.07 266.427 1109.13V1102.6H268.587V1109.22C268.587 1110.22 268.379 1111.09 267.963 1111.84C267.547 1112.59 266.971 1113.18 266.235 1113.62C265.515 1114.03 264.667 1114.24 263.691 1114.24ZM271.482 1114V1102.6H273.642V1114H271.482ZM273.642 1107.5L272.826 1107.14C272.826 1105.68 273.162 1104.52 273.834 1103.66C274.506 1102.79 275.474 1102.36 276.738 1102.36C277.314 1102.36 277.834 1102.46 278.298 1102.67C278.762 1102.86 279.194 1103.19 279.594 1103.66L278.178 1105.12C277.938 1104.86 277.674 1104.68 277.386 1104.57C277.098 1104.46 276.762 1104.4 276.378 1104.4C275.578 1104.4 274.922 1104.66 274.41 1105.17C273.898 1105.68 273.642 1106.46 273.642 1107.5ZM284.481 1114.24C283.841 1114.24 283.233 1114.16 282.657 1114C282.097 1113.82 281.577 1113.58 281.097 1113.28C280.617 1112.96 280.201 1112.58 279.849 1112.15L281.241 1110.76C281.657 1111.27 282.137 1111.66 282.681 1111.91C283.225 1112.15 283.833 1112.27 284.505 1112.27C285.177 1112.27 285.697 1112.16 286.065 1111.94C286.433 1111.7 286.617 1111.37 286.617 1110.95C286.617 1110.54 286.465 1110.22 286.161 1109.99C285.873 1109.75 285.497 1109.56 285.033 1109.42C284.569 1109.26 284.073 1109.1 283.545 1108.96C283.033 1108.8 282.545 1108.6 282.081 1108.36C281.617 1108.12 281.233 1107.79 280.929 1107.38C280.641 1106.96 280.497 1106.41 280.497 1105.72C280.497 1105.03 280.665 1104.44 281.001 1103.94C281.337 1103.43 281.801 1103.04 282.393 1102.77C283.001 1102.5 283.729 1102.36 284.577 1102.36C285.473 1102.36 286.265 1102.52 286.953 1102.84C287.657 1103.14 288.233 1103.61 288.681 1104.23L287.289 1105.62C286.969 1105.21 286.569 1104.89 286.089 1104.66C285.625 1104.44 285.097 1104.33 284.505 1104.33C283.881 1104.33 283.401 1104.44 283.065 1104.66C282.745 1104.87 282.585 1105.17 282.585 1105.55C282.585 1105.94 282.729 1106.23 283.017 1106.44C283.305 1106.65 283.681 1106.82 284.145 1106.97C284.625 1107.11 285.121 1107.26 285.633 1107.42C286.145 1107.57 286.633 1107.77 287.097 1108.02C287.561 1108.28 287.937 1108.62 288.225 1109.06C288.529 1109.49 288.681 1110.06 288.681 1110.76C288.681 1111.83 288.297 1112.68 287.529 1113.3C286.777 1113.93 285.761 1114.24 284.481 1114.24ZM296.38 1114.24C295.244 1114.24 294.22 1113.98 293.308 1113.47C292.396 1112.94 291.676 1112.23 291.148 1111.34C290.62 1110.44 290.356 1109.42 290.356 1108.29C290.356 1107.17 290.612 1106.16 291.124 1105.26C291.652 1104.37 292.356 1103.66 293.236 1103.15C294.132 1102.62 295.132 1102.36 296.236 1102.36C297.292 1102.36 298.22 1102.6 299.02 1103.08C299.836 1103.56 300.468 1104.22 300.916 1105.07C301.38 1105.92 301.612 1106.88 301.612 1107.95C301.612 1108.11 301.604 1108.29 301.588 1108.48C301.572 1108.66 301.54 1108.86 301.492 1109.1H291.868V1107.3H300.34L299.548 1108C299.548 1107.23 299.412 1106.58 299.14 1106.06C298.868 1105.51 298.484 1105.1 297.988 1104.81C297.492 1104.5 296.892 1104.35 296.188 1104.35C295.452 1104.35 294.804 1104.51 294.244 1104.83C293.684 1105.15 293.252 1105.6 292.948 1106.18C292.644 1106.75 292.492 1107.43 292.492 1108.22C292.492 1109.02 292.652 1109.72 292.972 1110.33C293.292 1110.92 293.748 1111.38 294.34 1111.72C294.932 1112.04 295.612 1112.2 296.38 1112.2C297.02 1112.2 297.604 1112.09 298.132 1111.86C298.676 1111.64 299.14 1111.3 299.524 1110.86L300.916 1112.27C300.372 1112.91 299.7 1113.4 298.9 1113.74C298.116 1114.07 297.276 1114.24 296.38 1114.24ZM303.967 1114V1096.86H306.127V1114H303.967ZM310.919 1114V1100.9C310.919 1100.05 311.103 1099.31 311.471 1098.69C311.839 1098.05 312.343 1097.54 312.983 1097.18C313.639 1096.81 314.399 1096.62 315.263 1096.62C315.919 1096.62 316.487 1096.74 316.967 1096.96C317.447 1097.18 317.887 1097.51 318.287 1097.94L316.871 1099.34C316.663 1099.11 316.431 1098.94 316.175 1098.83C315.919 1098.7 315.607 1098.64 315.239 1098.64C314.551 1098.64 314.015 1098.84 313.631 1099.24C313.263 1099.64 313.079 1100.19 313.079 1100.9V1114H310.919ZM308.111 1104.57V1102.6H316.703V1104.57H308.111ZM151.432 1150.24C150.392 1150.24 149.448 1149.98 148.6 1149.47C147.752 1148.94 147.08 1148.23 146.584 1147.34C146.104 1146.44 145.864 1145.43 145.864 1144.31C145.864 1143.19 146.104 1142.18 146.584 1141.29C147.08 1140.39 147.744 1139.68 148.576 1139.15C149.424 1138.62 150.376 1138.36 151.432 1138.36C152.296 1138.36 153.064 1138.54 153.736 1138.91C154.424 1139.26 154.976 1139.76 155.392 1140.4C155.808 1141.02 156.04 1141.75 156.088 1142.58V1146.02C156.04 1146.83 155.808 1147.56 155.392 1148.2C154.992 1148.84 154.448 1149.34 153.76 1149.71C153.088 1150.06 152.312 1150.24 151.432 1150.24ZM151.792 1148.2C152.864 1148.2 153.728 1147.84 154.384 1147.12C155.04 1146.38 155.368 1145.45 155.368 1144.31C155.368 1143.53 155.216 1142.85 154.912 1142.27C154.624 1141.68 154.208 1141.22 153.664 1140.9C153.12 1140.57 152.488 1140.4 151.768 1140.4C151.048 1140.4 150.408 1140.57 149.848 1140.9C149.304 1141.24 148.872 1141.7 148.552 1142.3C148.248 1142.87 148.096 1143.54 148.096 1144.29C148.096 1145.06 148.248 1145.74 148.552 1146.33C148.872 1146.9 149.312 1147.36 149.872 1147.7C150.432 1148.03 151.072 1148.2 151.792 1148.2ZM155.224 1150V1146.93L155.632 1144.14L155.224 1141.38V1138.6H157.408V1150H155.224ZM165.761 1150.24C164.641 1150.24 163.625 1149.98 162.713 1149.45C161.817 1148.92 161.105 1148.21 160.577 1147.31C160.065 1146.4 159.809 1145.39 159.809 1144.29C159.809 1143.17 160.065 1142.16 160.577 1141.26C161.105 1140.37 161.817 1139.66 162.713 1139.15C163.625 1138.62 164.641 1138.36 165.761 1138.36C166.641 1138.36 167.457 1138.53 168.209 1138.86C168.961 1139.18 169.609 1139.66 170.153 1140.28L168.713 1141.72C168.361 1141.3 167.929 1140.99 167.417 1140.78C166.921 1140.56 166.369 1140.45 165.761 1140.45C165.041 1140.45 164.401 1140.62 163.841 1140.95C163.281 1141.27 162.841 1141.72 162.521 1142.3C162.201 1142.87 162.041 1143.54 162.041 1144.29C162.041 1145.04 162.201 1145.7 162.521 1146.28C162.841 1146.86 163.281 1147.31 163.841 1147.65C164.401 1147.98 165.041 1148.15 165.761 1148.15C166.369 1148.15 166.921 1148.05 167.417 1147.84C167.929 1147.62 168.369 1147.3 168.737 1146.88L170.153 1148.32C169.625 1148.93 168.977 1149.4 168.209 1149.74C167.457 1150.07 166.641 1150.24 165.761 1150.24ZM177.269 1150.24C176.149 1150.24 175.133 1149.98 174.221 1149.45C173.325 1148.92 172.613 1148.21 172.085 1147.31C171.573 1146.4 171.317 1145.39 171.317 1144.29C171.317 1143.17 171.573 1142.16 172.085 1141.26C172.613 1140.37 173.325 1139.66 174.221 1139.15C175.133 1138.62 176.149 1138.36 177.269 1138.36C178.149 1138.36 178.965 1138.53 179.717 1138.86C180.469 1139.18 181.117 1139.66 181.661 1140.28L180.221 1141.72C179.869 1141.3 179.437 1140.99 178.925 1140.78C178.429 1140.56 177.877 1140.45 177.269 1140.45C176.549 1140.45 175.909 1140.62 175.349 1140.95C174.789 1141.27 174.349 1141.72 174.029 1142.3C173.709 1142.87 173.549 1143.54 173.549 1144.29C173.549 1145.04 173.709 1145.7 174.029 1146.28C174.349 1146.86 174.789 1147.31 175.349 1147.65C175.909 1147.98 176.549 1148.15 177.269 1148.15C177.877 1148.15 178.429 1148.05 178.925 1147.84C179.437 1147.62 179.877 1147.3 180.245 1146.88L181.661 1148.32C181.133 1148.93 180.485 1149.4 179.717 1149.74C178.965 1150.07 178.149 1150.24 177.269 1150.24ZM188.776 1150.24C187.656 1150.24 186.648 1149.98 185.752 1149.45C184.856 1148.92 184.144 1148.21 183.616 1147.31C183.088 1146.4 182.824 1145.38 182.824 1144.26C182.824 1143.16 183.088 1142.17 183.616 1141.29C184.144 1140.39 184.856 1139.68 185.752 1139.15C186.648 1138.62 187.656 1138.36 188.776 1138.36C189.88 1138.36 190.88 1138.62 191.776 1139.15C192.688 1139.66 193.408 1140.37 193.936 1141.26C194.464 1142.16 194.728 1143.16 194.728 1144.26C194.728 1145.38 194.464 1146.4 193.936 1147.31C193.408 1148.21 192.688 1148.92 191.776 1149.45C190.88 1149.98 189.88 1150.24 188.776 1150.24ZM188.776 1148.15C189.496 1148.15 190.136 1147.98 190.696 1147.65C191.256 1147.31 191.696 1146.86 192.016 1146.28C192.336 1145.69 192.496 1145.02 192.496 1144.26C192.496 1143.53 192.328 1142.87 191.992 1142.3C191.672 1141.72 191.232 1141.27 190.672 1140.95C190.128 1140.62 189.496 1140.45 188.776 1140.45C188.056 1140.45 187.416 1140.62 186.856 1140.95C186.296 1141.27 185.856 1141.72 185.536 1142.3C185.216 1142.87 185.056 1143.53 185.056 1144.26C185.056 1145.02 185.216 1145.69 185.536 1146.28C185.856 1146.86 186.296 1147.31 186.856 1147.65C187.416 1147.98 188.056 1148.15 188.776 1148.15ZM201.746 1150.24C200.818 1150.24 199.978 1150.03 199.226 1149.62C198.49 1149.18 197.914 1148.59 197.498 1147.84C197.082 1147.09 196.874 1146.22 196.874 1145.22V1138.6H199.034V1145.13C199.034 1145.75 199.138 1146.3 199.346 1146.76C199.57 1147.21 199.89 1147.55 200.306 1147.79C200.722 1148.03 201.21 1148.15 201.77 1148.15C202.618 1148.15 203.282 1147.89 203.762 1147.36C204.242 1146.82 204.482 1146.07 204.482 1145.13V1138.6H206.642V1145.22C206.642 1146.22 206.434 1147.09 206.018 1147.84C205.602 1148.59 205.026 1149.18 204.29 1149.62C203.57 1150.03 202.722 1150.24 201.746 1150.24ZM217.601 1150V1143.35C217.601 1142.49 217.329 1141.78 216.785 1141.22C216.241 1140.66 215.537 1140.38 214.673 1140.38C214.097 1140.38 213.585 1140.5 213.137 1140.76C212.689 1141.02 212.337 1141.37 212.081 1141.82C211.825 1142.26 211.697 1142.78 211.697 1143.35L210.809 1142.85C210.809 1141.98 211.001 1141.22 211.385 1140.54C211.769 1139.87 212.305 1139.34 212.993 1138.96C213.681 1138.56 214.457 1138.36 215.321 1138.36C216.185 1138.36 216.945 1138.58 217.601 1139.01C218.273 1139.44 218.801 1140.01 219.185 1140.71C219.569 1141.4 219.761 1142.14 219.761 1142.92V1150H217.601ZM209.537 1150V1138.6H211.697V1150H209.537ZM224.297 1150V1133.82H226.457V1150H224.297ZM221.489 1140.57V1138.6H229.265V1140.57H221.489ZM235.877 1150.24C234.837 1150.24 233.893 1149.98 233.045 1149.47C232.197 1148.94 231.525 1148.23 231.029 1147.34C230.549 1146.44 230.309 1145.43 230.309 1144.31C230.309 1143.19 230.549 1142.18 231.029 1141.29C231.525 1140.39 232.189 1139.68 233.021 1139.15C233.869 1138.62 234.821 1138.36 235.877 1138.36C236.741 1138.36 237.509 1138.54 238.181 1138.91C238.869 1139.26 239.421 1139.76 239.837 1140.4C240.253 1141.02 240.485 1141.75 240.533 1142.58V1146.02C240.485 1146.83 240.253 1147.56 239.837 1148.2C239.437 1148.84 238.893 1149.34 238.205 1149.71C237.533 1150.06 236.757 1150.24 235.877 1150.24ZM236.237 1148.2C237.309 1148.2 238.173 1147.84 238.829 1147.12C239.485 1146.38 239.813 1145.45 239.813 1144.31C239.813 1143.53 239.661 1142.85 239.357 1142.27C239.069 1141.68 238.653 1141.22 238.109 1140.9C237.565 1140.57 236.933 1140.4 236.213 1140.4C235.493 1140.4 234.853 1140.57 234.293 1140.9C233.749 1141.24 233.317 1141.7 232.997 1142.3C232.693 1142.87 232.541 1143.54 232.541 1144.29C232.541 1145.06 232.693 1145.74 232.997 1146.33C233.317 1146.9 233.757 1147.36 234.317 1147.7C234.877 1148.03 235.517 1148.2 236.237 1148.2ZM239.669 1150V1146.93L240.077 1144.14L239.669 1141.38V1138.6H241.853V1150H239.669ZM250.998 1150.24C250.134 1150.24 249.35 1150.06 248.646 1149.71C247.958 1149.34 247.406 1148.84 246.99 1148.2C246.574 1147.56 246.342 1146.83 246.294 1146.02V1142.58C246.342 1141.75 246.574 1141.02 246.99 1140.4C247.422 1139.76 247.982 1139.26 248.67 1138.91C249.374 1138.54 250.15 1138.36 250.998 1138.36C252.038 1138.36 252.974 1138.62 253.806 1139.15C254.654 1139.68 255.318 1140.39 255.798 1141.29C256.278 1142.18 256.518 1143.19 256.518 1144.31C256.518 1145.43 256.278 1146.44 255.798 1147.34C255.318 1148.23 254.654 1148.94 253.806 1149.47C252.974 1149.98 252.038 1150.24 250.998 1150.24ZM244.998 1150V1132.86H247.158V1141.38L246.75 1144.14L247.158 1146.93V1150H244.998ZM250.638 1148.2C251.358 1148.2 251.99 1148.03 252.534 1147.7C253.078 1147.36 253.51 1146.9 253.83 1146.33C254.15 1145.74 254.31 1145.06 254.31 1144.29C254.31 1143.54 254.15 1142.86 253.83 1142.27C253.51 1141.68 253.078 1141.22 252.534 1140.9C251.99 1140.57 251.366 1140.4 250.662 1140.4C249.942 1140.4 249.31 1140.57 248.766 1140.9C248.222 1141.22 247.798 1141.68 247.494 1142.27C247.19 1142.86 247.038 1143.54 247.038 1144.31C247.038 1145.06 247.182 1145.74 247.47 1146.33C247.774 1146.9 248.198 1147.36 248.742 1147.7C249.302 1148.03 249.934 1148.2 250.638 1148.2ZM258.967 1150V1132.86H261.127V1150H258.967ZM269.567 1150.24C268.431 1150.24 267.407 1149.98 266.495 1149.47C265.583 1148.94 264.863 1148.23 264.335 1147.34C263.807 1146.44 263.543 1145.42 263.543 1144.29C263.543 1143.17 263.799 1142.16 264.311 1141.26C264.839 1140.37 265.543 1139.66 266.423 1139.15C267.319 1138.62 268.319 1138.36 269.423 1138.36C270.479 1138.36 271.407 1138.6 272.207 1139.08C273.023 1139.56 273.655 1140.22 274.103 1141.07C274.567 1141.92 274.799 1142.88 274.799 1143.95C274.799 1144.11 274.791 1144.29 274.775 1144.48C274.759 1144.66 274.727 1144.86 274.679 1145.1H265.055V1143.3H273.527L272.735 1144C272.735 1143.23 272.599 1142.58 272.327 1142.06C272.055 1141.51 271.671 1141.1 271.175 1140.81C270.679 1140.5 270.079 1140.35 269.375 1140.35C268.639 1140.35 267.991 1140.51 267.431 1140.83C266.871 1141.15 266.439 1141.6 266.135 1142.18C265.831 1142.75 265.679 1143.43 265.679 1144.22C265.679 1145.02 265.839 1145.72 266.159 1146.33C266.479 1146.92 266.935 1147.38 267.527 1147.72C268.119 1148.04 268.799 1148.2 269.567 1148.2C270.207 1148.2 270.791 1148.09 271.319 1147.86C271.863 1147.64 272.327 1147.3 272.711 1146.86L274.103 1148.27C273.559 1148.91 272.887 1149.4 272.087 1149.74C271.303 1150.07 270.463 1150.24 269.567 1150.24ZM283.899 1150V1133.82H286.059V1150H283.899ZM281.091 1140.57V1138.6H288.867V1140.57H281.091ZM295.839 1150.24C294.719 1150.24 293.711 1149.98 292.815 1149.45C291.919 1148.92 291.207 1148.21 290.679 1147.31C290.151 1146.4 289.887 1145.38 289.887 1144.26C289.887 1143.16 290.151 1142.17 290.679 1141.29C291.207 1140.39 291.919 1139.68 292.815 1139.15C293.711 1138.62 294.719 1138.36 295.839 1138.36C296.943 1138.36 297.943 1138.62 298.839 1139.15C299.751 1139.66 300.471 1140.37 300.999 1141.26C301.527 1142.16 301.791 1143.16 301.791 1144.26C301.791 1145.38 301.527 1146.4 300.999 1147.31C300.471 1148.21 299.751 1148.92 298.839 1149.45C297.943 1149.98 296.943 1150.24 295.839 1150.24ZM295.839 1148.15C296.559 1148.15 297.199 1147.98 297.759 1147.65C298.319 1147.31 298.759 1146.86 299.079 1146.28C299.399 1145.69 299.559 1145.02 299.559 1144.26C299.559 1143.53 299.391 1142.87 299.055 1142.3C298.735 1141.72 298.295 1141.27 297.735 1140.95C297.191 1140.62 296.559 1140.45 295.839 1140.45C295.119 1140.45 294.479 1140.62 293.919 1140.95C293.359 1141.27 292.919 1141.72 292.599 1142.3C292.279 1142.87 292.119 1143.53 292.119 1144.26C292.119 1145.02 292.279 1145.69 292.599 1146.28C292.919 1146.86 293.359 1147.31 293.919 1147.65C294.479 1147.98 295.119 1148.15 295.839 1148.15ZM309.217 1150V1138.6H311.377V1150H309.217ZM311.377 1143.5L310.561 1143.14C310.561 1141.68 310.897 1140.52 311.569 1139.66C312.241 1138.79 313.209 1138.36 314.473 1138.36C315.049 1138.36 315.569 1138.46 316.033 1138.67C316.497 1138.86 316.929 1139.19 317.329 1139.66L315.913 1141.12C315.673 1140.86 315.409 1140.68 315.121 1140.57C314.833 1140.46 314.497 1140.4 314.113 1140.4C313.313 1140.4 312.657 1140.66 312.145 1141.17C311.633 1141.68 311.377 1142.46 311.377 1143.5ZM323.755 1150.24C322.619 1150.24 321.595 1149.98 320.683 1149.47C319.771 1148.94 319.051 1148.23 318.523 1147.34C317.995 1146.44 317.731 1145.42 317.731 1144.29C317.731 1143.17 317.987 1142.16 318.499 1141.26C319.027 1140.37 319.731 1139.66 320.611 1139.15C321.507 1138.62 322.507 1138.36 323.611 1138.36C324.667 1138.36 325.595 1138.6 326.395 1139.08C327.211 1139.56 327.843 1140.22 328.291 1141.07C328.755 1141.92 328.987 1142.88 328.987 1143.95C328.987 1144.11 328.979 1144.29 328.963 1144.48C328.947 1144.66 328.915 1144.86 328.867 1145.1H319.243V1143.3H327.715L326.923 1144C326.923 1143.23 326.787 1142.58 326.515 1142.06C326.243 1141.51 325.859 1141.1 325.363 1140.81C324.867 1140.5 324.267 1140.35 323.563 1140.35C322.827 1140.35 322.179 1140.51 321.619 1140.83C321.059 1141.15 320.627 1141.6 320.323 1142.18C320.019 1142.75 319.867 1143.43 319.867 1144.22C319.867 1145.02 320.027 1145.72 320.347 1146.33C320.667 1146.92 321.123 1147.38 321.715 1147.72C322.307 1148.04 322.987 1148.2 323.755 1148.2C324.395 1148.2 324.979 1148.09 325.507 1147.86C326.051 1147.64 326.515 1147.3 326.899 1146.86L328.291 1148.27C327.747 1148.91 327.075 1149.4 326.275 1149.74C325.491 1150.07 324.651 1150.24 323.755 1150.24ZM331.366 1150V1138.6H333.526V1150H331.366ZM332.446 1136.32C332.046 1136.32 331.718 1136.19 331.462 1135.94C331.206 1135.66 331.078 1135.33 331.078 1134.93C331.078 1134.54 331.206 1134.22 331.462 1133.97C331.718 1133.7 332.046 1133.56 332.446 1133.56C332.846 1133.56 333.174 1133.7 333.43 1133.97C333.686 1134.22 333.814 1134.54 333.814 1134.93C333.814 1135.33 333.686 1135.66 333.43 1135.94C333.174 1136.19 332.846 1136.32 332.446 1136.32ZM344.773 1150V1143.35C344.773 1142.49 344.501 1141.78 343.957 1141.22C343.413 1140.66 342.709 1140.38 341.845 1140.38C341.269 1140.38 340.757 1140.5 340.309 1140.76C339.861 1141.02 339.509 1141.37 339.253 1141.82C338.997 1142.26 338.869 1142.78 338.869 1143.35L337.981 1142.85C337.981 1141.98 338.173 1141.22 338.557 1140.54C338.941 1139.87 339.477 1139.34 340.165 1138.96C340.853 1138.56 341.629 1138.36 342.493 1138.36C343.357 1138.36 344.117 1138.58 344.773 1139.01C345.445 1139.44 345.973 1140.01 346.357 1140.71C346.741 1141.4 346.933 1142.14 346.933 1142.92V1150H344.773ZM336.709 1150V1138.6H338.869V1150H336.709ZM353.769 1150L348.537 1138.6H350.937L355.137 1148.22H353.745L357.969 1138.6H360.273L355.041 1150H353.769ZM366.95 1150.24C365.814 1150.24 364.79 1149.98 363.878 1149.47C362.966 1148.94 362.246 1148.23 361.718 1147.34C361.19 1146.44 360.926 1145.42 360.926 1144.29C360.926 1143.17 361.182 1142.16 361.694 1141.26C362.222 1140.37 362.926 1139.66 363.806 1139.15C364.702 1138.62 365.702 1138.36 366.806 1138.36C367.862 1138.36 368.79 1138.6 369.59 1139.08C370.406 1139.56 371.038 1140.22 371.486 1141.07C371.95 1141.92 372.182 1142.88 372.182 1143.95C372.182 1144.11 372.174 1144.29 372.158 1144.48C372.142 1144.66 372.11 1144.86 372.062 1145.1H362.438V1143.3H370.91L370.118 1144C370.118 1143.23 369.982 1142.58 369.71 1142.06C369.438 1141.51 369.054 1141.1 368.558 1140.81C368.062 1140.5 367.462 1140.35 366.758 1140.35C366.022 1140.35 365.374 1140.51 364.814 1140.83C364.254 1141.15 363.822 1141.6 363.518 1142.18C363.214 1142.75 363.062 1143.43 363.062 1144.22C363.062 1145.02 363.222 1145.72 363.542 1146.33C363.862 1146.92 364.318 1147.38 364.91 1147.72C365.502 1148.04 366.182 1148.2 366.95 1148.2C367.59 1148.2 368.174 1148.09 368.702 1147.86C369.246 1147.64 369.71 1147.3 370.094 1146.86L371.486 1148.27C370.942 1148.91 370.27 1149.4 369.47 1149.74C368.686 1150.07 367.846 1150.24 366.95 1150.24ZM382.601 1150V1143.35C382.601 1142.49 382.329 1141.78 381.785 1141.22C381.241 1140.66 380.537 1140.38 379.673 1140.38C379.097 1140.38 378.585 1140.5 378.137 1140.76C377.689 1141.02 377.337 1141.37 377.081 1141.82C376.825 1142.26 376.697 1142.78 376.697 1143.35L375.809 1142.85C375.809 1141.98 376.001 1141.22 376.385 1140.54C376.769 1139.87 377.305 1139.34 377.993 1138.96C378.681 1138.56 379.457 1138.36 380.321 1138.36C381.185 1138.36 381.945 1138.58 382.601 1139.01C383.273 1139.44 383.801 1140.01 384.185 1140.71C384.569 1141.4 384.761 1142.14 384.761 1142.92V1150H382.601ZM374.537 1150V1138.6H376.697V1150H374.537ZM389.297 1150V1133.82H391.457V1150H389.297ZM386.489 1140.57V1138.6H394.265V1140.57H386.489ZM396.405 1150V1138.6H398.565V1150H396.405ZM397.485 1136.32C397.085 1136.32 396.757 1136.19 396.501 1135.94C396.245 1135.66 396.117 1135.33 396.117 1134.93C396.117 1134.54 396.245 1134.22 396.501 1133.97C396.757 1133.7 397.085 1133.56 397.485 1133.56C397.885 1133.56 398.213 1133.7 398.469 1133.97C398.725 1134.22 398.853 1134.54 398.853 1134.93C398.853 1135.33 398.725 1135.66 398.469 1135.94C398.213 1136.19 397.885 1136.32 397.485 1136.32ZM409.812 1150V1143.35C409.812 1142.49 409.54 1141.78 408.996 1141.22C408.452 1140.66 407.748 1140.38 406.884 1140.38C406.308 1140.38 405.796 1140.5 405.348 1140.76C404.9 1141.02 404.548 1141.37 404.292 1141.82C404.036 1142.26 403.908 1142.78 403.908 1143.35L403.02 1142.85C403.02 1141.98 403.212 1141.22 403.596 1140.54C403.98 1139.87 404.516 1139.34 405.204 1138.96C405.892 1138.56 406.668 1138.36 407.532 1138.36C408.396 1138.36 409.156 1138.58 409.812 1139.01C410.484 1139.44 411.012 1140.01 411.396 1140.71C411.78 1141.4 411.972 1142.14 411.972 1142.92V1150H409.812ZM401.748 1150V1138.6H403.908V1150H401.748ZM419.625 1155.02C418.457 1155.02 417.417 1154.8 416.505 1154.37C415.609 1153.94 414.889 1153.33 414.345 1152.54L415.737 1151.13C416.201 1151.72 416.753 1152.17 417.393 1152.47C418.033 1152.79 418.793 1152.95 419.673 1152.95C420.841 1152.95 421.761 1152.64 422.433 1152.02C423.121 1151.41 423.465 1150.58 423.465 1149.54V1146.71L423.849 1144.14L423.465 1141.6V1138.6H425.625V1149.54C425.625 1150.63 425.369 1151.58 424.857 1152.4C424.361 1153.22 423.657 1153.86 422.745 1154.32C421.849 1154.78 420.809 1155.02 419.625 1155.02ZM419.625 1149.81C418.585 1149.81 417.649 1149.56 416.817 1149.06C416.001 1148.57 415.353 1147.89 414.873 1147.02C414.393 1146.14 414.153 1145.16 414.153 1144.07C414.153 1142.98 414.393 1142.02 414.873 1141.17C415.353 1140.3 416.001 1139.62 416.817 1139.13C417.649 1138.62 418.585 1138.36 419.625 1138.36C420.521 1138.36 421.313 1138.54 422.001 1138.89C422.689 1139.24 423.233 1139.74 423.633 1140.38C424.049 1141 424.273 1141.74 424.305 1142.58V1145.61C424.257 1146.44 424.025 1147.18 423.609 1147.82C423.209 1148.44 422.665 1148.93 421.977 1149.28C421.289 1149.63 420.505 1149.81 419.625 1149.81ZM420.057 1147.77C420.761 1147.77 421.377 1147.62 421.905 1147.31C422.449 1147.01 422.865 1146.58 423.153 1146.04C423.441 1145.48 423.585 1144.83 423.585 1144.1C423.585 1143.36 423.433 1142.72 423.129 1142.18C422.841 1141.62 422.433 1141.18 421.905 1140.88C421.377 1140.56 420.753 1140.4 420.033 1140.4C419.313 1140.4 418.681 1140.56 418.137 1140.88C417.593 1141.18 417.161 1141.62 416.84 1142.18C416.537 1142.72 416.385 1143.35 416.385 1144.07C416.385 1144.79 416.537 1145.43 416.84 1145.99C417.161 1146.55 417.593 1146.99 418.137 1147.31C418.697 1147.62 419.337 1147.77 420.057 1147.77ZM150.328 1186.1L145.384 1174.6H147.784L151.456 1183.6H150.688L154.552 1174.6H156.952L151.624 1186.1H150.328ZM147.064 1190.78L150.424 1183.89L151.624 1186.1L149.464 1190.78H147.064ZM163.487 1186.24C162.367 1186.24 161.359 1185.98 160.463 1185.45C159.567 1184.92 158.855 1184.21 158.327 1183.31C157.799 1182.4 157.535 1181.38 157.535 1180.26C157.535 1179.16 157.799 1178.17 158.327 1177.29C158.855 1176.39 159.567 1175.68 160.463 1175.15C161.359 1174.62 162.367 1174.36 163.487 1174.36C164.591 1174.36 165.591 1174.62 166.487 1175.15C167.399 1175.66 168.119 1176.37 168.647 1177.26C169.175 1178.16 169.439 1179.16 169.439 1180.26C169.439 1181.38 169.175 1182.4 168.647 1183.31C168.119 1184.21 167.399 1184.92 166.487 1185.45C165.591 1185.98 164.591 1186.24 163.487 1186.24ZM163.487 1184.15C164.207 1184.15 164.847 1183.98 165.407 1183.65C165.967 1183.31 166.407 1182.86 166.727 1182.28C167.047 1181.69 167.207 1181.02 167.207 1180.26C167.207 1179.53 167.039 1178.87 166.703 1178.3C166.383 1177.72 165.943 1177.27 165.383 1176.95C164.839 1176.62 164.207 1176.45 163.487 1176.45C162.767 1176.45 162.127 1176.62 161.567 1176.95C161.007 1177.27 160.567 1177.72 160.247 1178.3C159.927 1178.87 159.767 1179.53 159.767 1180.26C159.767 1181.02 159.927 1181.69 160.247 1182.28C160.567 1182.86 161.007 1183.31 161.567 1183.65C162.127 1183.98 162.767 1184.15 163.487 1184.15ZM176.457 1186.24C175.529 1186.24 174.689 1186.03 173.937 1185.62C173.201 1185.18 172.625 1184.59 172.209 1183.84C171.793 1183.09 171.585 1182.22 171.585 1181.22V1174.6H173.745V1181.13C173.745 1181.75 173.849 1182.3 174.057 1182.76C174.281 1183.21 174.601 1183.55 175.017 1183.79C175.433 1184.03 175.921 1184.15 176.481 1184.15C177.329 1184.15 177.993 1183.89 178.473 1183.36C178.953 1182.82 179.193 1182.07 179.193 1181.13V1174.6H181.353V1181.22C181.353 1182.22 181.145 1183.09 180.729 1183.84C180.313 1184.59 179.737 1185.18 179.001 1185.62C178.281 1186.03 177.433 1186.24 176.457 1186.24ZM184.248 1186V1174.6H186.408V1186H184.248ZM186.408 1179.5L185.592 1179.14C185.592 1177.68 185.928 1176.52 186.6 1175.66C187.272 1174.79 188.24 1174.36 189.504 1174.36C190.08 1174.36 190.6 1174.46 191.064 1174.67C191.528 1174.86 191.96 1175.19 192.36 1175.66L190.944 1177.12C190.704 1176.86 190.44 1176.68 190.152 1176.57C189.864 1176.46 189.528 1176.4 189.144 1176.4C188.344 1176.4 187.688 1176.66 187.176 1177.17C186.664 1177.68 186.408 1178.46 186.408 1179.5ZM199.295 1186V1168.86H201.455V1186H199.295ZM204.639 1186V1174.6H206.799V1186H204.639ZM205.719 1172.32C205.319 1172.32 204.991 1172.19 204.735 1171.94C204.479 1171.66 204.351 1171.33 204.351 1170.93C204.351 1170.54 204.479 1170.22 204.735 1169.97C204.991 1169.7 205.319 1169.56 205.719 1169.56C206.119 1169.56 206.447 1169.7 206.703 1169.97C206.959 1170.22 207.087 1170.54 207.087 1170.93C207.087 1171.33 206.959 1171.66 206.703 1171.94C206.447 1172.19 206.119 1172.32 205.719 1172.32ZM211.614 1186V1172.9C211.614 1172.05 211.798 1171.31 212.166 1170.69C212.534 1170.05 213.038 1169.54 213.678 1169.18C214.334 1168.81 215.094 1168.62 215.958 1168.62C216.614 1168.62 217.182 1168.74 217.662 1168.96C218.142 1169.18 218.582 1169.51 218.982 1169.94L217.566 1171.34C217.358 1171.11 217.126 1170.94 216.87 1170.83C216.614 1170.7 216.302 1170.64 215.934 1170.64C215.246 1170.64 214.71 1170.84 214.326 1171.24C213.958 1171.64 213.774 1172.19 213.774 1172.9V1186H211.614ZM208.806 1176.57V1174.6H217.398V1176.57H208.806ZM224.192 1186.24C223.056 1186.24 222.032 1185.98 221.12 1185.47C220.208 1184.94 219.488 1184.23 218.96 1183.34C218.432 1182.44 218.168 1181.42 218.168 1180.29C218.168 1179.17 218.424 1178.16 218.936 1177.26C219.464 1176.37 220.168 1175.66 221.048 1175.15C221.944 1174.62 222.944 1174.36 224.048 1174.36C225.104 1174.36 226.032 1174.6 226.832 1175.08C227.648 1175.56 228.28 1176.22 228.728 1177.07C229.192 1177.92 229.424 1178.88 229.424 1179.95C229.424 1180.11 229.416 1180.29 229.4 1180.48C229.384 1180.66 229.352 1180.86 229.304 1181.1H219.68V1179.3H228.152L227.36 1180C227.36 1179.23 227.224 1178.58 226.952 1178.06C226.68 1177.51 226.296 1177.1 225.8 1176.81C225.304 1176.5 224.704 1176.35 224 1176.35C223.264 1176.35 222.616 1176.51 222.056 1176.83C221.496 1177.15 221.064 1177.6 220.76 1178.18C220.456 1178.75 220.304 1179.43 220.304 1180.22C220.304 1181.02 220.464 1181.72 220.784 1182.33C221.104 1182.92 221.56 1183.38 222.152 1183.72C222.744 1184.04 223.424 1184.2 224.192 1184.2C224.832 1184.2 225.416 1184.09 225.944 1183.86C226.488 1183.64 226.952 1183.3 227.336 1182.86L228.728 1184.27C228.184 1184.91 227.512 1185.4 226.712 1185.74C225.928 1186.07 225.088 1186.24 224.192 1186.24Z" fill="white"/>
</g>
<defs>
<filter id="filter0_g_330_183" x="0" y="0" width="550" height="1380" filterUnits="userSpaceOnUse" color-interpolation-filters="sRGB">
<feFlood flood-opacity="0" result="BackgroundImageFix"/>
<feBlend mode="normal" in="SourceGraphic" in2="BackgroundImageFix" result="shape"/>
<feTurbulence type="fractalNoise" baseFrequency="0.20000000298023224 0.20000000298023224" numOctaves="3" seed="51" />
<feDisplacementMap in="shape" scale="50" xChannelSelector="R" yChannelSelector="G" result="displacedImage" width="100%" height="100%" />
<feMerge result="effect1_texture_330_183">
<feMergeNode in="displacedImage"/>
</feMerge>
</filter>
</defs>
</svg>
