<svg width="1512" height="660" viewBox="0 0 1512 660" fill="none" xmlns="http://www.w3.org/2000/svg">
<g filter="url(#filter0_g_175_174)">
<rect x="80" y="80" width="500" height="500" rx="250" fill="#920751"/>
<path d="M255.096 351V305.88H273.784C278.989 305.88 283.427 306.776 287.096 308.568C290.765 310.317 293.56 312.877 295.48 316.248C297.443 319.576 298.424 323.629 298.424 328.408C298.424 333.187 297.443 337.261 295.48 340.632C293.56 344.003 290.765 346.584 287.096 348.376C283.427 350.125 278.989 351 273.784 351H255.096ZM266.872 341.464H273.016C277.496 341.464 280.803 340.397 282.936 338.264C285.112 336.088 286.2 332.803 286.2 328.408C286.2 323.971 285.112 320.707 282.936 318.616C280.76 316.483 277.453 315.416 273.016 315.416H266.872V341.464ZM305.409 351V305.88H317.185V351H305.409ZM340.322 351L319.778 305.88H332.322L347.042 340.056H343.458L358.178 305.88H370.274L349.666 351H340.322ZM372.846 351V305.88H404.718V314.968H384.11V323.544H403.246V332.632H384.11V341.912H404.718V351H372.846Z" fill="white"/>
<rect x="511" y="80" width="500" height="500" rx="250" fill="#920751"/>
<path d="M645.096 351V305.88H663.784C668.989 305.88 673.427 306.776 677.096 308.568C680.765 310.317 683.56 312.877 685.48 316.248C687.443 319.576 688.424 323.629 688.424 328.408C688.424 333.187 687.443 337.261 685.48 340.632C683.56 344.003 680.765 346.584 677.096 348.376C673.427 350.125 668.989 351 663.784 351H645.096ZM656.872 341.464H663.016C667.496 341.464 670.803 340.397 672.936 338.264C675.112 336.088 676.2 332.803 676.2 328.408C676.2 323.971 675.112 320.707 672.936 318.616C670.76 316.483 667.453 315.416 663.016 315.416H656.872V341.464ZM695.409 351V305.88H717.105C722.225 305.88 726.171 307.139 728.944 309.656C731.761 312.131 733.169 315.587 733.169 320.024C733.169 322.883 732.529 325.379 731.249 327.512C730.011 329.603 728.198 331.224 725.809 332.376C723.462 333.485 720.561 334.04 717.105 334.04L717.617 332.888H720.689C722.523 332.888 724.145 333.336 725.553 334.232C726.961 335.085 728.134 336.408 729.073 338.2L736.113 351H723.185L715.377 336.664C715.035 336.024 714.63 335.533 714.161 335.192C713.691 334.851 713.158 334.595 712.561 334.424C712.006 334.253 711.387 334.168 710.705 334.168H707.185V351H695.409ZM707.185 325.848H714.993C717.254 325.848 718.982 325.4 720.177 324.504C721.371 323.608 721.969 322.221 721.969 320.344C721.969 318.552 721.371 317.208 720.177 316.312C718.982 315.373 717.254 314.904 714.993 314.904H707.185V325.848ZM740.596 351V305.88H772.468V314.968H751.86V323.544H770.996V332.632H751.86V341.912H772.468V351H740.596ZM773.781 351L794.901 305.88H804.181L825.301 351H813.525L808.213 338.584L812.693 341.848H786.325L790.869 338.584L785.557 351H773.781ZM799.445 318.168L792.021 335.896L790.229 332.824H808.853L807.061 335.896L799.573 318.168H799.445ZM828.161 351V305.88H837.954L853.506 333.72H851.266L866.754 305.88H876.29V351H865.666V324.184H867.01L855.362 344.344H848.962L837.314 324.12H838.786V351H828.161Z" fill="white"/>
<rect x="942" y="80" width="500" height="500" rx="250" fill="#920751"/>
<path d="M1145.1 351V305.88H1163.78C1168.99 305.88 1173.43 306.776 1177.1 308.568C1180.77 310.317 1183.56 312.877 1185.48 316.248C1187.44 319.576 1188.42 323.629 1188.42 328.408C1188.42 333.187 1187.44 337.261 1185.48 340.632C1183.56 344.003 1180.77 346.584 1177.1 348.376C1173.43 350.125 1168.99 351 1163.78 351H1145.1ZM1156.87 341.464H1163.02C1167.5 341.464 1170.8 340.397 1172.94 338.264C1175.11 336.088 1176.2 332.803 1176.2 328.408C1176.2 323.971 1175.11 320.707 1172.94 318.616C1170.76 316.483 1167.45 315.416 1163.02 315.416H1156.87V341.464ZM1217.17 351.704C1213.76 351.704 1210.64 351.149 1207.82 350.04C1205.01 348.931 1202.58 347.352 1200.53 345.304C1198.52 343.213 1196.97 340.739 1195.86 337.88C1194.79 335.021 1194.26 331.864 1194.26 328.408C1194.26 324.909 1194.79 321.731 1195.86 318.872C1196.97 316.013 1198.52 313.56 1200.53 311.512C1202.58 309.464 1205.01 307.907 1207.82 306.84C1210.64 305.731 1213.76 305.176 1217.17 305.176C1220.58 305.176 1223.7 305.731 1226.51 306.84C1229.33 307.907 1231.74 309.464 1233.74 311.512C1235.79 313.56 1237.35 316.013 1238.42 318.872C1239.53 321.688 1240.08 324.845 1240.08 328.344C1240.08 331.885 1239.53 335.085 1238.42 337.944C1237.35 340.803 1235.79 343.277 1233.74 345.368C1231.74 347.416 1229.33 348.995 1226.51 350.104C1223.7 351.171 1220.58 351.704 1217.17 351.704ZM1217.17 341.848C1219.43 341.848 1221.35 341.315 1222.93 340.248C1224.51 339.181 1225.72 337.645 1226.58 335.64C1227.43 333.635 1227.86 331.224 1227.86 328.408C1227.86 325.592 1227.43 323.181 1226.58 321.176C1225.77 319.171 1224.55 317.656 1222.93 316.632C1221.35 315.565 1219.43 315.032 1217.17 315.032C1214.95 315.032 1213.03 315.565 1211.41 316.632C1209.83 317.656 1208.61 319.171 1207.76 321.176C1206.91 323.181 1206.48 325.592 1206.48 328.408C1206.48 331.224 1206.89 333.635 1207.7 335.64C1208.55 337.645 1209.79 339.181 1211.41 340.248C1213.03 341.315 1214.95 341.848 1217.17 341.848Z" fill="white"/>
</g>
<defs>
<filter id="filter0_g_175_174" x="55" y="55" width="1412" height="550" filterUnits="userSpaceOnUse" color-interpolation-filters="sRGB">
<feFlood flood-opacity="0" result="BackgroundImageFix"/>
<feBlend mode="normal" in="SourceGraphic" in2="BackgroundImageFix" result="shape"/>
<feTurbulence type="fractalNoise" baseFrequency="0.20000000298023224 0.20000000298023224" numOctaves="3" seed="4150" />
<feDisplacementMap in="shape" scale="50" xChannelSelector="R" yChannelSelector="G" result="displacedImage" width="100%" height="100%" />
<feMerge result="effect1_texture_175_174">
<feMergeNode in="displacedImage"/>
</feMerge>
</filter>
</defs>
</svg>
