<svg width="550" height="1525" viewBox="0 0 550 1525" fill="none" xmlns="http://www.w3.org/2000/svg">
<g filter="url(#filter0_g_335_174)">
<rect x="25" y="25" width="500" height="500" rx="250" fill="#920751"/>
<path d="M200.096 296V250.88H218.784C223.989 250.88 228.427 251.776 232.096 253.568C235.765 255.317 238.56 257.877 240.48 261.248C242.443 264.576 243.424 268.629 243.424 273.408C243.424 278.187 242.443 282.261 240.48 285.632C238.56 289.003 235.765 291.584 232.096 293.376C228.427 295.125 223.989 296 218.784 296H200.096ZM211.872 286.464H218.016C222.496 286.464 225.803 285.397 227.936 283.264C230.112 281.088 231.2 277.803 231.2 273.408C231.2 268.971 230.112 265.707 227.936 263.616C225.76 261.483 222.453 260.416 218.016 260.416H211.872V286.464ZM250.409 296V250.88H262.185V296H250.409ZM285.322 296L264.778 250.88H277.322L292.042 285.056H288.458L303.178 250.88H315.274L294.666 296H285.322ZM317.846 296V250.88H349.718V259.968H329.11V268.544H348.246V277.632H329.11V286.912H349.718V296H317.846Z" fill="white"/>
<rect x="25" y="425" width="500" height="500" rx="250" fill="#920751"/>
<path d="M159.096 696V650.88H177.784C182.989 650.88 187.427 651.776 191.096 653.568C194.765 655.317 197.56 657.877 199.48 661.248C201.443 664.576 202.424 668.629 202.424 673.408C202.424 678.187 201.443 682.261 199.48 685.632C197.56 689.003 194.765 691.584 191.096 693.376C187.427 695.125 182.989 696 177.784 696H159.096ZM170.872 686.464H177.016C181.496 686.464 184.803 685.397 186.936 683.264C189.112 681.088 190.2 677.803 190.2 673.408C190.2 668.971 189.112 665.707 186.936 663.616C184.76 661.483 181.453 660.416 177.016 660.416H170.872V686.464ZM209.409 696V650.88H231.105C236.225 650.88 240.171 652.139 242.944 654.656C245.761 657.131 247.169 660.587 247.169 665.024C247.169 667.883 246.529 670.379 245.249 672.512C244.011 674.603 242.198 676.224 239.809 677.376C237.462 678.485 234.561 679.04 231.105 679.04L231.617 677.888H234.689C236.523 677.888 238.145 678.336 239.553 679.232C240.961 680.085 242.134 681.408 243.073 683.2L250.113 696H237.185L229.377 681.664C229.035 681.024 228.63 680.533 228.161 680.192C227.691 679.851 227.158 679.595 226.561 679.424C226.006 679.253 225.387 679.168 224.705 679.168H221.185V696H209.409ZM221.185 670.848H228.993C231.254 670.848 232.982 670.4 234.177 669.504C235.371 668.608 235.969 667.221 235.969 665.344C235.969 663.552 235.371 662.208 234.177 661.312C232.982 660.373 231.254 659.904 228.993 659.904H221.185V670.848ZM254.596 696V650.88H286.468V659.968H265.86V668.544H284.996V677.632H265.86V686.912H286.468V696H254.596ZM287.781 696L308.901 650.88H318.181L339.301 696H327.525L322.213 683.584L326.693 686.848H300.325L304.869 683.584L299.557 696H287.781ZM313.445 663.168L306.021 680.896L304.229 677.824H322.853L321.061 680.896L313.573 663.168H313.445ZM342.161 696V650.88H351.954L367.506 678.72H365.266L380.754 650.88H390.29V696H379.666V669.184H381.01L369.362 689.344H362.962L351.314 669.12H352.786V696H342.161Z" fill="white"/>
<rect x="25" y="855" width="500" height="500" rx="250" fill="#920751"/>
<path d="M228.096 1126V1080.88H246.784C251.989 1080.88 256.427 1081.78 260.096 1083.57C263.765 1085.32 266.56 1087.88 268.48 1091.25C270.443 1094.58 271.424 1098.63 271.424 1103.41C271.424 1108.19 270.443 1112.26 268.48 1115.63C266.56 1119 263.765 1121.58 260.096 1123.38C256.427 1125.13 251.989 1126 246.784 1126H228.096ZM239.872 1116.46H246.016C250.496 1116.46 253.803 1115.4 255.936 1113.26C258.112 1111.09 259.2 1107.8 259.2 1103.41C259.2 1098.97 258.112 1095.71 255.936 1093.62C253.76 1091.48 250.453 1090.42 246.016 1090.42H239.872V1116.46ZM300.169 1126.7C296.755 1126.7 293.641 1126.15 290.825 1125.04C288.009 1123.93 285.577 1122.35 283.529 1120.3C281.523 1118.21 279.966 1115.74 278.857 1112.88C277.79 1110.02 277.257 1106.86 277.257 1103.41C277.257 1099.91 277.79 1096.73 278.857 1093.87C279.966 1091.01 281.523 1088.56 283.529 1086.51C285.577 1084.46 288.009 1082.91 290.825 1081.84C293.641 1080.73 296.755 1080.18 300.169 1080.18C303.582 1080.18 306.697 1080.73 309.513 1081.84C312.329 1082.91 314.739 1084.46 316.745 1086.51C318.793 1088.56 320.35 1091.01 321.417 1093.87C322.526 1096.69 323.081 1099.85 323.081 1103.34C323.081 1106.89 322.526 1110.09 321.417 1112.94C320.35 1115.8 318.793 1118.28 316.745 1120.37C314.739 1122.42 312.329 1123.99 309.513 1125.1C306.697 1126.17 303.582 1126.7 300.169 1126.7ZM300.169 1116.85C302.43 1116.85 304.35 1116.31 305.929 1115.25C307.507 1114.18 308.723 1112.65 309.576 1110.64C310.43 1108.63 310.857 1106.22 310.857 1103.41C310.857 1100.59 310.43 1098.18 309.576 1096.18C308.766 1094.17 307.55 1092.66 305.929 1091.63C304.35 1090.57 302.43 1090.03 300.169 1090.03C297.95 1090.03 296.03 1090.57 294.409 1091.63C292.83 1092.66 291.614 1094.17 290.76 1096.18C289.907 1098.18 289.481 1100.59 289.481 1103.41C289.481 1106.22 289.886 1108.63 290.697 1110.64C291.55 1112.65 292.787 1114.18 294.409 1115.25C296.03 1116.31 297.95 1116.85 300.169 1116.85Z" fill="white"/>
</g>
<defs>
<filter id="filter0_g_335_174" x="0" y="0" width="550" height="1550" filterUnits="userSpaceOnUse" color-interpolation-filters="sRGB">
<feFlood flood-opacity="0" result="BackgroundImageFix"/>
<feBlend mode="normal" in="SourceGraphic" in2="BackgroundImageFix" result="shape"/>
<feTurbulence type="fractalNoise" baseFrequency="0.20000000298023224 0.20000000298023224" numOctaves="3" seed="4150" />
<feDisplacementMap in="shape" scale="50" xChannelSelector="R" yChannelSelector="G" result="displacedImage" width="100%" height="100%" />
<feMerge result="effect1_texture_335_174">
<feMergeNode in="displacedImage"/>
</feMerge>
</filter>
</defs>
</svg>
