<svg width="500" height="1330" viewBox="0 0 500 1330" fill="none" xmlns="http://www.w3.org/2000/svg">
<rect width="500" height="500" rx="250" fill="#920751"/>
<path d="M122.56 215V186.8H134.24C137.493 186.8 140.267 187.36 142.56 188.48C144.853 189.573 146.6 191.173 147.8 193.28C149.027 195.36 149.64 197.893 149.64 200.88C149.64 203.867 149.027 206.413 147.8 208.52C146.6 210.627 144.853 212.24 142.56 213.36C140.267 214.453 137.493 215 134.24 215H122.56ZM129.92 209.04H133.76C136.56 209.04 138.627 208.373 139.96 207.04C141.32 205.68 142 203.627 142 200.88C142 198.107 141.32 196.067 139.96 194.76C138.6 193.427 136.533 192.76 133.76 192.76H129.92V209.04ZM154.005 215V186.8H161.365V215H154.005ZM175.826 215L162.986 186.8H170.826L180.026 208.16H177.786L186.986 186.8H194.546L181.666 215H175.826ZM196.154 215V186.8H216.074V192.48H203.194V197.84H215.154V203.52H203.194V209.32H216.074V215H196.154Z" fill="white"/>
<path d="M122.04 276V259.08H127.872C129.712 259.08 131.272 259.408 132.552 260.064C133.848 260.704 134.832 261.656 135.504 262.92C136.176 264.168 136.512 265.704 136.512 267.528C136.512 269.352 136.176 270.896 135.504 272.16C134.832 273.408 133.848 274.36 132.552 275.016C131.272 275.672 129.712 276 127.872 276H122.04ZM124.272 274.104H127.728C129.888 274.104 131.504 273.56 132.576 272.472C133.648 271.368 134.184 269.72 134.184 267.528C134.184 265.336 133.64 263.696 132.552 262.608C131.48 261.52 129.872 260.976 127.728 260.976H124.272V274.104ZM139.466 261.504V259.152H142.082V261.504H139.466ZM139.682 276V264.312H141.866V276H139.682ZM148.833 276L143.793 264.312H146.145L150.201 274.296H149.529L153.657 264.312H155.913L150.825 276H148.833ZM157.583 261.504V259.152H160.199V261.504H157.583ZM157.799 276V264.312H159.983V276H157.799ZM163.494 276V264.312H165.63V266.856H165.366C165.702 265.944 166.246 265.256 166.998 264.792C167.766 264.328 168.638 264.096 169.614 264.096C170.558 264.096 171.334 264.264 171.942 264.6C172.55 264.936 173.006 265.456 173.31 266.16C173.614 266.848 173.766 267.712 173.766 268.752V276H171.582V268.872C171.582 268.184 171.494 267.616 171.318 267.168C171.142 266.72 170.862 266.392 170.478 266.184C170.11 265.976 169.638 265.872 169.062 265.872C168.39 265.872 167.798 266.016 167.286 266.304C166.774 266.592 166.374 267 166.086 267.528C165.814 268.056 165.678 268.672 165.678 269.376V276H163.494ZM182.485 280.536C181.445 280.536 180.477 280.408 179.581 280.152C178.685 279.896 177.885 279.504 177.181 278.976L177.877 277.392C178.357 277.712 178.829 277.976 179.293 278.184C179.773 278.408 180.261 278.568 180.757 278.664C181.269 278.76 181.797 278.808 182.341 278.808C183.477 278.808 184.325 278.512 184.885 277.92C185.461 277.344 185.749 276.496 185.749 275.376V272.784H185.965C185.741 273.68 185.237 274.392 184.453 274.92C183.685 275.448 182.789 275.712 181.765 275.712C180.709 275.712 179.789 275.472 179.005 274.992C178.221 274.496 177.613 273.816 177.181 272.952C176.749 272.072 176.533 271.056 176.533 269.904C176.533 268.736 176.749 267.72 177.181 266.856C177.613 265.976 178.221 265.296 179.005 264.816C179.789 264.336 180.709 264.096 181.765 264.096C182.805 264.096 183.709 264.36 184.477 264.888C185.245 265.416 185.741 266.128 185.965 267.024H185.749V264.312H187.885V275.088C187.885 276.288 187.677 277.296 187.261 278.112C186.861 278.928 186.261 279.536 185.461 279.936C184.661 280.336 183.669 280.536 182.485 280.536ZM182.245 273.984C183.317 273.984 184.165 273.616 184.789 272.88C185.413 272.144 185.725 271.152 185.725 269.904C185.725 268.64 185.413 267.648 184.789 266.928C184.165 266.192 183.317 265.824 182.245 265.824C181.173 265.824 180.317 266.192 179.677 266.928C179.053 267.648 178.741 268.64 178.741 269.904C178.741 271.152 179.053 272.144 179.677 272.88C180.317 273.616 181.173 273.984 182.245 273.984ZM202.083 276.216C201.059 276.216 200.155 275.976 199.371 275.496C198.603 275 198.003 274.296 197.571 273.384C197.139 272.456 196.923 271.376 196.923 270.144C196.923 268.896 197.131 267.824 197.547 266.928C197.979 266.016 198.579 265.32 199.347 264.84C200.131 264.344 201.043 264.096 202.083 264.096C203.123 264.096 204.019 264.36 204.771 264.888C205.523 265.4 206.027 266.088 206.283 266.952H206.019V259.08H208.203V276H206.043V273.288H206.283C206.043 274.184 205.539 274.896 204.771 275.424C204.019 275.952 203.123 276.216 202.083 276.216ZM202.587 274.488C203.643 274.488 204.483 274.12 205.107 273.384C205.731 272.632 206.043 271.552 206.043 270.144C206.043 268.736 205.731 267.664 205.107 266.928C204.483 266.192 203.643 265.824 202.587 265.824C201.547 265.824 200.707 266.192 200.067 266.928C199.443 267.664 199.131 268.736 199.131 270.144C199.131 271.552 199.443 272.632 200.067 273.384C200.707 274.12 201.547 274.488 202.587 274.488ZM217.105 276.216C215.841 276.216 214.753 275.976 213.841 275.496C212.945 275 212.249 274.304 211.753 273.408C211.257 272.496 211.009 271.424 211.009 270.192C211.009 268.976 211.249 267.912 211.729 267C212.225 266.088 212.897 265.376 213.745 264.864C214.609 264.352 215.593 264.096 216.697 264.096C217.769 264.096 218.681 264.328 219.433 264.792C220.201 265.256 220.785 265.92 221.185 266.784C221.601 267.632 221.809 268.656 221.809 269.856V270.648H212.713V269.256H220.369L219.961 269.592C219.961 268.344 219.689 267.384 219.145 266.712C218.601 266.024 217.801 265.68 216.745 265.68C215.977 265.68 215.321 265.864 214.777 266.232C214.233 266.584 213.817 267.088 213.529 267.744C213.241 268.384 213.097 269.128 213.097 269.976V270.12C213.097 271.08 213.249 271.888 213.553 272.544C213.873 273.184 214.329 273.672 214.921 274.008C215.513 274.328 216.241 274.488 217.105 274.488C217.793 274.488 218.457 274.384 219.097 274.176C219.753 273.952 220.369 273.608 220.945 273.144L221.617 274.656C221.089 275.136 220.409 275.52 219.577 275.808C218.761 276.08 217.937 276.216 217.105 276.216ZM229.925 276.216C228.661 276.216 227.573 275.976 226.661 275.496C225.765 275 225.069 274.304 224.573 273.408C224.077 272.496 223.829 271.424 223.829 270.192C223.829 268.976 224.069 267.912 224.549 267C225.045 266.088 225.717 265.376 226.565 264.864C227.429 264.352 228.413 264.096 229.517 264.096C230.589 264.096 231.501 264.328 232.253 264.792C233.021 265.256 233.605 265.92 234.005 266.784C234.421 267.632 234.629 268.656 234.629 269.856V270.648H225.533V269.256H233.189L232.781 269.592C232.781 268.344 232.509 267.384 231.965 266.712C231.421 266.024 230.621 265.68 229.565 265.68C228.797 265.68 228.141 265.864 227.597 266.232C227.053 266.584 226.637 267.088 226.349 267.744C226.061 268.384 225.917 269.128 225.917 269.976V270.12C225.917 271.08 226.069 271.888 226.373 272.544C226.693 273.184 227.149 273.672 227.741 274.008C228.333 274.328 229.061 274.488 229.925 274.488C230.613 274.488 231.277 274.384 231.917 274.176C232.573 273.952 233.189 273.608 233.765 273.144L234.437 274.656C233.909 275.136 233.229 275.52 232.397 275.808C231.581 276.08 230.757 276.216 229.925 276.216ZM237.346 280.32V264.312H239.482V267H239.242C239.498 266.12 240.002 265.416 240.754 264.888C241.506 264.36 242.41 264.096 243.466 264.096C244.506 264.096 245.41 264.344 246.178 264.84C246.946 265.32 247.546 266.016 247.978 266.928C248.41 267.824 248.626 268.896 248.626 270.144C248.626 271.376 248.41 272.456 247.978 273.384C247.562 274.296 246.962 275 246.178 275.496C245.41 275.976 244.506 276.216 243.466 276.216C242.426 276.216 241.53 275.952 240.778 275.424C240.026 274.896 239.522 274.2 239.266 273.336H239.53V280.32H237.346ZM242.962 274.488C244.018 274.488 244.858 274.12 245.482 273.384C246.106 272.632 246.418 271.552 246.418 270.144C246.418 268.736 246.106 267.664 245.482 266.928C244.858 266.192 244.018 265.824 242.962 265.824C241.906 265.824 241.066 266.192 240.442 266.928C239.818 267.664 239.506 268.736 239.506 270.144C239.506 271.552 239.818 272.632 240.442 273.384C241.066 274.12 241.906 274.488 242.962 274.488ZM257.45 261.504V259.152H260.066V261.504H257.45ZM257.666 276V264.312H259.85V276H257.666ZM263.361 276V264.312H265.497V266.856H265.233C265.569 265.944 266.113 265.256 266.865 264.792C267.633 264.328 268.505 264.096 269.481 264.096C270.425 264.096 271.201 264.264 271.809 264.6C272.417 264.936 272.873 265.456 273.177 266.16C273.481 266.848 273.633 267.712 273.633 268.752V276H271.449V268.872C271.449 268.184 271.361 267.616 271.185 267.168C271.009 266.72 270.729 266.392 270.345 266.184C269.977 265.976 269.505 265.872 268.929 265.872C268.257 265.872 267.665 266.016 267.153 266.304C266.641 266.592 266.241 267 265.953 267.528C265.681 268.056 265.545 268.672 265.545 269.376V276H263.361ZM281.944 276.216C280.52 276.216 279.456 275.848 278.752 275.112C278.048 274.36 277.696 273.288 277.696 271.896V265.992H275.416V264.312H277.696V260.76H279.88V264.312H283.552V265.992H279.88V271.704C279.88 272.584 280.064 273.248 280.432 273.696C280.8 274.144 281.408 274.368 282.256 274.368C282.512 274.368 282.76 274.344 283 274.296C283.256 274.232 283.496 274.168 283.72 274.104L284.08 275.736C283.856 275.88 283.536 275.992 283.12 276.072C282.72 276.168 282.328 276.216 281.944 276.216ZM290.548 276.216C289.396 276.216 288.396 275.968 287.548 275.472C286.7 274.976 286.044 274.272 285.58 273.36C285.116 272.448 284.884 271.376 284.884 270.144C284.884 268.912 285.116 267.848 285.58 266.952C286.044 266.04 286.7 265.336 287.548 264.84C288.396 264.344 289.396 264.096 290.548 264.096C291.7 264.096 292.7 264.344 293.548 264.84C294.396 265.336 295.052 266.04 295.516 266.952C295.98 267.848 296.212 268.912 296.212 270.144C296.212 271.376 295.98 272.448 295.516 273.36C295.052 274.272 294.396 274.976 293.548 275.472C292.7 275.968 291.7 276.216 290.548 276.216ZM290.548 274.488C291.604 274.488 292.444 274.12 293.068 273.384C293.692 272.632 294.004 271.552 294.004 270.144C294.004 268.736 293.692 267.664 293.068 266.928C292.444 266.192 291.604 265.824 290.548 265.824C289.508 265.824 288.668 266.192 288.028 266.928C287.404 267.664 287.092 268.736 287.092 270.144C287.092 271.552 287.404 272.632 288.028 273.384C288.668 274.12 289.508 274.488 290.548 274.488ZM308.388 276L303.996 264.312H306.252L309.756 274.248H309.18L312.804 264.312H314.556L318.108 274.248H317.556L321.108 264.312H323.244L318.852 276H316.812L313.068 265.776H314.172L310.428 276H308.388ZM325.494 276V259.08H327.678V266.856H327.366C327.702 265.944 328.246 265.256 328.998 264.792C329.766 264.328 330.638 264.096 331.614 264.096C332.558 264.096 333.334 264.272 333.942 264.624C334.55 264.96 335.006 265.472 335.31 266.16C335.614 266.848 335.766 267.712 335.766 268.752V276H333.582V268.872C333.582 268.184 333.494 267.616 333.318 267.168C333.142 266.72 332.862 266.392 332.478 266.184C332.11 265.976 331.638 265.872 331.062 265.872C330.39 265.872 329.798 266.016 329.286 266.304C328.774 266.592 328.374 267 328.086 267.528C327.814 268.056 327.678 268.672 327.678 269.376V276H325.494ZM342.949 276.216C342.149 276.216 341.421 276.056 340.765 275.736C340.125 275.416 339.621 274.984 339.253 274.44C338.901 273.896 338.725 273.288 338.725 272.616C338.725 271.752 338.941 271.072 339.373 270.576C339.805 270.08 340.533 269.728 341.557 269.52C342.581 269.296 343.957 269.184 345.685 269.184H346.813V270.576H345.733C344.805 270.576 344.029 270.608 343.405 270.672C342.781 270.736 342.285 270.84 341.917 270.984C341.549 271.128 341.285 271.328 341.125 271.584C340.965 271.824 340.885 272.128 340.885 272.496C340.885 273.12 341.101 273.632 341.533 274.032C341.981 274.432 342.589 274.632 343.357 274.632C343.965 274.632 344.501 274.488 344.965 274.2C345.429 273.896 345.797 273.496 346.069 273C346.341 272.488 346.477 271.904 346.477 271.248V268.488C346.477 267.544 346.285 266.864 345.901 266.448C345.517 266.016 344.869 265.8 343.957 265.8C343.285 265.8 342.613 265.904 341.941 266.112C341.285 266.32 340.605 266.64 339.901 267.072L339.205 265.512C339.621 265.224 340.093 264.976 340.621 264.768C341.165 264.544 341.725 264.376 342.301 264.264C342.893 264.152 343.461 264.096 344.005 264.096C345.045 264.096 345.901 264.264 346.573 264.6C347.245 264.92 347.749 265.424 348.085 266.112C348.421 266.784 348.589 267.648 348.589 268.704V276H346.525V273.336H346.741C346.613 273.928 346.373 274.44 346.021 274.872C345.669 275.304 345.229 275.64 344.701 275.88C344.189 276.104 343.605 276.216 342.949 276.216ZM356.873 276.216C355.449 276.216 354.385 275.848 353.681 275.112C352.977 274.36 352.625 273.288 352.625 271.896V265.992H350.345V264.312H352.625V260.76H354.809V264.312H358.481V265.992H354.809V271.704C354.809 272.584 354.993 273.248 355.361 273.696C355.729 274.144 356.337 274.368 357.185 274.368C357.441 274.368 357.689 274.344 357.929 274.296C358.185 274.232 358.425 274.168 358.649 274.104L359.009 275.736C358.785 275.88 358.465 275.992 358.049 276.072C357.649 276.168 357.257 276.216 356.873 276.216ZM368.157 280.32L370.389 275.304V276.216L365.277 264.312H367.629L371.685 274.296H371.013L375.141 264.312H377.397L370.437 280.32H368.157ZM384.04 276.216C382.888 276.216 381.888 275.968 381.04 275.472C380.192 274.976 379.536 274.272 379.072 273.36C378.608 272.448 378.376 271.376 378.376 270.144C378.376 268.912 378.608 267.848 379.072 266.952C379.536 266.04 380.192 265.336 381.04 264.84C381.888 264.344 382.888 264.096 384.04 264.096C385.192 264.096 386.192 264.344 387.04 264.84C387.888 265.336 388.544 266.04 389.008 266.952C389.472 267.848 389.704 268.912 389.704 270.144C389.704 271.376 389.472 272.448 389.008 273.36C388.544 274.272 387.888 274.976 387.04 275.472C386.192 275.968 385.192 276.216 384.04 276.216ZM384.04 274.488C385.096 274.488 385.936 274.12 386.56 273.384C387.184 272.632 387.496 271.552 387.496 270.144C387.496 268.736 387.184 267.664 386.56 266.928C385.936 266.192 385.096 265.824 384.04 265.824C383 265.824 382.16 266.192 381.52 266.928C380.896 267.664 380.584 268.736 380.584 270.144C380.584 271.552 380.896 272.632 381.52 273.384C382.16 274.12 383 274.488 384.04 274.488ZM396.678 276.216C395.734 276.216 394.942 276.04 394.302 275.688C393.678 275.336 393.214 274.816 392.91 274.128C392.606 273.44 392.454 272.576 392.454 271.536V264.312H394.638V271.536C394.638 272.192 394.726 272.736 394.902 273.168C395.078 273.6 395.35 273.92 395.718 274.128C396.102 274.336 396.582 274.44 397.158 274.44C397.798 274.44 398.358 274.296 398.838 274.008C399.318 273.72 399.694 273.312 399.966 272.784C400.238 272.256 400.374 271.64 400.374 270.936V264.312H402.558V276H400.422V273.36H400.734C400.414 274.288 399.894 275 399.174 275.496C398.47 275.976 397.638 276.216 396.678 276.216ZM124.896 312L120.504 300.312H122.76L126.264 310.248H125.688L129.312 300.312H131.064L134.616 310.248H134.064L137.616 300.312H139.752L135.36 312H133.32L129.576 301.776H130.68L126.936 312H124.896ZM145.488 312.216C144.688 312.216 143.96 312.056 143.304 311.736C142.664 311.416 142.16 310.984 141.792 310.44C141.44 309.896 141.264 309.288 141.264 308.616C141.264 307.752 141.48 307.072 141.912 306.576C142.344 306.08 143.072 305.728 144.096 305.52C145.12 305.296 146.496 305.184 148.224 305.184H149.352V306.576H148.272C147.344 306.576 146.568 306.608 145.944 306.672C145.32 306.736 144.824 306.84 144.456 306.984C144.088 307.128 143.824 307.328 143.664 307.584C143.504 307.824 143.424 308.128 143.424 308.496C143.424 309.12 143.64 309.632 144.072 310.032C144.52 310.432 145.128 310.632 145.896 310.632C146.504 310.632 147.04 310.488 147.504 310.2C147.968 309.896 148.336 309.496 148.608 309C148.88 308.488 149.016 307.904 149.016 307.248V304.488C149.016 303.544 148.824 302.864 148.44 302.448C148.056 302.016 147.408 301.8 146.496 301.8C145.824 301.8 145.152 301.904 144.48 302.112C143.824 302.32 143.144 302.64 142.44 303.072L141.744 301.512C142.16 301.224 142.632 300.976 143.16 300.768C143.704 300.544 144.264 300.376 144.84 300.264C145.432 300.152 146 300.096 146.544 300.096C147.584 300.096 148.44 300.264 149.112 300.6C149.784 300.92 150.288 301.424 150.624 302.112C150.96 302.784 151.128 303.648 151.128 304.704V312H149.064V309.336H149.28C149.152 309.928 148.912 310.44 148.56 310.872C148.208 311.304 147.768 311.64 147.24 311.88C146.728 312.104 146.144 312.216 145.488 312.216ZM154.565 312V300.312H156.701V302.856H156.437C156.773 301.944 157.317 301.256 158.069 300.792C158.837 300.328 159.709 300.096 160.685 300.096C161.629 300.096 162.405 300.264 163.013 300.6C163.621 300.936 164.077 301.456 164.381 302.16C164.685 302.848 164.837 303.712 164.837 304.752V312H162.653V304.872C162.653 304.184 162.565 303.616 162.389 303.168C162.213 302.72 161.933 302.392 161.549 302.184C161.181 301.976 160.709 301.872 160.133 301.872C159.461 301.872 158.869 302.016 158.357 302.304C157.845 302.592 157.445 303 157.157 303.528C156.885 304.056 156.749 304.672 156.749 305.376V312H154.565ZM173.147 312.216C171.723 312.216 170.659 311.848 169.955 311.112C169.251 310.36 168.899 309.288 168.899 307.896V301.992H166.619V300.312H168.899V296.76H171.083V300.312H174.755V301.992H171.083V307.704C171.083 308.584 171.267 309.248 171.635 309.696C172.003 310.144 172.611 310.368 173.459 310.368C173.715 310.368 173.963 310.344 174.203 310.296C174.459 310.232 174.699 310.168 174.923 310.104L175.283 311.736C175.059 311.88 174.739 311.992 174.323 312.072C173.923 312.168 173.531 312.216 173.147 312.216ZM187.983 312.216C186.559 312.216 185.495 311.848 184.791 311.112C184.087 310.36 183.735 309.288 183.735 307.896V301.992H181.455V300.312H183.735V296.76H185.919V300.312H189.591V301.992H185.919V307.704C185.919 308.584 186.103 309.248 186.471 309.696C186.839 310.144 187.447 310.368 188.295 310.368C188.551 310.368 188.799 310.344 189.039 310.296C189.295 310.232 189.535 310.168 189.759 310.104L190.119 311.736C189.895 311.88 189.575 311.992 189.159 312.072C188.759 312.168 188.367 312.216 187.983 312.216ZM196.587 312.216C195.435 312.216 194.435 311.968 193.587 311.472C192.739 310.976 192.083 310.272 191.619 309.36C191.155 308.448 190.923 307.376 190.923 306.144C190.923 304.912 191.155 303.848 191.619 302.952C192.083 302.04 192.739 301.336 193.587 300.84C194.435 300.344 195.435 300.096 196.587 300.096C197.739 300.096 198.739 300.344 199.587 300.84C200.435 301.336 201.091 302.04 201.555 302.952C202.019 303.848 202.251 304.912 202.251 306.144C202.251 307.376 202.019 308.448 201.555 309.36C201.091 310.272 200.435 310.976 199.587 311.472C198.739 311.968 197.739 312.216 196.587 312.216ZM196.587 310.488C197.643 310.488 198.483 310.12 199.107 309.384C199.731 308.632 200.043 307.552 200.043 306.144C200.043 304.736 199.731 303.664 199.107 302.928C198.483 302.192 197.643 301.824 196.587 301.824C195.547 301.824 194.707 302.192 194.067 302.928C193.443 303.664 193.131 304.736 193.131 306.144C193.131 307.552 193.443 308.632 194.067 309.384C194.707 310.12 195.547 310.488 196.587 310.488ZM216.347 312.216C215.163 312.216 214.139 311.968 213.275 311.472C212.411 310.96 211.747 310.248 211.283 309.336C210.819 308.408 210.587 307.32 210.587 306.072C210.587 304.84 210.819 303.776 211.283 302.88C211.747 301.984 212.411 301.296 213.275 300.816C214.139 300.336 215.163 300.096 216.347 300.096C217.083 300.096 217.803 300.224 218.507 300.48C219.227 300.736 219.819 301.096 220.283 301.56L219.563 303.096C219.099 302.68 218.595 302.368 218.051 302.16C217.507 301.952 216.987 301.848 216.491 301.848C215.323 301.848 214.419 302.216 213.779 302.952C213.139 303.688 212.819 304.736 212.819 306.096C212.819 307.456 213.139 308.528 213.779 309.312C214.419 310.08 215.323 310.464 216.491 310.464C216.987 310.464 217.507 310.36 218.051 310.152C218.595 309.944 219.099 309.624 219.563 309.192L220.283 310.752C219.819 311.216 219.219 311.576 218.483 311.832C217.763 312.088 217.051 312.216 216.347 312.216ZM222.44 312V295.08H224.624V302.856H224.312C224.648 301.944 225.192 301.256 225.944 300.792C226.712 300.328 227.584 300.096 228.56 300.096C229.504 300.096 230.28 300.272 230.888 300.624C231.496 300.96 231.952 301.472 232.256 302.16C232.56 302.848 232.712 303.712 232.712 304.752V312H230.528V304.872C230.528 304.184 230.44 303.616 230.264 303.168C230.088 302.72 229.808 302.392 229.424 302.184C229.056 301.976 228.584 301.872 228.008 301.872C227.336 301.872 226.744 302.016 226.232 302.304C225.72 302.592 225.32 303 225.032 303.528C224.76 304.056 224.624 304.672 224.624 305.376V312H222.44ZM239.894 312.216C239.094 312.216 238.366 312.056 237.71 311.736C237.07 311.416 236.566 310.984 236.198 310.44C235.846 309.896 235.67 309.288 235.67 308.616C235.67 307.752 235.886 307.072 236.318 306.576C236.75 306.08 237.478 305.728 238.502 305.52C239.526 305.296 240.902 305.184 242.63 305.184H243.758V306.576H242.678C241.75 306.576 240.974 306.608 240.35 306.672C239.726 306.736 239.23 306.84 238.862 306.984C238.494 307.128 238.23 307.328 238.07 307.584C237.91 307.824 237.83 308.128 237.83 308.496C237.83 309.12 238.046 309.632 238.478 310.032C238.926 310.432 239.534 310.632 240.302 310.632C240.91 310.632 241.446 310.488 241.91 310.2C242.374 309.896 242.742 309.496 243.014 309C243.286 308.488 243.422 307.904 243.422 307.248V304.488C243.422 303.544 243.23 302.864 242.846 302.448C242.462 302.016 241.814 301.8 240.902 301.8C240.23 301.8 239.558 301.904 238.886 302.112C238.23 302.32 237.55 302.64 236.846 303.072L236.15 301.512C236.566 301.224 237.038 300.976 237.566 300.768C238.11 300.544 238.67 300.376 239.246 300.264C239.838 300.152 240.406 300.096 240.95 300.096C241.99 300.096 242.846 300.264 243.518 300.6C244.19 300.92 244.694 301.424 245.03 302.112C245.366 302.784 245.534 303.648 245.534 304.704V312H243.47V309.336H243.686C243.558 309.928 243.318 310.44 242.966 310.872C242.614 311.304 242.174 311.64 241.646 311.88C241.134 312.104 240.55 312.216 239.894 312.216ZM248.971 312V300.312H251.107V302.856H250.843C251.179 301.944 251.723 301.256 252.475 300.792C253.243 300.328 254.115 300.096 255.091 300.096C256.035 300.096 256.811 300.264 257.419 300.6C258.027 300.936 258.483 301.456 258.787 302.16C259.091 302.848 259.243 303.712 259.243 304.752V312H257.059V304.872C257.059 304.184 256.971 303.616 256.795 303.168C256.619 302.72 256.339 302.392 255.955 302.184C255.587 301.976 255.115 301.872 254.539 301.872C253.867 301.872 253.275 302.016 252.763 302.304C252.251 302.592 251.851 303 251.563 303.528C251.291 304.056 251.155 304.672 251.155 305.376V312H248.971ZM267.961 316.536C266.921 316.536 265.953 316.408 265.057 316.152C264.161 315.896 263.361 315.504 262.657 314.976L263.353 313.392C263.833 313.712 264.305 313.976 264.769 314.184C265.249 314.408 265.737 314.568 266.233 314.664C266.745 314.76 267.273 314.808 267.817 314.808C268.953 314.808 269.801 314.512 270.361 313.92C270.937 313.344 271.225 312.496 271.225 311.376V308.784H271.441C271.217 309.68 270.713 310.392 269.929 310.92C269.161 311.448 268.265 311.712 267.241 311.712C266.185 311.712 265.265 311.472 264.481 310.992C263.697 310.496 263.089 309.816 262.657 308.952C262.225 308.072 262.009 307.056 262.009 305.904C262.009 304.736 262.225 303.72 262.657 302.856C263.089 301.976 263.697 301.296 264.481 300.816C265.265 300.336 266.185 300.096 267.241 300.096C268.281 300.096 269.185 300.36 269.953 300.888C270.721 301.416 271.217 302.128 271.441 303.024H271.225V300.312H273.361V311.088C273.361 312.288 273.153 313.296 272.737 314.112C272.337 314.928 271.737 315.536 270.937 315.936C270.137 316.336 269.145 316.536 267.961 316.536ZM267.721 309.984C268.793 309.984 269.641 309.616 270.265 308.88C270.889 308.144 271.201 307.152 271.201 305.904C271.201 304.64 270.889 303.648 270.265 302.928C269.641 302.192 268.793 301.824 267.721 301.824C266.649 301.824 265.793 302.192 265.153 302.928C264.529 303.648 264.217 304.64 264.217 305.904C264.217 307.152 264.529 308.144 265.153 308.88C265.793 309.616 266.649 309.984 267.721 309.984ZM282.261 312.216C280.997 312.216 279.909 311.976 278.997 311.496C278.101 311 277.405 310.304 276.909 309.408C276.413 308.496 276.165 307.424 276.165 306.192C276.165 304.976 276.405 303.912 276.885 303C277.381 302.088 278.053 301.376 278.901 300.864C279.765 300.352 280.749 300.096 281.853 300.096C282.925 300.096 283.837 300.328 284.589 300.792C285.357 301.256 285.941 301.92 286.341 302.784C286.757 303.632 286.965 304.656 286.965 305.856V306.648H277.869V305.256H285.525L285.117 305.592C285.117 304.344 284.845 303.384 284.301 302.712C283.757 302.024 282.957 301.68 281.901 301.68C281.133 301.68 280.477 301.864 279.933 302.232C279.389 302.584 278.973 303.088 278.685 303.744C278.397 304.384 278.253 305.128 278.253 305.976V306.12C278.253 307.08 278.405 307.888 278.709 308.544C279.029 309.184 279.485 309.672 280.077 310.008C280.669 310.328 281.397 310.488 282.261 310.488C282.949 310.488 283.613 310.384 284.253 310.176C284.909 309.952 285.525 309.608 286.101 309.144L286.773 310.656C286.245 311.136 285.565 311.52 284.733 311.808C283.917 312.08 283.093 312.216 282.261 312.216Z" fill="white"/>
<rect y="410" width="500" height="500" rx="250" fill="#920751"/>
<path d="M122.56 625V596.8H134.24C137.493 596.8 140.267 597.36 142.56 598.48C144.853 599.573 146.6 601.173 147.8 603.28C149.027 605.36 149.64 607.893 149.64 610.88C149.64 613.867 149.027 616.413 147.8 618.52C146.6 620.627 144.853 622.24 142.56 623.36C140.267 624.453 137.493 625 134.24 625H122.56ZM129.92 619.04H133.76C136.56 619.04 138.627 618.373 139.96 617.04C141.32 615.68 142 613.627 142 610.88C142 608.107 141.32 606.067 139.96 604.76C138.6 603.427 136.533 602.76 133.76 602.76H129.92V619.04ZM154.005 625V596.8H167.565C170.765 596.8 173.232 597.587 174.965 599.16C176.725 600.707 177.605 602.867 177.605 605.64C177.605 607.427 177.205 608.987 176.405 610.32C175.632 611.627 174.499 612.64 173.005 613.36C171.539 614.053 169.725 614.4 167.565 614.4L167.885 613.68H169.805C170.952 613.68 171.965 613.96 172.845 614.52C173.725 615.053 174.459 615.88 175.045 617L179.445 625H171.365L166.485 616.04C166.272 615.64 166.019 615.333 165.725 615.12C165.432 614.907 165.099 614.747 164.725 614.64C164.379 614.533 163.992 614.48 163.565 614.48H161.365V625H154.005ZM161.365 609.28H166.245C167.659 609.28 168.739 609 169.485 608.44C170.232 607.88 170.605 607.013 170.605 605.84C170.605 604.72 170.232 603.88 169.485 603.32C168.739 602.733 167.659 602.44 166.245 602.44H161.365V609.28ZM182.248 625V596.8H202.168V602.48H189.288V607.84H201.248V613.52H189.288V619.32H202.168V625H182.248ZM202.988 625L216.188 596.8H221.988L235.188 625H227.828L224.508 617.24L227.308 619.28H210.828L213.668 617.24L210.348 625H202.988ZM219.028 604.48L214.388 615.56L213.268 613.64H224.908L223.788 615.56L219.108 604.48H219.028ZM236.976 625V596.8H243.096L252.816 614.2H251.416L261.096 596.8H267.056V625H260.416V608.24H261.256L253.976 620.84H249.976L242.696 608.2H243.616V625H236.976Z" fill="white"/>
<path d="M121.968 687V670.344H124.224V687H121.968ZM123.504 687V684.936H133.056V687H123.504ZM123.504 679.464V677.496H132.264V679.464H123.504ZM123.504 672.408V670.344H132.936V672.408H123.504ZM143.804 687V680.352C143.804 679.488 143.532 678.776 142.988 678.216C142.444 677.656 141.74 677.376 140.876 677.376C140.3 677.376 139.788 677.504 139.34 677.76C138.892 678.016 138.54 678.368 138.284 678.816C138.028 679.264 137.9 679.776 137.9 680.352L137.012 679.848C137.012 678.984 137.204 678.216 137.588 677.544C137.972 676.872 138.508 676.344 139.196 675.96C139.884 675.56 140.66 675.36 141.524 675.36C142.388 675.36 143.148 675.576 143.804 676.008C144.476 676.44 145.004 677.008 145.388 677.712C145.772 678.4 145.964 679.136 145.964 679.92V687H143.804ZM135.74 687V675.6H137.9V687H135.74ZM152.801 687L147.569 675.6H149.969L154.169 685.224H152.777L157.001 675.6H159.305L154.073 687H152.801ZM161.171 687V675.6H163.331V687H161.171ZM162.251 673.32C161.851 673.32 161.523 673.192 161.267 672.936C161.011 672.664 160.883 672.328 160.883 671.928C160.883 671.544 161.011 671.224 161.267 670.968C161.523 670.696 161.851 670.56 162.251 670.56C162.651 670.56 162.979 670.696 163.235 670.968C163.491 671.224 163.619 671.544 163.619 671.928C163.619 672.328 163.491 672.664 163.235 672.936C162.979 673.192 162.651 673.32 162.251 673.32ZM170.138 687.24C169.498 687.24 168.89 687.16 168.314 687C167.754 686.824 167.234 686.584 166.754 686.28C166.274 685.96 165.858 685.584 165.506 685.152L166.898 683.76C167.314 684.272 167.794 684.656 168.338 684.912C168.882 685.152 169.49 685.272 170.162 685.272C170.834 685.272 171.354 685.16 171.722 684.936C172.09 684.696 172.274 684.368 172.274 683.952C172.274 683.536 172.122 683.216 171.818 682.992C171.53 682.752 171.154 682.56 170.69 682.416C170.226 682.256 169.73 682.104 169.202 681.96C168.69 681.8 168.202 681.6 167.738 681.36C167.274 681.12 166.89 680.792 166.586 680.376C166.298 679.96 166.154 679.408 166.154 678.72C166.154 678.032 166.322 677.44 166.658 676.944C166.994 676.432 167.458 676.04 168.05 675.768C168.658 675.496 169.386 675.36 170.234 675.36C171.13 675.36 171.922 675.52 172.61 675.84C173.314 676.144 173.89 676.608 174.338 677.232L172.946 678.624C172.626 678.208 172.226 677.888 171.746 677.664C171.282 677.44 170.754 677.328 170.162 677.328C169.538 677.328 169.058 677.44 168.722 677.664C168.402 677.872 168.242 678.168 168.242 678.552C168.242 678.936 168.386 679.232 168.674 679.44C168.962 679.648 169.338 679.824 169.802 679.968C170.282 680.112 170.778 680.264 171.29 680.424C171.802 680.568 172.29 680.768 172.754 681.024C173.218 681.28 173.594 681.624 173.882 682.056C174.186 682.488 174.338 683.056 174.338 683.76C174.338 684.832 173.954 685.68 173.186 686.304C172.434 686.928 171.418 687.24 170.138 687.24ZM176.78 687V675.6H178.94V687H176.78ZM177.86 673.32C177.46 673.32 177.132 673.192 176.876 672.936C176.62 672.664 176.492 672.328 176.492 671.928C176.492 671.544 176.62 671.224 176.876 670.968C177.132 670.696 177.46 670.56 177.86 670.56C178.26 670.56 178.588 670.696 178.844 670.968C179.1 671.224 179.228 671.544 179.228 671.928C179.228 672.328 179.1 672.664 178.844 672.936C178.588 673.192 178.26 673.32 177.86 673.32ZM187.331 687.24C186.211 687.24 185.203 686.976 184.307 686.448C183.411 685.92 182.699 685.208 182.171 684.312C181.643 683.4 181.379 682.384 181.379 681.264C181.379 680.16 181.643 679.168 182.171 678.288C182.699 677.392 183.411 676.68 184.307 676.152C185.203 675.624 186.211 675.36 187.331 675.36C188.435 675.36 189.435 675.624 190.331 676.152C191.243 676.664 191.963 677.368 192.491 678.264C193.019 679.16 193.283 680.16 193.283 681.264C193.283 682.384 193.019 683.4 192.491 684.312C191.963 685.208 191.243 685.92 190.331 686.448C189.435 686.976 188.435 687.24 187.331 687.24ZM187.331 685.152C188.051 685.152 188.691 684.984 189.251 684.648C189.811 684.312 190.251 683.856 190.571 683.28C190.891 682.688 191.051 682.016 191.051 681.264C191.051 680.528 190.883 679.872 190.547 679.296C190.227 678.72 189.787 678.272 189.227 677.952C188.683 677.616 188.051 677.448 187.331 677.448C186.611 677.448 185.971 677.616 185.411 677.952C184.851 678.272 184.411 678.72 184.091 679.296C183.771 679.872 183.611 680.528 183.611 681.264C183.611 682.016 183.771 682.688 184.091 683.28C184.411 683.856 184.851 684.312 185.411 684.648C185.971 684.984 186.611 685.152 187.331 685.152ZM203.781 687V680.352C203.781 679.488 203.509 678.776 202.965 678.216C202.421 677.656 201.717 677.376 200.853 677.376C200.277 677.376 199.765 677.504 199.317 677.76C198.869 678.016 198.517 678.368 198.261 678.816C198.005 679.264 197.877 679.776 197.877 680.352L196.989 679.848C196.989 678.984 197.181 678.216 197.565 677.544C197.949 676.872 198.485 676.344 199.173 675.96C199.861 675.56 200.637 675.36 201.501 675.36C202.365 675.36 203.125 675.576 203.781 676.008C204.453 676.44 204.981 677.008 205.365 677.712C205.749 678.4 205.941 679.136 205.941 679.92V687H203.781ZM195.717 687V675.6H197.877V687H195.717ZM208.889 687V675.6H211.049V687H208.889ZM209.969 673.32C209.569 673.32 209.241 673.192 208.985 672.936C208.729 672.664 208.601 672.328 208.601 671.928C208.601 671.544 208.729 671.224 208.985 670.968C209.241 670.696 209.569 670.56 209.969 670.56C210.369 670.56 210.697 670.696 210.953 670.968C211.209 671.224 211.337 671.544 211.337 671.928C211.337 672.328 211.209 672.664 210.953 672.936C210.697 673.192 210.369 673.32 209.969 673.32ZM222.296 687V680.352C222.296 679.488 222.024 678.776 221.48 678.216C220.936 677.656 220.232 677.376 219.368 677.376C218.792 677.376 218.28 677.504 217.832 677.76C217.384 678.016 217.032 678.368 216.776 678.816C216.52 679.264 216.392 679.776 216.392 680.352L215.504 679.848C215.504 678.984 215.696 678.216 216.08 677.544C216.464 676.872 217 676.344 217.688 675.96C218.376 675.56 219.152 675.36 220.016 675.36C220.88 675.36 221.64 675.576 222.296 676.008C222.968 676.44 223.496 677.008 223.88 677.712C224.264 678.4 224.456 679.136 224.456 679.92V687H222.296ZM214.232 687V675.6H216.392V687H214.232ZM232.109 692.016C230.941 692.016 229.901 691.8 228.989 691.368C228.093 690.936 227.373 690.328 226.829 689.544L228.221 688.128C228.685 688.72 229.237 689.168 229.877 689.472C230.517 689.792 231.277 689.952 232.157 689.952C233.325 689.952 234.245 689.64 234.917 689.016C235.605 688.408 235.949 687.584 235.949 686.544V683.712L236.333 681.144L235.949 678.6V675.6H238.109V686.544C238.109 687.632 237.853 688.584 237.341 689.4C236.845 690.216 236.141 690.856 235.229 691.32C234.333 691.784 233.293 692.016 232.109 692.016ZM232.109 686.808C231.069 686.808 230.133 686.56 229.301 686.064C228.485 685.568 227.837 684.888 227.357 684.024C226.877 683.144 226.637 682.16 226.637 681.072C226.637 679.984 226.877 679.016 227.357 678.168C227.837 677.304 228.485 676.624 229.301 676.128C230.133 675.616 231.069 675.36 232.109 675.36C233.005 675.36 233.797 675.536 234.485 675.888C235.173 676.24 235.717 676.736 236.117 677.376C236.533 678 236.757 678.736 236.789 679.584V682.608C236.741 683.44 236.509 684.176 236.093 684.816C235.693 685.44 235.149 685.928 234.461 686.28C233.773 686.632 232.989 686.808 232.109 686.808ZM232.541 684.768C233.245 684.768 233.861 684.616 234.389 684.312C234.933 684.008 235.349 683.584 235.637 683.04C235.925 682.48 236.069 681.832 236.069 681.096C236.069 680.36 235.917 679.72 235.613 679.176C235.325 678.616 234.917 678.184 234.389 677.88C233.861 677.56 233.237 677.4 232.517 677.4C231.797 677.4 231.165 677.56 230.621 677.88C230.077 678.184 229.645 678.616 229.325 679.176C229.021 679.72 228.869 680.352 228.869 681.072C228.869 681.792 229.021 682.432 229.325 682.992C229.645 683.552 230.077 683.992 230.621 684.312C231.181 684.616 231.821 684.768 232.541 684.768ZM249.536 687L245.024 675.6H247.28L250.544 684.48H249.824L253.064 675.6H254.312L257.552 684.48H256.832L260.096 675.6H262.352L257.864 687H256.592L253.304 678.384H254.096L250.784 687H249.536ZM268.791 687.24C267.751 687.24 266.807 686.984 265.959 686.472C265.111 685.944 264.439 685.232 263.943 684.336C263.463 683.44 263.223 682.432 263.223 681.312C263.223 680.192 263.463 679.184 263.943 678.288C264.439 677.392 265.103 676.68 265.935 676.152C266.783 675.624 267.735 675.36 268.791 675.36C269.655 675.36 270.423 675.544 271.095 675.912C271.783 676.264 272.335 676.76 272.751 677.4C273.167 678.024 273.399 678.752 273.447 679.584V683.016C273.399 683.832 273.167 684.56 272.751 685.2C272.351 685.84 271.807 686.344 271.119 686.712C270.447 687.064 269.671 687.24 268.791 687.24ZM269.151 685.2C270.223 685.2 271.087 684.84 271.743 684.12C272.399 683.384 272.727 682.448 272.727 681.312C272.727 680.528 272.575 679.848 272.271 679.272C271.983 678.68 271.567 678.224 271.023 677.904C270.479 677.568 269.847 677.4 269.127 677.4C268.407 677.4 267.767 677.568 267.207 677.904C266.663 678.24 266.231 678.704 265.911 679.296C265.607 679.872 265.455 680.536 265.455 681.288C265.455 682.056 265.607 682.736 265.911 683.328C266.231 683.904 266.671 684.36 267.231 684.696C267.791 685.032 268.431 685.2 269.151 685.2ZM272.583 687V683.928L272.991 681.144L272.583 678.384V675.6H274.767V687H272.583ZM281.656 687.096L276.712 675.6H279.112L282.784 684.6H282.016L285.88 675.6H288.28L282.952 687.096H281.656ZM278.392 691.776L281.752 684.888L282.952 687.096L280.792 691.776H278.392ZM293.442 687.24C292.802 687.24 292.194 687.16 291.618 687C291.058 686.824 290.538 686.584 290.058 686.28C289.578 685.96 289.162 685.584 288.81 685.152L290.202 683.76C290.618 684.272 291.098 684.656 291.642 684.912C292.186 685.152 292.794 685.272 293.466 685.272C294.138 685.272 294.658 685.16 295.026 684.936C295.394 684.696 295.578 684.368 295.578 683.952C295.578 683.536 295.426 683.216 295.122 682.992C294.834 682.752 294.458 682.56 293.994 682.416C293.53 682.256 293.034 682.104 292.506 681.96C291.994 681.8 291.506 681.6 291.042 681.36C290.578 681.12 290.194 680.792 289.89 680.376C289.602 679.96 289.458 679.408 289.458 678.72C289.458 678.032 289.626 677.44 289.962 676.944C290.298 676.432 290.762 676.04 291.354 675.768C291.962 675.496 292.69 675.36 293.538 675.36C294.434 675.36 295.226 675.52 295.914 675.84C296.618 676.144 297.194 676.608 297.642 677.232L296.25 678.624C295.93 678.208 295.53 677.888 295.05 677.664C294.586 677.44 294.058 677.328 293.466 677.328C292.842 677.328 292.362 677.44 292.026 677.664C291.706 677.872 291.546 678.168 291.546 678.552C291.546 678.936 291.69 679.232 291.978 679.44C292.266 679.648 292.642 679.824 293.106 679.968C293.586 680.112 294.082 680.264 294.594 680.424C295.106 680.568 295.594 680.768 296.058 681.024C296.522 681.28 296.898 681.624 297.186 682.056C297.49 682.488 297.642 683.056 297.642 683.76C297.642 684.832 297.258 685.68 296.49 686.304C295.738 686.928 294.722 687.24 293.442 687.24ZM308.797 687.096L303.853 675.6H306.253L309.925 684.6H309.157L313.021 675.6H315.421L310.093 687.096H308.797ZM305.533 691.776L308.893 684.888L310.093 687.096L307.933 691.776H305.533ZM321.956 687.24C320.836 687.24 319.828 686.976 318.932 686.448C318.036 685.92 317.324 685.208 316.796 684.312C316.268 683.4 316.004 682.384 316.004 681.264C316.004 680.16 316.268 679.168 316.796 678.288C317.324 677.392 318.036 676.68 318.932 676.152C319.828 675.624 320.836 675.36 321.956 675.36C323.06 675.36 324.06 675.624 324.956 676.152C325.868 676.664 326.588 677.368 327.116 678.264C327.644 679.16 327.908 680.16 327.908 681.264C327.908 682.384 327.644 683.4 327.116 684.312C326.588 685.208 325.868 685.92 324.956 686.448C324.06 686.976 323.06 687.24 321.956 687.24ZM321.956 685.152C322.676 685.152 323.316 684.984 323.876 684.648C324.436 684.312 324.876 683.856 325.196 683.28C325.516 682.688 325.676 682.016 325.676 681.264C325.676 680.528 325.508 679.872 325.172 679.296C324.852 678.72 324.412 678.272 323.852 677.952C323.308 677.616 322.676 677.448 321.956 677.448C321.236 677.448 320.596 677.616 320.036 677.952C319.476 678.272 319.036 678.72 318.716 679.296C318.396 679.872 318.236 680.528 318.236 681.264C318.236 682.016 318.396 682.688 318.716 683.28C319.036 683.856 319.476 684.312 320.036 684.648C320.596 684.984 321.236 685.152 321.956 685.152ZM334.926 687.24C333.998 687.24 333.158 687.032 332.406 686.616C331.67 686.184 331.094 685.592 330.678 684.84C330.262 684.088 330.054 683.216 330.054 682.224V675.6H332.214V682.128C332.214 682.752 332.318 683.296 332.526 683.76C332.75 684.208 333.07 684.552 333.486 684.792C333.902 685.032 334.39 685.152 334.95 685.152C335.798 685.152 336.462 684.888 336.942 684.36C337.422 683.816 337.662 683.072 337.662 682.128V675.6H339.822V682.224C339.822 683.216 339.614 684.088 339.198 684.84C338.782 685.592 338.206 686.184 337.47 686.616C336.75 687.032 335.902 687.24 334.926 687.24ZM352.917 687.24C351.797 687.24 350.781 686.976 349.869 686.448C348.973 685.92 348.261 685.208 347.733 684.312C347.221 683.4 346.965 682.392 346.965 681.288C346.965 680.168 347.221 679.16 347.733 678.264C348.261 677.368 348.973 676.664 349.869 676.152C350.781 675.624 351.797 675.36 352.917 675.36C353.797 675.36 354.613 675.528 355.365 675.864C356.117 676.184 356.765 676.656 357.309 677.28L355.869 678.72C355.517 678.304 355.085 677.992 354.573 677.784C354.077 677.56 353.525 677.448 352.917 677.448C352.197 677.448 351.557 677.616 350.997 677.952C350.437 678.272 349.997 678.72 349.677 679.296C349.357 679.872 349.197 680.536 349.197 681.288C349.197 682.04 349.357 682.704 349.677 683.28C349.997 683.856 350.437 684.312 350.997 684.648C351.557 684.984 352.197 685.152 352.917 685.152C353.525 685.152 354.077 685.048 354.573 684.84C355.085 684.616 355.525 684.296 355.893 683.88L357.309 685.32C356.781 685.928 356.133 686.4 355.365 686.736C354.613 687.072 353.797 687.24 352.917 687.24ZM364.425 687.24C363.305 687.24 362.297 686.976 361.401 686.448C360.505 685.92 359.793 685.208 359.265 684.312C358.737 683.4 358.473 682.384 358.473 681.264C358.473 680.16 358.737 679.168 359.265 678.288C359.793 677.392 360.505 676.68 361.401 676.152C362.297 675.624 363.305 675.36 364.425 675.36C365.529 675.36 366.529 675.624 367.425 676.152C368.337 676.664 369.057 677.368 369.585 678.264C370.113 679.16 370.377 680.16 370.377 681.264C370.377 682.384 370.113 683.4 369.585 684.312C369.057 685.208 368.337 685.92 367.425 686.448C366.529 686.976 365.529 687.24 364.425 687.24ZM364.425 685.152C365.145 685.152 365.785 684.984 366.345 684.648C366.905 684.312 367.345 683.856 367.665 683.28C367.985 682.688 368.145 682.016 368.145 681.264C368.145 680.528 367.977 679.872 367.641 679.296C367.321 678.72 366.881 678.272 366.321 677.952C365.777 677.616 365.145 677.448 364.425 677.448C363.705 677.448 363.065 677.616 362.505 677.952C361.945 678.272 361.505 678.72 361.185 679.296C360.865 679.872 360.705 680.528 360.705 681.264C360.705 682.016 360.865 682.688 361.185 683.28C361.505 683.856 361.945 684.312 362.505 684.648C363.065 684.984 363.705 685.152 364.425 685.152ZM377.395 687.24C376.467 687.24 375.627 687.032 374.875 686.616C374.139 686.184 373.563 685.592 373.147 684.84C372.731 684.088 372.523 683.216 372.523 682.224V675.6H374.683V682.128C374.683 682.752 374.787 683.296 374.995 683.76C375.219 684.208 375.539 684.552 375.955 684.792C376.371 685.032 376.859 685.152 377.419 685.152C378.267 685.152 378.931 684.888 379.411 684.36C379.891 683.816 380.131 683.072 380.131 682.128V675.6H382.291V682.224C382.291 683.216 382.083 684.088 381.667 684.84C381.251 685.592 380.675 686.184 379.939 686.616C379.219 687.032 378.371 687.24 377.395 687.24ZM385.186 687V669.864H387.346V687H385.186ZM395.33 687.24C394.274 687.24 393.33 686.984 392.498 686.472C391.666 685.944 391.002 685.232 390.506 684.336C390.026 683.44 389.786 682.432 389.786 681.312C389.786 680.192 390.026 679.184 390.506 678.288C391.002 677.392 391.666 676.68 392.498 676.152C393.33 675.624 394.274 675.36 395.33 675.36C396.178 675.36 396.946 675.544 397.634 675.912C398.322 676.264 398.874 676.76 399.29 677.4C399.722 678.024 399.962 678.752 400.01 679.584V683.016C399.962 683.832 399.73 684.56 399.314 685.2C398.898 685.84 398.346 686.344 397.658 686.712C396.97 687.064 396.194 687.24 395.33 687.24ZM395.69 685.2C396.41 685.2 397.034 685.032 397.562 684.696C398.106 684.36 398.53 683.904 398.834 683.328C399.138 682.736 399.29 682.064 399.29 681.312C399.29 680.528 399.13 679.848 398.81 679.272C398.506 678.696 398.082 678.24 397.538 677.904C397.01 677.568 396.386 677.4 395.666 677.4C394.946 677.4 394.314 677.568 393.77 677.904C393.226 678.24 392.794 678.704 392.474 679.296C392.17 679.872 392.018 680.536 392.018 681.288C392.018 682.056 392.17 682.736 392.474 683.328C392.794 683.904 393.226 684.36 393.77 684.696C394.33 685.032 394.97 685.2 395.69 685.2ZM401.33 687H399.146V683.928L399.554 681.144L399.146 678.384V669.864H401.33V687ZM121.584 723V711.6H123.744V723H121.584ZM123.744 716.496L122.928 716.136C122.928 714.68 123.264 713.52 123.936 712.656C124.608 711.792 125.576 711.36 126.84 711.36C127.416 711.36 127.936 711.464 128.4 711.672C128.864 711.864 129.296 712.192 129.696 712.656L128.28 714.12C128.04 713.864 127.776 713.68 127.488 713.568C127.2 713.456 126.864 713.4 126.48 713.4C125.68 713.4 125.024 713.656 124.512 714.168C124 714.68 123.744 715.456 123.744 716.496ZM136.122 723.24C134.986 723.24 133.962 722.984 133.05 722.472C132.138 721.944 131.418 721.232 130.89 720.336C130.362 719.44 130.098 718.424 130.098 717.288C130.098 716.168 130.354 715.16 130.866 714.264C131.394 713.368 132.098 712.664 132.978 712.152C133.874 711.624 134.874 711.36 135.978 711.36C137.034 711.36 137.962 711.6 138.762 712.08C139.578 712.56 140.21 713.224 140.658 714.072C141.122 714.92 141.354 715.88 141.354 716.952C141.354 717.112 141.346 717.288 141.33 717.48C141.314 717.656 141.282 717.864 141.234 718.104H131.61V716.304H140.082L139.29 717C139.29 716.232 139.154 715.584 138.882 715.056C138.61 714.512 138.226 714.096 137.73 713.808C137.234 713.504 136.634 713.352 135.93 713.352C135.194 713.352 134.546 713.512 133.986 713.832C133.426 714.152 132.994 714.6 132.69 715.176C132.386 715.752 132.234 716.432 132.234 717.216C132.234 718.016 132.394 718.72 132.714 719.328C133.034 719.92 133.49 720.384 134.082 720.72C134.674 721.04 135.354 721.2 136.122 721.2C136.762 721.2 137.346 721.088 137.874 720.864C138.418 720.64 138.882 720.304 139.266 719.856L140.658 721.272C140.114 721.912 139.442 722.4 138.642 722.736C137.858 723.072 137.018 723.24 136.122 723.24ZM143.733 723V711.6H145.893V723H143.733ZM144.813 709.32C144.413 709.32 144.085 709.192 143.829 708.936C143.573 708.664 143.445 708.328 143.445 707.928C143.445 707.544 143.573 707.224 143.829 706.968C144.085 706.696 144.413 706.56 144.813 706.56C145.213 706.56 145.541 706.696 145.797 706.968C146.053 707.224 146.181 707.544 146.181 707.928C146.181 708.328 146.053 708.664 145.797 708.936C145.541 709.192 145.213 709.32 144.813 709.32ZM157.14 723V716.352C157.14 715.488 156.868 714.776 156.324 714.216C155.78 713.656 155.076 713.376 154.212 713.376C153.636 713.376 153.124 713.504 152.676 713.76C152.228 714.016 151.876 714.368 151.62 714.816C151.364 715.264 151.236 715.776 151.236 716.352L150.348 715.848C150.348 714.984 150.54 714.216 150.924 713.544C151.308 712.872 151.844 712.344 152.532 711.96C153.22 711.56 153.996 711.36 154.86 711.36C155.724 711.36 156.484 711.576 157.14 712.008C157.812 712.44 158.34 713.008 158.724 713.712C159.108 714.4 159.3 715.136 159.3 715.92V723H157.14ZM149.076 723V711.6H151.236V723H149.076ZM166.137 723L160.905 711.6H163.305L167.505 721.224H166.113L170.337 711.6H172.641L167.409 723H166.137ZM179.317 723.24C178.181 723.24 177.157 722.984 176.245 722.472C175.333 721.944 174.613 721.232 174.085 720.336C173.557 719.44 173.293 718.424 173.293 717.288C173.293 716.168 173.549 715.16 174.061 714.264C174.589 713.368 175.293 712.664 176.173 712.152C177.069 711.624 178.069 711.36 179.173 711.36C180.229 711.36 181.157 711.6 181.957 712.08C182.773 712.56 183.405 713.224 183.853 714.072C184.317 714.92 184.549 715.88 184.549 716.952C184.549 717.112 184.541 717.288 184.525 717.48C184.509 717.656 184.477 717.864 184.429 718.104H174.805V716.304H183.277L182.485 717C182.485 716.232 182.349 715.584 182.077 715.056C181.805 714.512 181.421 714.096 180.925 713.808C180.429 713.504 179.829 713.352 179.125 713.352C178.389 713.352 177.741 713.512 177.181 713.832C176.621 714.152 176.189 714.6 175.885 715.176C175.581 715.752 175.429 716.432 175.429 717.216C175.429 718.016 175.589 718.72 175.909 719.328C176.229 719.92 176.685 720.384 177.277 720.72C177.869 721.04 178.549 721.2 179.317 721.2C179.957 721.2 180.541 721.088 181.069 720.864C181.613 720.64 182.077 720.304 182.461 719.856L183.853 721.272C183.309 721.912 182.637 722.4 181.837 722.736C181.053 723.072 180.213 723.24 179.317 723.24ZM194.968 723V716.352C194.968 715.488 194.696 714.776 194.152 714.216C193.608 713.656 192.904 713.376 192.04 713.376C191.464 713.376 190.952 713.504 190.504 713.76C190.056 714.016 189.704 714.368 189.448 714.816C189.192 715.264 189.064 715.776 189.064 716.352L188.176 715.848C188.176 714.984 188.368 714.216 188.752 713.544C189.136 712.872 189.672 712.344 190.36 711.96C191.048 711.56 191.824 711.36 192.688 711.36C193.552 711.36 194.312 711.576 194.968 712.008C195.64 712.44 196.168 713.008 196.552 713.712C196.936 714.4 197.128 715.136 197.128 715.92V723H194.968ZM186.904 723V711.6H189.064V723H186.904ZM201.664 723V706.824H203.824V723H201.664ZM198.856 713.568V711.6H206.632V713.568H198.856ZM217.484 723.096L212.54 711.6H214.94L218.612 720.6H217.844L221.708 711.6H224.108L218.78 723.096H217.484ZM214.22 727.776L217.58 720.888L218.78 723.096L216.62 727.776H214.22ZM230.644 723.24C229.524 723.24 228.516 722.976 227.62 722.448C226.724 721.92 226.012 721.208 225.484 720.312C224.956 719.4 224.692 718.384 224.692 717.264C224.692 716.16 224.956 715.168 225.484 714.288C226.012 713.392 226.724 712.68 227.62 712.152C228.516 711.624 229.524 711.36 230.644 711.36C231.748 711.36 232.748 711.624 233.644 712.152C234.556 712.664 235.276 713.368 235.804 714.264C236.332 715.16 236.596 716.16 236.596 717.264C236.596 718.384 236.332 719.4 235.804 720.312C235.276 721.208 234.556 721.92 233.644 722.448C232.748 722.976 231.748 723.24 230.644 723.24ZM230.644 721.152C231.364 721.152 232.004 720.984 232.564 720.648C233.124 720.312 233.564 719.856 233.884 719.28C234.204 718.688 234.364 718.016 234.364 717.264C234.364 716.528 234.196 715.872 233.86 715.296C233.54 714.72 233.1 714.272 232.54 713.952C231.996 713.616 231.364 713.448 230.644 713.448C229.924 713.448 229.284 713.616 228.724 713.952C228.164 714.272 227.724 714.72 227.404 715.296C227.084 715.872 226.924 716.528 226.924 717.264C226.924 718.016 227.084 718.688 227.404 719.28C227.724 719.856 228.164 720.312 228.724 720.648C229.284 720.984 229.924 721.152 230.644 721.152ZM243.613 723.24C242.685 723.24 241.845 723.032 241.093 722.616C240.357 722.184 239.781 721.592 239.365 720.84C238.949 720.088 238.741 719.216 238.741 718.224V711.6H240.901V718.128C240.901 718.752 241.005 719.296 241.213 719.76C241.437 720.208 241.757 720.552 242.173 720.792C242.589 721.032 243.077 721.152 243.637 721.152C244.485 721.152 245.149 720.888 245.629 720.36C246.109 719.816 246.349 719.072 246.349 718.128V711.6H248.509V718.224C248.509 719.216 248.301 720.088 247.885 720.84C247.469 721.592 246.893 722.184 246.157 722.616C245.437 723.032 244.589 723.24 243.613 723.24ZM251.404 723V711.6H253.564V723H251.404ZM253.564 716.496L252.748 716.136C252.748 714.68 253.084 713.52 253.756 712.656C254.428 711.792 255.396 711.36 256.66 711.36C257.236 711.36 257.756 711.464 258.22 711.672C258.684 711.864 259.116 712.192 259.516 712.656L258.1 714.12C257.86 713.864 257.596 713.68 257.308 713.568C257.02 713.456 256.684 713.4 256.3 713.4C255.5 713.4 254.844 713.656 254.332 714.168C253.82 714.68 253.564 715.456 253.564 716.496ZM266.451 723V705.864H268.611V723H266.451ZM271.796 723V711.6H273.956V723H271.796ZM272.876 709.32C272.476 709.32 272.148 709.192 271.892 708.936C271.636 708.664 271.508 708.328 271.508 707.928C271.508 707.544 271.636 707.224 271.892 706.968C272.148 706.696 272.476 706.56 272.876 706.56C273.276 706.56 273.604 706.696 273.86 706.968C274.116 707.224 274.244 707.544 274.244 707.928C274.244 708.328 274.116 708.664 273.86 708.936C273.604 709.192 273.276 709.32 272.876 709.32ZM278.771 723V709.896C278.771 709.048 278.955 708.312 279.323 707.688C279.691 707.048 280.195 706.544 280.835 706.176C281.491 705.808 282.251 705.624 283.115 705.624C283.771 705.624 284.339 705.736 284.819 705.96C285.299 706.184 285.739 706.512 286.139 706.944L284.723 708.336C284.515 708.112 284.283 707.944 284.027 707.832C283.771 707.704 283.459 707.64 283.091 707.64C282.403 707.64 281.867 707.84 281.483 708.24C281.115 708.64 280.931 709.192 280.931 709.896V723H278.771ZM275.963 713.568V711.6H284.555V713.568H275.963ZM291.348 723.24C290.212 723.24 289.188 722.984 288.276 722.472C287.364 721.944 286.644 721.232 286.116 720.336C285.588 719.44 285.324 718.424 285.324 717.288C285.324 716.168 285.58 715.16 286.092 714.264C286.62 713.368 287.324 712.664 288.204 712.152C289.1 711.624 290.1 711.36 291.204 711.36C292.26 711.36 293.188 711.6 293.988 712.08C294.804 712.56 295.436 713.224 295.884 714.072C296.348 714.92 296.58 715.88 296.58 716.952C296.58 717.112 296.572 717.288 296.556 717.48C296.54 717.656 296.508 717.864 296.46 718.104H286.836V716.304H295.308L294.516 717C294.516 716.232 294.38 715.584 294.108 715.056C293.836 714.512 293.452 714.096 292.956 713.808C292.46 713.504 291.86 713.352 291.156 713.352C290.42 713.352 289.772 713.512 289.212 713.832C288.652 714.152 288.22 714.6 287.916 715.176C287.612 715.752 287.46 716.432 287.46 717.216C287.46 718.016 287.62 718.72 287.94 719.328C288.26 719.92 288.716 720.384 289.308 720.72C289.9 721.04 290.58 721.2 291.348 721.2C291.988 721.2 292.572 721.088 293.1 720.864C293.644 720.64 294.108 720.304 294.492 719.856L295.884 721.272C295.34 721.912 294.668 722.4 293.868 722.736C293.084 723.072 292.244 723.24 291.348 723.24Z" fill="white"/>
<rect y="830" width="500" height="500" rx="250" fill="#920751"/>
<path d="M122.56 1027V998.8H134.24C137.493 998.8 140.267 999.36 142.56 1000.48C144.853 1001.57 146.6 1003.17 147.8 1005.28C149.027 1007.36 149.64 1009.89 149.64 1012.88C149.64 1015.87 149.027 1018.41 147.8 1020.52C146.6 1022.63 144.853 1024.24 142.56 1025.36C140.267 1026.45 137.493 1027 134.24 1027H122.56ZM129.92 1021.04H133.76C136.56 1021.04 138.627 1020.37 139.96 1019.04C141.32 1017.68 142 1015.63 142 1012.88C142 1010.11 141.32 1008.07 139.96 1006.76C138.6 1005.43 136.533 1004.76 133.76 1004.76H129.92V1021.04ZM167.605 1027.44C165.472 1027.44 163.525 1027.09 161.765 1026.4C160.005 1025.71 158.485 1024.72 157.205 1023.44C155.952 1022.13 154.979 1020.59 154.285 1018.8C153.619 1017.01 153.285 1015.04 153.285 1012.88C153.285 1010.69 153.619 1008.71 154.285 1006.92C154.979 1005.13 155.952 1003.6 157.205 1002.32C158.485 1001.04 160.005 1000.07 161.765 999.4C163.525 998.707 165.472 998.36 167.605 998.36C169.739 998.36 171.685 998.707 173.445 999.4C175.205 1000.07 176.712 1001.04 177.965 1002.32C179.245 1003.6 180.219 1005.13 180.885 1006.92C181.579 1008.68 181.925 1010.65 181.925 1012.84C181.925 1015.05 181.579 1017.05 180.885 1018.84C180.219 1020.63 179.245 1022.17 177.965 1023.48C176.712 1024.76 175.205 1025.75 173.445 1026.44C171.685 1027.11 169.739 1027.44 167.605 1027.44ZM167.605 1021.28C169.019 1021.28 170.219 1020.95 171.205 1020.28C172.192 1019.61 172.952 1018.65 173.485 1017.4C174.019 1016.15 174.285 1014.64 174.285 1012.88C174.285 1011.12 174.019 1009.61 173.485 1008.36C172.979 1007.11 172.219 1006.16 171.205 1005.52C170.219 1004.85 169.019 1004.52 167.605 1004.52C166.219 1004.52 165.019 1004.85 164.005 1005.52C163.019 1006.16 162.259 1007.11 161.725 1008.36C161.192 1009.61 160.925 1011.12 160.925 1012.88C160.925 1014.64 161.179 1016.15 161.685 1017.4C162.219 1018.65 162.992 1019.61 164.005 1020.28C165.019 1020.95 166.219 1021.28 167.605 1021.28Z" fill="white"/>
<path d="M121.968 1089V1072.34H124.224V1089H121.968ZM132.72 1089V1072.34H134.976V1089H132.72ZM123.504 1081.42V1079.35H133.272V1081.42H123.504ZM143.737 1089.24C142.617 1089.24 141.609 1088.98 140.713 1088.45C139.817 1087.92 139.105 1087.21 138.577 1086.31C138.049 1085.4 137.785 1084.38 137.785 1083.26C137.785 1082.16 138.049 1081.17 138.577 1080.29C139.105 1079.39 139.817 1078.68 140.713 1078.15C141.609 1077.62 142.617 1077.36 143.737 1077.36C144.841 1077.36 145.841 1077.62 146.737 1078.15C147.649 1078.66 148.369 1079.37 148.897 1080.26C149.425 1081.16 149.689 1082.16 149.689 1083.26C149.689 1084.38 149.425 1085.4 148.897 1086.31C148.369 1087.21 147.649 1087.92 146.737 1088.45C145.841 1088.98 144.841 1089.24 143.737 1089.24ZM143.737 1087.15C144.457 1087.15 145.097 1086.98 145.657 1086.65C146.217 1086.31 146.657 1085.86 146.977 1085.28C147.297 1084.69 147.457 1084.02 147.457 1083.26C147.457 1082.53 147.289 1081.87 146.953 1081.3C146.633 1080.72 146.193 1080.27 145.633 1079.95C145.089 1079.62 144.457 1079.45 143.737 1079.45C143.017 1079.45 142.377 1079.62 141.817 1079.95C141.257 1080.27 140.817 1080.72 140.497 1081.3C140.177 1081.87 140.017 1082.53 140.017 1083.26C140.017 1084.02 140.177 1084.69 140.497 1085.28C140.817 1085.86 141.257 1086.31 141.817 1086.65C142.377 1086.98 143.017 1087.15 143.737 1087.15ZM152.123 1089V1071.86H154.283V1089H152.123ZM162.267 1089.24C161.211 1089.24 160.267 1088.98 159.435 1088.47C158.603 1087.94 157.939 1087.23 157.443 1086.34C156.963 1085.44 156.723 1084.43 156.723 1083.31C156.723 1082.19 156.963 1081.18 157.443 1080.29C157.939 1079.39 158.603 1078.68 159.435 1078.15C160.267 1077.62 161.211 1077.36 162.267 1077.36C163.115 1077.36 163.883 1077.54 164.571 1077.91C165.259 1078.26 165.811 1078.76 166.227 1079.4C166.659 1080.02 166.899 1080.75 166.947 1081.58V1085.02C166.899 1085.83 166.667 1086.56 166.251 1087.2C165.835 1087.84 165.283 1088.34 164.595 1088.71C163.907 1089.06 163.131 1089.24 162.267 1089.24ZM162.627 1087.2C163.347 1087.2 163.971 1087.03 164.499 1086.7C165.043 1086.36 165.467 1085.9 165.771 1085.33C166.075 1084.74 166.227 1084.06 166.227 1083.31C166.227 1082.53 166.067 1081.85 165.747 1081.27C165.443 1080.7 165.019 1080.24 164.475 1079.9C163.947 1079.57 163.323 1079.4 162.603 1079.4C161.883 1079.4 161.251 1079.57 160.707 1079.9C160.163 1080.24 159.731 1080.7 159.411 1081.3C159.107 1081.87 158.955 1082.54 158.955 1083.29C158.955 1084.06 159.107 1084.74 159.411 1085.33C159.731 1085.9 160.163 1086.36 160.707 1086.7C161.267 1087.03 161.907 1087.2 162.627 1087.2ZM168.267 1089H166.083V1085.93L166.491 1083.14L166.083 1080.38V1071.86H168.267V1089ZM171.436 1089V1077.6H173.596V1089H171.436ZM172.516 1075.32C172.116 1075.32 171.788 1075.19 171.532 1074.94C171.276 1074.66 171.148 1074.33 171.148 1073.93C171.148 1073.54 171.276 1073.22 171.532 1072.97C171.788 1072.7 172.116 1072.56 172.516 1072.56C172.916 1072.56 173.244 1072.7 173.5 1072.97C173.756 1073.22 173.884 1073.54 173.884 1073.93C173.884 1074.33 173.756 1074.66 173.5 1074.94C173.244 1075.19 172.916 1075.32 172.516 1075.32ZM184.843 1089V1082.35C184.843 1081.49 184.571 1080.78 184.027 1080.22C183.483 1079.66 182.779 1079.38 181.915 1079.38C181.339 1079.38 180.827 1079.5 180.379 1079.76C179.931 1080.02 179.579 1080.37 179.323 1080.82C179.067 1081.26 178.939 1081.78 178.939 1082.35L178.051 1081.85C178.051 1080.98 178.243 1080.22 178.627 1079.54C179.011 1078.87 179.547 1078.34 180.235 1077.96C180.923 1077.56 181.699 1077.36 182.563 1077.36C183.427 1077.36 184.187 1077.58 184.843 1078.01C185.515 1078.44 186.043 1079.01 186.427 1079.71C186.811 1080.4 187.003 1081.14 187.003 1081.92V1089H184.843ZM176.779 1089V1077.6H178.939V1089H176.779ZM194.656 1094.02C193.488 1094.02 192.448 1093.8 191.536 1093.37C190.64 1092.94 189.92 1092.33 189.376 1091.54L190.768 1090.13C191.232 1090.72 191.784 1091.17 192.424 1091.47C193.064 1091.79 193.824 1091.95 194.704 1091.95C195.872 1091.95 196.792 1091.64 197.464 1091.02C198.152 1090.41 198.496 1089.58 198.496 1088.54V1085.71L198.88 1083.14L198.496 1080.6V1077.6H200.656V1088.54C200.656 1089.63 200.4 1090.58 199.888 1091.4C199.392 1092.22 198.688 1092.86 197.776 1093.32C196.88 1093.78 195.84 1094.02 194.656 1094.02ZM194.656 1088.81C193.616 1088.81 192.68 1088.56 191.848 1088.06C191.032 1087.57 190.384 1086.89 189.904 1086.02C189.424 1085.14 189.184 1084.16 189.184 1083.07C189.184 1081.98 189.424 1081.02 189.904 1080.17C190.384 1079.3 191.032 1078.62 191.848 1078.13C192.68 1077.62 193.616 1077.36 194.656 1077.36C195.552 1077.36 196.344 1077.54 197.032 1077.89C197.72 1078.24 198.264 1078.74 198.664 1079.38C199.08 1080 199.304 1080.74 199.336 1081.58V1084.61C199.288 1085.44 199.056 1086.18 198.64 1086.82C198.24 1087.44 197.696 1087.93 197.008 1088.28C196.32 1088.63 195.536 1088.81 194.656 1088.81ZM195.088 1086.77C195.792 1086.77 196.408 1086.62 196.936 1086.31C197.48 1086.01 197.896 1085.58 198.184 1085.04C198.472 1084.48 198.616 1083.83 198.616 1083.1C198.616 1082.36 198.464 1081.72 198.16 1081.18C197.872 1080.62 197.464 1080.18 196.936 1079.88C196.408 1079.56 195.784 1079.4 195.064 1079.4C194.344 1079.4 193.712 1079.56 193.168 1079.88C192.624 1080.18 192.192 1080.62 191.872 1081.18C191.568 1081.72 191.416 1082.35 191.416 1083.07C191.416 1083.79 191.568 1084.43 191.872 1084.99C192.192 1085.55 192.624 1085.99 193.168 1086.31C193.728 1086.62 194.368 1086.77 195.088 1086.77ZM212.562 1089.1L207.618 1077.6H210.018L213.69 1086.6H212.922L216.786 1077.6H219.186L213.858 1089.1H212.562ZM209.298 1093.78L212.658 1086.89L213.858 1089.1L211.698 1093.78H209.298ZM225.722 1089.24C224.602 1089.24 223.594 1088.98 222.698 1088.45C221.802 1087.92 221.09 1087.21 220.562 1086.31C220.034 1085.4 219.77 1084.38 219.77 1083.26C219.77 1082.16 220.034 1081.17 220.562 1080.29C221.09 1079.39 221.802 1078.68 222.698 1078.15C223.594 1077.62 224.602 1077.36 225.722 1077.36C226.826 1077.36 227.826 1077.62 228.722 1078.15C229.634 1078.66 230.354 1079.37 230.882 1080.26C231.41 1081.16 231.674 1082.16 231.674 1083.26C231.674 1084.38 231.41 1085.4 230.882 1086.31C230.354 1087.21 229.634 1087.92 228.722 1088.45C227.826 1088.98 226.826 1089.24 225.722 1089.24ZM225.722 1087.15C226.442 1087.15 227.082 1086.98 227.642 1086.65C228.202 1086.31 228.642 1085.86 228.962 1085.28C229.282 1084.69 229.442 1084.02 229.442 1083.26C229.442 1082.53 229.274 1081.87 228.938 1081.3C228.618 1080.72 228.178 1080.27 227.618 1079.95C227.074 1079.62 226.442 1079.45 225.722 1079.45C225.002 1079.45 224.362 1079.62 223.802 1079.95C223.242 1080.27 222.802 1080.72 222.482 1081.3C222.162 1081.87 222.002 1082.53 222.002 1083.26C222.002 1084.02 222.162 1084.69 222.482 1085.28C222.802 1085.86 223.242 1086.31 223.802 1086.65C224.362 1086.98 225.002 1087.15 225.722 1087.15ZM238.691 1089.24C237.763 1089.24 236.923 1089.03 236.171 1088.62C235.435 1088.18 234.859 1087.59 234.443 1086.84C234.027 1086.09 233.819 1085.22 233.819 1084.22V1077.6H235.979V1084.13C235.979 1084.75 236.083 1085.3 236.291 1085.76C236.515 1086.21 236.835 1086.55 237.251 1086.79C237.667 1087.03 238.155 1087.15 238.715 1087.15C239.563 1087.15 240.227 1086.89 240.707 1086.36C241.187 1085.82 241.427 1085.07 241.427 1084.13V1077.6H243.587V1084.22C243.587 1085.22 243.379 1086.09 242.963 1086.84C242.547 1087.59 241.971 1088.18 241.235 1088.62C240.515 1089.03 239.667 1089.24 238.691 1089.24ZM246.482 1089V1077.6H248.642V1089H246.482ZM248.642 1082.5L247.826 1082.14C247.826 1080.68 248.162 1079.52 248.834 1078.66C249.506 1077.79 250.474 1077.36 251.738 1077.36C252.314 1077.36 252.834 1077.46 253.298 1077.67C253.762 1077.86 254.194 1078.19 254.594 1078.66L253.178 1080.12C252.938 1079.86 252.674 1079.68 252.386 1079.57C252.098 1079.46 251.762 1079.4 251.378 1079.4C250.578 1079.4 249.922 1079.66 249.41 1080.17C248.898 1080.68 248.642 1081.46 248.642 1082.5ZM259.481 1089.24C258.841 1089.24 258.233 1089.16 257.657 1089C257.097 1088.82 256.577 1088.58 256.097 1088.28C255.617 1087.96 255.201 1087.58 254.849 1087.15L256.241 1085.76C256.657 1086.27 257.137 1086.66 257.681 1086.91C258.225 1087.15 258.833 1087.27 259.505 1087.27C260.177 1087.27 260.697 1087.16 261.065 1086.94C261.433 1086.7 261.617 1086.37 261.617 1085.95C261.617 1085.54 261.465 1085.22 261.161 1084.99C260.873 1084.75 260.497 1084.56 260.033 1084.42C259.569 1084.26 259.073 1084.1 258.545 1083.96C258.033 1083.8 257.545 1083.6 257.081 1083.36C256.617 1083.12 256.233 1082.79 255.929 1082.38C255.641 1081.96 255.497 1081.41 255.497 1080.72C255.497 1080.03 255.665 1079.44 256.001 1078.94C256.337 1078.43 256.801 1078.04 257.393 1077.77C258.001 1077.5 258.729 1077.36 259.577 1077.36C260.473 1077.36 261.265 1077.52 261.953 1077.84C262.657 1078.14 263.233 1078.61 263.681 1079.23L262.289 1080.62C261.969 1080.21 261.569 1079.89 261.089 1079.66C260.625 1079.44 260.097 1079.33 259.505 1079.33C258.881 1079.33 258.401 1079.44 258.065 1079.66C257.745 1079.87 257.585 1080.17 257.585 1080.55C257.585 1080.94 257.729 1081.23 258.017 1081.44C258.305 1081.65 258.681 1081.82 259.145 1081.97C259.625 1082.11 260.121 1082.26 260.633 1082.42C261.145 1082.57 261.633 1082.77 262.097 1083.02C262.561 1083.28 262.937 1083.62 263.225 1084.06C263.529 1084.49 263.681 1085.06 263.681 1085.76C263.681 1086.83 263.297 1087.68 262.529 1088.3C261.777 1088.93 260.761 1089.24 259.481 1089.24ZM271.38 1089.24C270.244 1089.24 269.22 1088.98 268.308 1088.47C267.396 1087.94 266.676 1087.23 266.148 1086.34C265.62 1085.44 265.356 1084.42 265.356 1083.29C265.356 1082.17 265.612 1081.16 266.124 1080.26C266.652 1079.37 267.356 1078.66 268.236 1078.15C269.132 1077.62 270.132 1077.36 271.236 1077.36C272.292 1077.36 273.22 1077.6 274.02 1078.08C274.836 1078.56 275.468 1079.22 275.916 1080.07C276.38 1080.92 276.612 1081.88 276.612 1082.95C276.612 1083.11 276.604 1083.29 276.588 1083.48C276.572 1083.66 276.54 1083.86 276.492 1084.1H266.868V1082.3H275.34L274.548 1083C274.548 1082.23 274.412 1081.58 274.14 1081.06C273.868 1080.51 273.484 1080.1 272.988 1079.81C272.492 1079.5 271.892 1079.35 271.188 1079.35C270.452 1079.35 269.804 1079.51 269.244 1079.83C268.684 1080.15 268.252 1080.6 267.948 1081.18C267.644 1081.75 267.492 1082.43 267.492 1083.22C267.492 1084.02 267.652 1084.72 267.972 1085.33C268.292 1085.92 268.748 1086.38 269.34 1086.72C269.932 1087.04 270.612 1087.2 271.38 1087.2C272.02 1087.2 272.604 1087.09 273.132 1086.86C273.676 1086.64 274.14 1086.3 274.524 1085.86L275.916 1087.27C275.372 1087.91 274.7 1088.4 273.9 1088.74C273.116 1089.07 272.276 1089.24 271.38 1089.24ZM278.967 1089V1071.86H281.127V1089H278.967ZM285.919 1089V1075.9C285.919 1075.05 286.103 1074.31 286.471 1073.69C286.839 1073.05 287.343 1072.54 287.983 1072.18C288.639 1071.81 289.399 1071.62 290.263 1071.62C290.919 1071.62 291.487 1071.74 291.967 1071.96C292.447 1072.18 292.887 1072.51 293.287 1072.94L291.871 1074.34C291.663 1074.11 291.431 1073.94 291.175 1073.83C290.919 1073.7 290.607 1073.64 290.239 1073.64C289.551 1073.64 289.015 1073.84 288.631 1074.24C288.263 1074.64 288.079 1075.19 288.079 1075.9V1089H285.919ZM283.111 1079.57V1077.6H291.703V1079.57H283.111ZM126.432 1125.24C125.392 1125.24 124.448 1124.98 123.6 1124.47C122.752 1123.94 122.08 1123.23 121.584 1122.34C121.104 1121.44 120.864 1120.43 120.864 1119.31C120.864 1118.19 121.104 1117.18 121.584 1116.29C122.08 1115.39 122.744 1114.68 123.576 1114.15C124.424 1113.62 125.376 1113.36 126.432 1113.36C127.296 1113.36 128.064 1113.54 128.736 1113.91C129.424 1114.26 129.976 1114.76 130.392 1115.4C130.808 1116.02 131.04 1116.75 131.088 1117.58V1121.02C131.04 1121.83 130.808 1122.56 130.392 1123.2C129.992 1123.84 129.448 1124.34 128.76 1124.71C128.088 1125.06 127.312 1125.24 126.432 1125.24ZM126.792 1123.2C127.864 1123.2 128.728 1122.84 129.384 1122.12C130.04 1121.38 130.368 1120.45 130.368 1119.31C130.368 1118.53 130.216 1117.85 129.912 1117.27C129.624 1116.68 129.208 1116.22 128.664 1115.9C128.12 1115.57 127.488 1115.4 126.768 1115.4C126.048 1115.4 125.408 1115.57 124.848 1115.9C124.304 1116.24 123.872 1116.7 123.552 1117.3C123.248 1117.87 123.096 1118.54 123.096 1119.29C123.096 1120.06 123.248 1120.74 123.552 1121.33C123.872 1121.9 124.312 1122.36 124.872 1122.7C125.432 1123.03 126.072 1123.2 126.792 1123.2ZM130.224 1125V1121.93L130.632 1119.14L130.224 1116.38V1113.6H132.408V1125H130.224ZM140.761 1125.24C139.641 1125.24 138.625 1124.98 137.713 1124.45C136.817 1123.92 136.105 1123.21 135.577 1122.31C135.065 1121.4 134.809 1120.39 134.809 1119.29C134.809 1118.17 135.065 1117.16 135.577 1116.26C136.105 1115.37 136.817 1114.66 137.713 1114.15C138.625 1113.62 139.641 1113.36 140.761 1113.36C141.641 1113.36 142.457 1113.53 143.209 1113.86C143.961 1114.18 144.609 1114.66 145.153 1115.28L143.713 1116.72C143.361 1116.3 142.929 1115.99 142.417 1115.78C141.921 1115.56 141.369 1115.45 140.761 1115.45C140.041 1115.45 139.401 1115.62 138.841 1115.95C138.281 1116.27 137.841 1116.72 137.521 1117.3C137.201 1117.87 137.041 1118.54 137.041 1119.29C137.041 1120.04 137.201 1120.7 137.521 1121.28C137.841 1121.86 138.281 1122.31 138.841 1122.65C139.401 1122.98 140.041 1123.15 140.761 1123.15C141.369 1123.15 141.921 1123.05 142.417 1122.84C142.929 1122.62 143.369 1122.3 143.737 1121.88L145.153 1123.32C144.625 1123.93 143.977 1124.4 143.209 1124.74C142.457 1125.07 141.641 1125.24 140.761 1125.24ZM152.269 1125.24C151.149 1125.24 150.133 1124.98 149.221 1124.45C148.325 1123.92 147.613 1123.21 147.085 1122.31C146.573 1121.4 146.317 1120.39 146.317 1119.29C146.317 1118.17 146.573 1117.16 147.085 1116.26C147.613 1115.37 148.325 1114.66 149.221 1114.15C150.133 1113.62 151.149 1113.36 152.269 1113.36C153.149 1113.36 153.965 1113.53 154.717 1113.86C155.469 1114.18 156.117 1114.66 156.661 1115.28L155.221 1116.72C154.869 1116.3 154.437 1115.99 153.925 1115.78C153.429 1115.56 152.877 1115.45 152.269 1115.45C151.549 1115.45 150.909 1115.62 150.349 1115.95C149.789 1116.27 149.349 1116.72 149.029 1117.3C148.709 1117.87 148.549 1118.54 148.549 1119.29C148.549 1120.04 148.709 1120.7 149.029 1121.28C149.349 1121.86 149.789 1122.31 150.349 1122.65C150.909 1122.98 151.549 1123.15 152.269 1123.15C152.877 1123.15 153.429 1123.05 153.925 1122.84C154.437 1122.62 154.877 1122.3 155.245 1121.88L156.661 1123.32C156.133 1123.93 155.485 1124.4 154.717 1124.74C153.965 1125.07 153.149 1125.24 152.269 1125.24ZM163.776 1125.24C162.656 1125.24 161.648 1124.98 160.752 1124.45C159.856 1123.92 159.144 1123.21 158.616 1122.31C158.088 1121.4 157.824 1120.38 157.824 1119.26C157.824 1118.16 158.088 1117.17 158.616 1116.29C159.144 1115.39 159.856 1114.68 160.752 1114.15C161.648 1113.62 162.656 1113.36 163.776 1113.36C164.88 1113.36 165.88 1113.62 166.776 1114.15C167.688 1114.66 168.408 1115.37 168.936 1116.26C169.464 1117.16 169.728 1118.16 169.728 1119.26C169.728 1120.38 169.464 1121.4 168.936 1122.31C168.408 1123.21 167.688 1123.92 166.776 1124.45C165.88 1124.98 164.88 1125.24 163.776 1125.24ZM163.776 1123.15C164.496 1123.15 165.136 1122.98 165.696 1122.65C166.256 1122.31 166.696 1121.86 167.016 1121.28C167.336 1120.69 167.496 1120.02 167.496 1119.26C167.496 1118.53 167.328 1117.87 166.992 1117.3C166.672 1116.72 166.232 1116.27 165.672 1115.95C165.128 1115.62 164.496 1115.45 163.776 1115.45C163.056 1115.45 162.416 1115.62 161.856 1115.95C161.296 1116.27 160.856 1116.72 160.536 1117.3C160.216 1117.87 160.056 1118.53 160.056 1119.26C160.056 1120.02 160.216 1120.69 160.536 1121.28C160.856 1121.86 161.296 1122.31 161.856 1122.65C162.416 1122.98 163.056 1123.15 163.776 1123.15ZM176.746 1125.24C175.818 1125.24 174.978 1125.03 174.226 1124.62C173.49 1124.18 172.914 1123.59 172.498 1122.84C172.082 1122.09 171.874 1121.22 171.874 1120.22V1113.6H174.034V1120.13C174.034 1120.75 174.138 1121.3 174.346 1121.76C174.57 1122.21 174.89 1122.55 175.306 1122.79C175.722 1123.03 176.21 1123.15 176.77 1123.15C177.618 1123.15 178.282 1122.89 178.762 1122.36C179.242 1121.82 179.482 1121.07 179.482 1120.13V1113.6H181.642V1120.22C181.642 1121.22 181.434 1122.09 181.018 1122.84C180.602 1123.59 180.026 1124.18 179.29 1124.62C178.57 1125.03 177.722 1125.24 176.746 1125.24ZM192.601 1125V1118.35C192.601 1117.49 192.329 1116.78 191.785 1116.22C191.241 1115.66 190.537 1115.38 189.673 1115.38C189.097 1115.38 188.585 1115.5 188.137 1115.76C187.689 1116.02 187.337 1116.37 187.081 1116.82C186.825 1117.26 186.697 1117.78 186.697 1118.35L185.809 1117.85C185.809 1116.98 186.001 1116.22 186.385 1115.54C186.769 1114.87 187.305 1114.34 187.993 1113.96C188.681 1113.56 189.457 1113.36 190.321 1113.36C191.185 1113.36 191.945 1113.58 192.601 1114.01C193.273 1114.44 193.801 1115.01 194.185 1115.71C194.569 1116.4 194.761 1117.14 194.761 1117.92V1125H192.601ZM184.537 1125V1113.6H186.697V1125H184.537ZM199.297 1125V1108.82H201.457V1125H199.297ZM196.489 1115.57V1113.6H204.265V1115.57H196.489ZM210.877 1125.24C209.837 1125.24 208.893 1124.98 208.045 1124.47C207.197 1123.94 206.525 1123.23 206.029 1122.34C205.549 1121.44 205.309 1120.43 205.309 1119.31C205.309 1118.19 205.549 1117.18 206.029 1116.29C206.525 1115.39 207.189 1114.68 208.021 1114.15C208.869 1113.62 209.821 1113.36 210.877 1113.36C211.741 1113.36 212.509 1113.54 213.181 1113.91C213.869 1114.26 214.421 1114.76 214.837 1115.4C215.253 1116.02 215.485 1116.75 215.533 1117.58V1121.02C215.485 1121.83 215.253 1122.56 214.837 1123.2C214.437 1123.84 213.893 1124.34 213.205 1124.71C212.533 1125.06 211.757 1125.24 210.877 1125.24ZM211.237 1123.2C212.309 1123.2 213.173 1122.84 213.829 1122.12C214.485 1121.38 214.813 1120.45 214.813 1119.31C214.813 1118.53 214.661 1117.85 214.357 1117.27C214.069 1116.68 213.653 1116.22 213.109 1115.9C212.565 1115.57 211.933 1115.4 211.213 1115.4C210.493 1115.4 209.853 1115.57 209.293 1115.9C208.749 1116.24 208.317 1116.7 207.997 1117.3C207.693 1117.87 207.541 1118.54 207.541 1119.29C207.541 1120.06 207.693 1120.74 207.997 1121.33C208.317 1121.9 208.757 1122.36 209.317 1122.7C209.877 1123.03 210.517 1123.2 211.237 1123.2ZM214.669 1125V1121.93L215.077 1119.14L214.669 1116.38V1113.6H216.853V1125H214.669ZM225.998 1125.24C225.134 1125.24 224.35 1125.06 223.646 1124.71C222.958 1124.34 222.406 1123.84 221.99 1123.2C221.574 1122.56 221.342 1121.83 221.294 1121.02V1117.58C221.342 1116.75 221.574 1116.02 221.99 1115.4C222.422 1114.76 222.982 1114.26 223.67 1113.91C224.374 1113.54 225.15 1113.36 225.998 1113.36C227.038 1113.36 227.974 1113.62 228.806 1114.15C229.654 1114.68 230.318 1115.39 230.798 1116.29C231.278 1117.18 231.518 1118.19 231.518 1119.31C231.518 1120.43 231.278 1121.44 230.798 1122.34C230.318 1123.23 229.654 1123.94 228.806 1124.47C227.974 1124.98 227.038 1125.24 225.998 1125.24ZM219.998 1125V1107.86H222.158V1116.38L221.75 1119.14L222.158 1121.93V1125H219.998ZM225.638 1123.2C226.358 1123.2 226.99 1123.03 227.534 1122.7C228.078 1122.36 228.51 1121.9 228.83 1121.33C229.15 1120.74 229.31 1120.06 229.31 1119.29C229.31 1118.54 229.15 1117.86 228.83 1117.27C228.51 1116.68 228.078 1116.22 227.534 1115.9C226.99 1115.57 226.366 1115.4 225.662 1115.4C224.942 1115.4 224.31 1115.57 223.766 1115.9C223.222 1116.22 222.798 1116.68 222.494 1117.27C222.19 1117.86 222.038 1118.54 222.038 1119.31C222.038 1120.06 222.182 1120.74 222.47 1121.33C222.774 1121.9 223.198 1122.36 223.742 1122.7C224.302 1123.03 224.934 1123.2 225.638 1123.2ZM233.967 1125V1107.86H236.127V1125H233.967ZM244.567 1125.24C243.431 1125.24 242.407 1124.98 241.495 1124.47C240.583 1123.94 239.863 1123.23 239.335 1122.34C238.807 1121.44 238.543 1120.42 238.543 1119.29C238.543 1118.17 238.799 1117.16 239.311 1116.26C239.839 1115.37 240.543 1114.66 241.423 1114.15C242.319 1113.62 243.319 1113.36 244.423 1113.36C245.479 1113.36 246.407 1113.6 247.207 1114.08C248.023 1114.56 248.655 1115.22 249.103 1116.07C249.567 1116.92 249.799 1117.88 249.799 1118.95C249.799 1119.11 249.791 1119.29 249.775 1119.48C249.759 1119.66 249.727 1119.86 249.679 1120.1H240.055V1118.3H248.527L247.735 1119C247.735 1118.23 247.599 1117.58 247.327 1117.06C247.055 1116.51 246.671 1116.1 246.175 1115.81C245.679 1115.5 245.079 1115.35 244.375 1115.35C243.639 1115.35 242.991 1115.51 242.431 1115.83C241.871 1116.15 241.439 1116.6 241.135 1117.18C240.831 1117.75 240.679 1118.43 240.679 1119.22C240.679 1120.02 240.839 1120.72 241.159 1121.33C241.479 1121.92 241.935 1122.38 242.527 1122.72C243.119 1123.04 243.799 1123.2 244.567 1123.2C245.207 1123.2 245.791 1123.09 246.319 1122.86C246.863 1122.64 247.327 1122.3 247.711 1121.86L249.103 1123.27C248.559 1123.91 247.887 1124.4 247.087 1124.74C246.303 1125.07 245.463 1125.24 244.567 1125.24ZM258.899 1125V1108.82H261.059V1125H258.899ZM256.091 1115.57V1113.6H263.867V1115.57H256.091ZM270.839 1125.24C269.719 1125.24 268.711 1124.98 267.815 1124.45C266.919 1123.92 266.207 1123.21 265.679 1122.31C265.151 1121.4 264.887 1120.38 264.887 1119.26C264.887 1118.16 265.151 1117.17 265.679 1116.29C266.207 1115.39 266.919 1114.68 267.815 1114.15C268.711 1113.62 269.719 1113.36 270.839 1113.36C271.943 1113.36 272.943 1113.62 273.839 1114.15C274.751 1114.66 275.471 1115.37 275.999 1116.26C276.527 1117.16 276.791 1118.16 276.791 1119.26C276.791 1120.38 276.527 1121.4 275.999 1122.31C275.471 1123.21 274.751 1123.92 273.839 1124.45C272.943 1124.98 271.943 1125.24 270.839 1125.24ZM270.839 1123.15C271.559 1123.15 272.199 1122.98 272.759 1122.65C273.319 1122.31 273.759 1121.86 274.079 1121.28C274.399 1120.69 274.559 1120.02 274.559 1119.26C274.559 1118.53 274.391 1117.87 274.055 1117.3C273.735 1116.72 273.295 1116.27 272.735 1115.95C272.191 1115.62 271.559 1115.45 270.839 1115.45C270.119 1115.45 269.479 1115.62 268.919 1115.95C268.359 1116.27 267.919 1116.72 267.599 1117.3C267.279 1117.87 267.119 1118.53 267.119 1119.26C267.119 1120.02 267.279 1120.69 267.599 1121.28C267.919 1121.86 268.359 1122.31 268.919 1122.65C269.479 1122.98 270.119 1123.15 270.839 1123.15ZM284.217 1125V1113.6H286.377V1125H284.217ZM286.377 1118.5L285.561 1118.14C285.561 1116.68 285.897 1115.52 286.569 1114.66C287.241 1113.79 288.209 1113.36 289.473 1113.36C290.049 1113.36 290.569 1113.46 291.033 1113.67C291.497 1113.86 291.929 1114.19 292.329 1114.66L290.913 1116.12C290.673 1115.86 290.409 1115.68 290.121 1115.57C289.833 1115.46 289.497 1115.4 289.113 1115.4C288.313 1115.4 287.657 1115.66 287.145 1116.17C286.633 1116.68 286.377 1117.46 286.377 1118.5ZM298.755 1125.24C297.619 1125.24 296.595 1124.98 295.683 1124.47C294.771 1123.94 294.051 1123.23 293.523 1122.34C292.995 1121.44 292.731 1120.42 292.731 1119.29C292.731 1118.17 292.987 1117.16 293.499 1116.26C294.027 1115.37 294.731 1114.66 295.611 1114.15C296.507 1113.62 297.507 1113.36 298.611 1113.36C299.667 1113.36 300.595 1113.6 301.395 1114.08C302.211 1114.56 302.843 1115.22 303.291 1116.07C303.755 1116.92 303.987 1117.88 303.987 1118.95C303.987 1119.11 303.979 1119.29 303.963 1119.48C303.947 1119.66 303.915 1119.86 303.867 1120.1H294.243V1118.3H302.715L301.923 1119C301.923 1118.23 301.787 1117.58 301.515 1117.06C301.243 1116.51 300.859 1116.1 300.363 1115.81C299.867 1115.5 299.267 1115.35 298.563 1115.35C297.827 1115.35 297.179 1115.51 296.619 1115.83C296.059 1116.15 295.627 1116.6 295.323 1117.18C295.019 1117.75 294.867 1118.43 294.867 1119.22C294.867 1120.02 295.027 1120.72 295.347 1121.33C295.667 1121.92 296.123 1122.38 296.715 1122.72C297.307 1123.04 297.987 1123.2 298.755 1123.2C299.395 1123.2 299.979 1123.09 300.507 1122.86C301.051 1122.64 301.515 1122.3 301.899 1121.86L303.291 1123.27C302.747 1123.91 302.075 1124.4 301.275 1124.74C300.491 1125.07 299.651 1125.24 298.755 1125.24ZM306.366 1125V1113.6H308.526V1125H306.366ZM307.446 1111.32C307.046 1111.32 306.718 1111.19 306.462 1110.94C306.206 1110.66 306.078 1110.33 306.078 1109.93C306.078 1109.54 306.206 1109.22 306.462 1108.97C306.718 1108.7 307.046 1108.56 307.446 1108.56C307.846 1108.56 308.174 1108.7 308.43 1108.97C308.686 1109.22 308.814 1109.54 308.814 1109.93C308.814 1110.33 308.686 1110.66 308.43 1110.94C308.174 1111.19 307.846 1111.32 307.446 1111.32ZM319.773 1125V1118.35C319.773 1117.49 319.501 1116.78 318.957 1116.22C318.413 1115.66 317.709 1115.38 316.845 1115.38C316.269 1115.38 315.757 1115.5 315.309 1115.76C314.861 1116.02 314.509 1116.37 314.253 1116.82C313.997 1117.26 313.869 1117.78 313.869 1118.35L312.981 1117.85C312.981 1116.98 313.173 1116.22 313.557 1115.54C313.941 1114.87 314.477 1114.34 315.165 1113.96C315.853 1113.56 316.629 1113.36 317.493 1113.36C318.357 1113.36 319.117 1113.58 319.773 1114.01C320.445 1114.44 320.973 1115.01 321.357 1115.71C321.741 1116.4 321.933 1117.14 321.933 1117.92V1125H319.773ZM311.709 1125V1113.6H313.869V1125H311.709ZM328.769 1125L323.537 1113.6H325.937L330.137 1123.22H328.745L332.969 1113.6H335.273L330.041 1125H328.769ZM341.95 1125.24C340.814 1125.24 339.79 1124.98 338.878 1124.47C337.966 1123.94 337.246 1123.23 336.718 1122.34C336.19 1121.44 335.926 1120.42 335.926 1119.29C335.926 1118.17 336.182 1117.16 336.694 1116.26C337.222 1115.37 337.926 1114.66 338.806 1114.15C339.702 1113.62 340.702 1113.36 341.806 1113.36C342.862 1113.36 343.79 1113.6 344.59 1114.08C345.406 1114.56 346.038 1115.22 346.486 1116.07C346.95 1116.92 347.182 1117.88 347.182 1118.95C347.182 1119.11 347.174 1119.29 347.158 1119.48C347.142 1119.66 347.11 1119.86 347.062 1120.1H337.438V1118.3H345.91L345.118 1119C345.118 1118.23 344.982 1117.58 344.71 1117.06C344.438 1116.51 344.054 1116.1 343.558 1115.81C343.062 1115.5 342.462 1115.35 341.758 1115.35C341.022 1115.35 340.374 1115.51 339.814 1115.83C339.254 1116.15 338.822 1116.6 338.518 1117.18C338.214 1117.75 338.062 1118.43 338.062 1119.22C338.062 1120.02 338.222 1120.72 338.542 1121.33C338.862 1121.92 339.318 1122.38 339.91 1122.72C340.502 1123.04 341.182 1123.2 341.95 1123.2C342.59 1123.2 343.174 1123.09 343.702 1122.86C344.246 1122.64 344.71 1122.3 345.094 1121.86L346.486 1123.27C345.942 1123.91 345.27 1124.4 344.47 1124.74C343.686 1125.07 342.846 1125.24 341.95 1125.24ZM357.601 1125V1118.35C357.601 1117.49 357.329 1116.78 356.785 1116.22C356.241 1115.66 355.537 1115.38 354.673 1115.38C354.097 1115.38 353.585 1115.5 353.137 1115.76C352.689 1116.02 352.337 1116.37 352.081 1116.82C351.825 1117.26 351.697 1117.78 351.697 1118.35L350.809 1117.85C350.809 1116.98 351.001 1116.22 351.385 1115.54C351.769 1114.87 352.305 1114.34 352.993 1113.96C353.681 1113.56 354.457 1113.36 355.321 1113.36C356.185 1113.36 356.945 1113.58 357.601 1114.01C358.273 1114.44 358.801 1115.01 359.185 1115.71C359.569 1116.4 359.761 1117.14 359.761 1117.92V1125H357.601ZM349.537 1125V1113.6H351.697V1125H349.537ZM364.297 1125V1108.82H366.457V1125H364.297ZM361.489 1115.57V1113.6H369.265V1115.57H361.489ZM371.405 1125V1113.6H373.565V1125H371.405ZM372.485 1111.32C372.085 1111.32 371.757 1111.19 371.501 1110.94C371.245 1110.66 371.117 1110.33 371.117 1109.93C371.117 1109.54 371.245 1109.22 371.501 1108.97C371.757 1108.7 372.085 1108.56 372.485 1108.56C372.885 1108.56 373.213 1108.7 373.469 1108.97C373.725 1109.22 373.853 1109.54 373.853 1109.93C373.853 1110.33 373.725 1110.66 373.469 1110.94C373.213 1111.19 372.885 1111.32 372.485 1111.32ZM384.812 1125V1118.35C384.812 1117.49 384.54 1116.78 383.996 1116.22C383.452 1115.66 382.748 1115.38 381.884 1115.38C381.308 1115.38 380.796 1115.5 380.348 1115.76C379.9 1116.02 379.548 1116.37 379.292 1116.82C379.036 1117.26 378.908 1117.78 378.908 1118.35L378.02 1117.85C378.02 1116.98 378.212 1116.22 378.596 1115.54C378.98 1114.87 379.516 1114.34 380.204 1113.96C380.892 1113.56 381.668 1113.36 382.532 1113.36C383.396 1113.36 384.156 1113.58 384.812 1114.01C385.484 1114.44 386.012 1115.01 386.396 1115.71C386.78 1116.4 386.972 1117.14 386.972 1117.92V1125H384.812ZM376.748 1125V1113.6H378.908V1125H376.748ZM394.625 1130.02C393.457 1130.02 392.417 1129.8 391.505 1129.37C390.609 1128.94 389.889 1128.33 389.345 1127.54L390.737 1126.13C391.201 1126.72 391.753 1127.17 392.393 1127.47C393.033 1127.79 393.793 1127.95 394.673 1127.95C395.841 1127.95 396.761 1127.64 397.433 1127.02C398.121 1126.41 398.465 1125.58 398.465 1124.54V1121.71L398.849 1119.14L398.465 1116.6V1113.6H400.625V1124.54C400.625 1125.63 400.369 1126.58 399.857 1127.4C399.361 1128.22 398.657 1128.86 397.745 1129.32C396.849 1129.78 395.809 1130.02 394.625 1130.02ZM394.625 1124.81C393.585 1124.81 392.649 1124.56 391.817 1124.06C391.001 1123.57 390.353 1122.89 389.873 1122.02C389.393 1121.14 389.153 1120.16 389.153 1119.07C389.153 1117.98 389.393 1117.02 389.873 1116.17C390.353 1115.3 391.001 1114.62 391.817 1114.13C392.649 1113.62 393.585 1113.36 394.625 1113.36C395.521 1113.36 396.313 1113.54 397.001 1113.89C397.689 1114.24 398.233 1114.74 398.633 1115.38C399.049 1116 399.273 1116.74 399.305 1117.58V1120.61C399.257 1121.44 399.025 1122.18 398.609 1122.82C398.209 1123.44 397.665 1123.93 396.977 1124.28C396.289 1124.63 395.505 1124.81 394.625 1124.81ZM395.057 1122.77C395.761 1122.77 396.377 1122.62 396.905 1122.31C397.449 1122.01 397.865 1121.58 398.153 1121.04C398.441 1120.48 398.585 1119.83 398.585 1119.1C398.585 1118.36 398.433 1117.72 398.129 1117.18C397.841 1116.62 397.433 1116.18 396.905 1115.88C396.377 1115.56 395.753 1115.4 395.033 1115.4C394.313 1115.4 393.681 1115.56 393.137 1115.88C392.593 1116.18 392.161 1116.62 391.84 1117.18C391.537 1117.72 391.385 1118.35 391.385 1119.07C391.385 1119.79 391.537 1120.43 391.84 1120.99C392.161 1121.55 392.593 1121.99 393.137 1122.31C393.697 1122.62 394.337 1122.77 395.057 1122.77ZM125.328 1161.1L120.384 1149.6H122.784L126.456 1158.6H125.688L129.552 1149.6H131.952L126.624 1161.1H125.328ZM122.064 1165.78L125.424 1158.89L126.624 1161.1L124.464 1165.78H122.064ZM138.487 1161.24C137.367 1161.24 136.359 1160.98 135.463 1160.45C134.567 1159.92 133.855 1159.21 133.327 1158.31C132.799 1157.4 132.535 1156.38 132.535 1155.26C132.535 1154.16 132.799 1153.17 133.327 1152.29C133.855 1151.39 134.567 1150.68 135.463 1150.15C136.359 1149.62 137.367 1149.36 138.487 1149.36C139.591 1149.36 140.591 1149.62 141.487 1150.15C142.399 1150.66 143.119 1151.37 143.647 1152.26C144.175 1153.16 144.439 1154.16 144.439 1155.26C144.439 1156.38 144.175 1157.4 143.647 1158.31C143.119 1159.21 142.399 1159.92 141.487 1160.45C140.591 1160.98 139.591 1161.24 138.487 1161.24ZM138.487 1159.15C139.207 1159.15 139.847 1158.98 140.407 1158.65C140.967 1158.31 141.407 1157.86 141.727 1157.28C142.047 1156.69 142.207 1156.02 142.207 1155.26C142.207 1154.53 142.039 1153.87 141.703 1153.3C141.383 1152.72 140.943 1152.27 140.383 1151.95C139.839 1151.62 139.207 1151.45 138.487 1151.45C137.767 1151.45 137.127 1151.62 136.567 1151.95C136.007 1152.27 135.567 1152.72 135.247 1153.3C134.927 1153.87 134.767 1154.53 134.767 1155.26C134.767 1156.02 134.927 1156.69 135.247 1157.28C135.567 1157.86 136.007 1158.31 136.567 1158.65C137.127 1158.98 137.767 1159.15 138.487 1159.15ZM151.457 1161.24C150.529 1161.24 149.689 1161.03 148.937 1160.62C148.201 1160.18 147.625 1159.59 147.209 1158.84C146.793 1158.09 146.585 1157.22 146.585 1156.22V1149.6H148.745V1156.13C148.745 1156.75 148.849 1157.3 149.057 1157.76C149.281 1158.21 149.601 1158.55 150.017 1158.79C150.433 1159.03 150.921 1159.15 151.481 1159.15C152.329 1159.15 152.993 1158.89 153.473 1158.36C153.953 1157.82 154.193 1157.07 154.193 1156.13V1149.6H156.353V1156.22C156.353 1157.22 156.145 1158.09 155.729 1158.84C155.313 1159.59 154.737 1160.18 154.001 1160.62C153.281 1161.03 152.433 1161.24 151.457 1161.24ZM159.248 1161V1149.6H161.408V1161H159.248ZM161.408 1154.5L160.592 1154.14C160.592 1152.68 160.928 1151.52 161.6 1150.66C162.272 1149.79 163.24 1149.36 164.504 1149.36C165.08 1149.36 165.6 1149.46 166.064 1149.67C166.528 1149.86 166.96 1150.19 167.36 1150.66L165.944 1152.12C165.704 1151.86 165.44 1151.68 165.152 1151.57C164.864 1151.46 164.528 1151.4 164.144 1151.4C163.344 1151.4 162.688 1151.66 162.176 1152.17C161.664 1152.68 161.408 1153.46 161.408 1154.5ZM174.295 1161V1143.86H176.455V1161H174.295ZM179.639 1161V1149.6H181.799V1161H179.639ZM180.719 1147.32C180.319 1147.32 179.991 1147.19 179.735 1146.94C179.479 1146.66 179.351 1146.33 179.351 1145.93C179.351 1145.54 179.479 1145.22 179.735 1144.97C179.991 1144.7 180.319 1144.56 180.719 1144.56C181.119 1144.56 181.447 1144.7 181.703 1144.97C181.959 1145.22 182.087 1145.54 182.087 1145.93C182.087 1146.33 181.959 1146.66 181.703 1146.94C181.447 1147.19 181.119 1147.32 180.719 1147.32ZM186.614 1161V1147.9C186.614 1147.05 186.798 1146.31 187.166 1145.69C187.534 1145.05 188.038 1144.54 188.678 1144.18C189.334 1143.81 190.094 1143.62 190.958 1143.62C191.614 1143.62 192.182 1143.74 192.662 1143.96C193.142 1144.18 193.582 1144.51 193.982 1144.94L192.566 1146.34C192.358 1146.11 192.126 1145.94 191.87 1145.83C191.614 1145.7 191.302 1145.64 190.934 1145.64C190.246 1145.64 189.71 1145.84 189.326 1146.24C188.958 1146.64 188.774 1147.19 188.774 1147.9V1161H186.614ZM183.806 1151.57V1149.6H192.398V1151.57H183.806ZM199.192 1161.24C198.056 1161.24 197.032 1160.98 196.12 1160.47C195.208 1159.94 194.488 1159.23 193.96 1158.34C193.432 1157.44 193.168 1156.42 193.168 1155.29C193.168 1154.17 193.424 1153.16 193.936 1152.26C194.464 1151.37 195.168 1150.66 196.048 1150.15C196.944 1149.62 197.944 1149.36 199.048 1149.36C200.104 1149.36 201.032 1149.6 201.832 1150.08C202.648 1150.56 203.28 1151.22 203.728 1152.07C204.192 1152.92 204.424 1153.88 204.424 1154.95C204.424 1155.11 204.416 1155.29 204.4 1155.48C204.384 1155.66 204.352 1155.86 204.304 1156.1H194.68V1154.3H203.152L202.36 1155C202.36 1154.23 202.224 1153.58 201.952 1153.06C201.68 1152.51 201.296 1152.1 200.8 1151.81C200.304 1151.5 199.704 1151.35 199 1151.35C198.264 1151.35 197.616 1151.51 197.056 1151.83C196.496 1152.15 196.064 1152.6 195.76 1153.18C195.456 1153.75 195.304 1154.43 195.304 1155.22C195.304 1156.02 195.464 1156.72 195.784 1157.33C196.104 1157.92 196.56 1158.38 197.152 1158.72C197.744 1159.04 198.424 1159.2 199.192 1159.2C199.832 1159.2 200.416 1159.09 200.944 1158.86C201.488 1158.64 201.952 1158.3 202.336 1157.86L203.728 1159.27C203.184 1159.91 202.512 1160.4 201.712 1160.74C200.928 1161.07 200.088 1161.24 199.192 1161.24Z" fill="white"/>
</svg>
